<svg width="616" height="466" viewBox="0 0 616 466" fill="none" xmlns="http://www.w3.org/2000/svg">
<path d="M378.586 12.73H382.726V18.28C382.726 20.88 381.426 22.18 378.826 22.18H376.246C373.646 22.18 372.346 20.88 372.346 18.28V4.72C372.346 2.12 373.646 0.819999 376.246 0.819999H378.766C381.366 0.819999 382.666 2.12 382.666 4.72V9.64H378.526V5.17C378.526 4.67 378.276 4.42 377.776 4.42H377.296C376.796 4.42 376.546 4.67 376.546 5.17V17.83C376.546 18.33 376.796 18.58 377.296 18.58H377.836C378.336 18.58 378.586 18.33 378.586 17.83V12.73ZM394.445 0.999999V18.28C394.445 20.88 393.145 22.18 390.545 22.18H387.995C385.395 22.18 384.095 20.88 384.095 18.28V0.999999H388.295V17.83C388.295 18.33 388.545 18.58 389.045 18.58H389.495C389.995 18.58 390.245 18.33 390.245 17.83V0.999999H394.445ZM395.902 0.999999H403.702V4.75H400.102V9.46H403.552V13.21H400.102V18.25H403.762V22H395.902V0.999999ZM411.822 11.44L411.732 0.999999H415.362V22H411.282L408.642 10.6L408.732 22H405.102V0.999999H409.392L411.822 11.44ZM423.15 22H418.95V4.75H416.4V0.999999H425.7V4.75H423.15V22ZM433.441 0.999999L436.201 22H432.031L431.701 18.94H429.061L428.761 22H424.951L427.711 0.999999H433.441ZM430.381 6.1L429.451 15.28H431.341L430.381 6.1ZM378.578 38.11C379.218 38.57 379.658 39.04 379.898 39.52C380.138 40 380.258 40.63 380.258 41.41V45.28C380.258 47.88 378.958 49.18 376.358 49.18H374.018C371.418 49.18 370.118 47.88 370.118 45.28V40.81H374.228V44.89C374.228 45.39 374.478 45.64 374.978 45.64H375.368C375.868 45.64 376.118 45.39 376.118 44.89V42.37C376.118 41.81 375.878 41.36 375.398 41.02L371.798 38.35C371.158 37.89 370.718 37.42 370.478 36.94C370.238 36.44 370.118 35.81 370.118 35.05V31.72C370.118 29.12 371.418 27.82 374.018 27.82H376.298C378.898 27.82 380.198 29.12 380.198 31.72V35.56H376.088V32.11C376.088 31.61 375.838 31.36 375.338 31.36H375.008C374.508 31.36 374.258 31.61 374.258 32.11V34.09C374.258 34.65 374.498 35.1 374.978 35.44L378.578 38.11ZM389.261 28L392.021 49H387.851L387.521 45.94H384.881L384.581 49H380.771L383.531 28H389.261ZM386.201 33.1L385.271 42.28H387.161L386.201 33.1ZM398.948 39.73H403.088V45.28C403.088 47.88 401.788 49.18 399.188 49.18H396.608C394.008 49.18 392.708 47.88 392.708 45.28V31.72C392.708 29.12 394.008 27.82 396.608 27.82H399.128C401.728 27.82 403.028 29.12 403.028 31.72V36.64H398.888V32.17C398.888 31.67 398.638 31.42 398.138 31.42H397.658C397.158 31.42 396.908 31.67 396.908 32.17V44.83C396.908 45.33 397.158 45.58 397.658 45.58H398.198C398.698 45.58 398.948 45.33 398.948 44.83V39.73ZM412.826 38.14C414.026 38.48 414.626 39.38 414.626 40.84V45.1C414.626 47.7 413.326 49 410.726 49H404.486V28H410.666C413.266 28 414.566 29.3 414.566 31.9V35.02C414.566 36.66 413.986 37.7 412.826 38.14ZM410.396 32.35C410.396 31.85 410.146 31.6 409.646 31.6H408.656V36.58H409.646C410.146 36.58 410.396 36.33 410.396 35.83V32.35ZM408.656 40.09V45.4H409.706C410.206 45.4 410.456 45.15 410.456 44.65V40.84C410.456 40.34 410.206 40.09 409.706 40.09H408.656ZM415.971 28H423.771V31.75H420.171V36.46H423.621V40.21H420.171V45.25H423.831V49H415.971V28ZM418.401 26.95L419.751 24.1H423.621L421.251 26.95H418.401ZM433.3 28L433.99 33.91L434.62 28H437.41V37.15H435.46V31.03L434.65 37.15H432.94L432.13 30.97V37.15H430.57V28H433.3ZM428.65 37.15H426.67V29.74H425.29V28H430.03V29.74H428.65V37.15Z" fill="#CA8923"/>
<path d="M469.7 18.2793V4.71484C469.7 2.11719 470.999 0.818359 473.597 0.818359H474.373C476.932 0.818359 478.211 2.09766 478.211 4.65625V8.43555H475.882V4.59766C475.882 3.54297 475.35 3.01562 474.285 3.01562H473.685C473.138 3.01562 472.737 3.14258 472.483 3.39648C472.229 3.65039 472.103 4.05078 472.103 4.59766V18.3965C472.103 19.4609 472.63 19.9932 473.685 19.9932H474.344C475.408 19.9932 475.94 19.4609 475.94 18.3965V13.9287H478.27V18.2793C478.27 20.877 476.971 22.1758 474.373 22.1758H473.597C470.999 22.1758 469.7 20.877 469.7 18.2793ZM480.335 18.2793V0.994141H482.737V18.3965C482.737 19.4609 483.265 19.9932 484.319 19.9932H484.891C485.955 19.9932 486.487 19.4609 486.487 18.3965V0.994141H488.875V18.2793C488.875 20.877 487.576 22.1758 484.979 22.1758H484.231C481.634 22.1758 480.335 20.877 480.335 18.2793ZM491.146 22V0.994141H497.737V3.2207H493.548V10.1787H497.591V12.376H493.548V19.7734H497.796V22H491.146ZM499.788 22V0.994141H503.084L506.57 16.1553V0.994141H508.841V22H505.853L502.059 5.56445V22H499.788ZM510.276 3.2207V0.994141H518.978V3.2207H515.828V22H513.44V3.2207H510.276ZM519.783 22L523.021 0.935547H526.082L529.319 22H526.946L526.434 18.4844H522.566L522.098 22H519.783ZM522.874 16.3311H526.141L524.485 4.68555L522.874 16.3311ZM534.563 22V0.994141H538.519C540.091 0.994141 541.258 1.37988 542.02 2.15137C542.791 2.91309 543.177 4.08008 543.177 5.65234V17.3564C543.177 18.9287 542.791 20.0957 542.02 20.8574C541.258 21.6191 540.091 22 538.519 22H534.563ZM536.966 19.8027H538.401C539.212 19.8027 539.808 19.6074 540.188 19.2168C540.579 18.8164 540.774 18.2061 540.774 17.3857V5.62305C540.774 4.00195 539.983 3.19141 538.401 3.19141H536.966V19.8027ZM545.403 22V0.994141H551.995V3.2207H547.806V10.1787H551.849V12.376H547.806V19.7734H552.054V22H545.403ZM557.649 22V0.994141H562.029C564.627 0.994141 565.926 2.29785 565.926 4.90527V7.99609C565.926 8.9043 565.774 9.61719 565.472 10.1348C565.169 10.6523 564.71 11.0283 564.095 11.2627C564.729 11.5166 565.203 11.9023 565.516 12.4199C565.828 12.9375 565.984 13.6504 565.984 14.5586V18.1035C565.984 20.7012 564.686 22 562.088 22H557.649ZM560.022 19.8467H562.029C563.084 19.8467 563.611 19.3145 563.611 18.25V14.1045C563.611 13.5088 563.465 13.0693 563.172 12.7861C562.889 12.4932 562.449 12.3467 561.854 12.3467H560.022V19.8467ZM560.022 10.208H561.78C562.962 10.208 563.553 9.61719 563.553 8.43555V4.74414C563.553 4.19727 563.421 3.79687 563.157 3.54297C562.903 3.28906 562.508 3.16211 561.971 3.16211H560.022V10.208ZM567.537 22L570.774 0.935547H573.836L577.073 22H574.7L574.188 18.4844H570.32L569.852 22H567.537ZM570.628 16.3311H573.895L572.239 4.68555L570.628 16.3311ZM578.714 22V0.994141H582.01L585.496 16.1553V0.994141H587.767V22H584.778L580.984 5.56445V22H578.714ZM589.993 18.2793V4.71484C589.993 2.11719 591.292 0.818359 593.89 0.818359H594.666C597.225 0.818359 598.504 2.09766 598.504 4.65625V8.43555H596.175V4.59766C596.175 3.54297 595.643 3.01562 594.578 3.01562H593.978C593.431 3.01562 593.03 3.14258 592.776 3.39648C592.522 3.65039 592.396 4.05078 592.396 4.59766V18.3965C592.396 19.4609 592.923 19.9932 593.978 19.9932H594.637C595.701 19.9932 596.233 19.4609 596.233 18.3965V13.9287H598.562V18.2793C598.562 20.877 597.264 22.1758 594.666 22.1758H593.89C591.292 22.1758 589.993 20.877 589.993 18.2793ZM600.599 18.2793V4.71484C600.599 2.11719 601.897 0.818359 604.495 0.818359H605.389C607.996 0.818359 609.3 2.11719 609.3 4.71484V18.2793C609.3 20.877 607.996 22.1758 605.389 22.1758H604.495C601.897 22.1758 600.599 20.877 600.599 18.2793ZM603.001 18.3965C603.001 19.4609 603.528 19.9932 604.583 19.9932H605.301C606.365 19.9932 606.897 19.4609 606.897 18.3965V4.59766C606.897 3.54297 606.365 3.01562 605.301 3.01562H604.583C604.036 3.01562 603.636 3.14258 603.382 3.39648C603.128 3.65039 603.001 4.05078 603.001 4.59766V18.3965ZM466.331 48V26.9941H470.462C473.069 26.9941 474.373 28.2979 474.373 30.9053V36.208C474.373 38.8057 473.069 40.1045 470.462 40.1045H468.733V48H466.331ZM468.733 37.9219H470.374C471.438 37.9219 471.971 37.3896 471.971 36.3252V30.7734C471.971 29.7188 471.438 29.1914 470.374 29.1914H468.733V37.9219ZM476.321 48V26.9941H480.789C483.387 26.9941 484.686 28.2979 484.686 30.9053V34.8018C484.686 35.7197 484.529 36.4375 484.217 36.9551C483.914 37.4629 483.45 37.8438 482.825 38.0977C483.489 38.2832 483.968 38.6006 484.261 39.0498C484.563 39.4893 484.715 40.1143 484.715 40.9248V48H482.312V41.0127C482.312 40.3779 482.161 39.9141 481.858 39.6211C481.565 39.3281 481.106 39.1816 480.481 39.1816H478.724V48H476.321ZM478.724 37.043H480.525C481.121 37.043 481.561 36.9014 481.844 36.6182C482.137 36.335 482.283 35.8906 482.283 35.2852V30.7734C482.283 30.2266 482.151 29.8262 481.888 29.5723C481.634 29.3184 481.238 29.1914 480.701 29.1914H478.724V37.043ZM486.868 44.2793V30.7148C486.868 28.1172 488.167 26.8184 490.765 26.8184H491.658C494.266 26.8184 495.569 28.1172 495.569 30.7148V44.2793C495.569 46.877 494.266 48.1758 491.658 48.1758H490.765C488.167 48.1758 486.868 46.877 486.868 44.2793ZM489.271 44.3965C489.271 45.4609 489.798 45.9932 490.853 45.9932H491.57C492.635 45.9932 493.167 45.4609 493.167 44.3965V30.5977C493.167 29.543 492.635 29.0156 491.57 29.0156H490.853C490.306 29.0156 489.905 29.1426 489.651 29.3965C489.397 29.6504 489.271 30.0508 489.271 30.5977V44.3965ZM497.796 48V26.9941H501.575L504.241 43.5615L506.907 26.9941H510.628V48H508.299V30.627L505.413 48H502.952L500.066 30.627V48H497.796ZM512.913 48V26.9941H519.505V29.2207H515.315V36.1787H519.358V38.376H515.315V45.7734H519.563V48H512.913ZM521.556 48V26.9941H525.511C527.083 26.9941 528.25 27.3799 529.012 28.1514C529.783 28.9131 530.169 30.0801 530.169 31.6523V43.3564C530.169 44.9287 529.783 46.0957 529.012 46.8574C528.25 47.6191 527.083 48 525.511 48H521.556ZM523.958 45.8027H525.394C526.204 45.8027 526.8 45.6074 527.181 45.2168C527.571 44.8164 527.767 44.2061 527.767 43.3857V31.623C527.767 30.002 526.976 29.1914 525.394 29.1914H523.958V45.8027ZM532.425 48V26.9941H534.827V48H532.425ZM537.083 44.2793V30.7148C537.083 28.1172 538.382 26.8184 540.979 26.8184H541.873C544.48 26.8184 545.784 28.1172 545.784 30.7148V44.2793C545.784 46.877 544.48 48.1758 541.873 48.1758H540.979C538.382 48.1758 537.083 46.877 537.083 44.2793ZM539.485 44.3965C539.485 45.4609 540.013 45.9932 541.067 45.9932H541.785C542.85 45.9932 543.382 45.4609 543.382 44.3965V30.5977C543.382 29.543 542.85 29.0156 541.785 29.0156H541.067C540.521 29.0156 540.12 29.1426 539.866 29.3965C539.612 29.6504 539.485 30.0508 539.485 30.5977V44.3965ZM551.614 48V26.9941H558.206V29.2207H554.017V36.1787H558.06V38.376H554.017V45.7734H558.265V48H551.614ZM560.257 48V26.9941H563.553L567.039 42.1553V26.9941H569.31V48H566.321L562.527 31.5645V48H560.257ZM575.169 44.2793V26.9941H577.571V44.3965C577.571 45.4609 578.099 45.9932 579.153 45.9932H579.725C580.789 45.9932 581.321 45.4609 581.321 44.3965V26.9941H583.709V44.2793C583.709 46.877 582.41 48.1758 579.812 48.1758H579.065C576.468 48.1758 575.169 46.877 575.169 44.2793ZM585.892 44.3379V39.9287H588.221V44.4258C588.221 45.4902 588.753 46.0225 589.817 46.0225H590.301C591.355 46.0225 591.883 45.4902 591.883 44.4258V41.2764C591.883 40.7783 591.8 40.3877 591.634 40.1045C591.478 39.8213 591.214 39.543 590.843 39.2695L587.898 37.1455C587.146 36.6084 586.624 36.0469 586.331 35.4609C586.038 34.8652 585.892 34.123 585.892 33.2344V30.7148C585.892 28.1172 587.19 26.8184 589.788 26.8184H590.389C592.947 26.8184 594.227 28.0977 594.227 30.6562V34.4355H591.883V30.5684C591.883 30.0215 591.751 29.6211 591.487 29.3672C591.233 29.1133 590.838 28.9863 590.301 28.9863H589.876C589.329 28.9863 588.929 29.1133 588.675 29.3672C588.421 29.6211 588.294 30.0215 588.294 30.5684V33.2051C588.294 33.7031 588.377 34.0938 588.543 34.377C588.709 34.6602 588.982 34.9434 589.363 35.2266L592.278 37.3213C593.04 37.8779 593.562 38.4395 593.846 39.0059C594.139 39.5723 594.285 40.3096 594.285 41.2178V44.2793C594.285 46.877 592.986 48.1758 590.389 48.1758H589.729C587.171 48.1758 585.892 46.8965 585.892 44.3379ZM595.779 48L599.017 26.9355H602.078L605.315 48H602.942L602.43 44.4844H598.562L598.094 48H595.779ZM598.87 42.3311H602.137L600.481 30.6855L598.87 42.3311ZM606.238 34.1719V32.3994L608.509 31.2275L606.238 30.0557V28.2832H606.326L609.08 29.9092L609.021 26.9355H610.618L610.53 29.9092L613.313 28.2832H613.401V30.0557L611.087 31.2275L613.401 32.3994V34.1719H613.313L610.53 32.5752L610.618 35.5195H609.021L609.08 32.5752L606.326 34.1719H606.238Z" fill="#CA8923"/>
<rect x="332.942" y="66" width="133.896" height="398" stroke="#114550" stroke-width="2.4581"/>
<path d="M12 81C12 72.7157 18.7157 66 27 66H333.316V464H27C18.7157 464 12 457.284 12 449V81Z" stroke="#114550" stroke-width="2.4581"/>
<path d="M466.839 66H598C606.285 66 613 72.7157 613 81V449C613 457.284 606.285 464 598 464H466.839V66Z" stroke="#114550" stroke-width="2.4581"/>
<path d="M613 179H12" stroke="#114550" stroke-width="2.4581"/>
<path d="M613 292H12" stroke="#114550" stroke-width="2.4581"/>
<path d="M613 405H12" stroke="#114550" stroke-width="2.4581"/>
<path d="M613 122H12" stroke="#114550" stroke-width="2.4581"/>
<path d="M613 235H12" stroke="#114550" stroke-width="2.4581"/>
<path d="M613 348H12" stroke="#114550" stroke-width="2.4581"/>
<path d="M72.3332 88.32H74.5092V100H72.2052L67.5812 92.064V100H65.4052V88.32H67.7092L72.3332 96.272V88.32ZM83.6586 88.32H85.8346V96.144C85.8346 96.8587 85.7439 97.472 85.5626 97.984C85.3813 98.496 85.1573 98.896 84.8906 99.184C84.6239 99.4613 84.2826 99.6853 83.8666 99.856C83.4506 100.016 83.0613 100.117 82.6986 100.16C82.3466 100.203 81.9359 100.224 81.4666 100.224C80.9973 100.224 80.5813 100.203 80.2186 100.16C79.8666 100.117 79.4826 100.016 79.0666 99.856C78.6506 99.6853 78.3093 99.4613 78.0426 99.184C77.7866 98.896 77.5679 98.496 77.3866 97.984C77.2053 97.472 77.1146 96.8587 77.1146 96.144V88.32H79.2906V95.984C79.2906 96.976 79.4826 97.6373 79.8666 97.968C80.2506 98.288 80.7839 98.448 81.4666 98.448C81.7973 98.448 82.0746 98.4213 82.2986 98.368C82.5226 98.3147 82.7466 98.208 82.9706 98.048C83.4293 97.7173 83.6586 97.0293 83.6586 95.984V88.32ZM81.0986 87.552L80.3786 86.4L83.4986 84.272L84.4586 85.808L81.0986 87.552ZM96.4126 88.32H99.4526L99.7566 100H97.6126L97.4366 91.008L94.8286 98.608H92.9406L90.5886 91.264L90.4286 100H88.2846L88.5726 88.32H91.6286L93.9166 95.696L96.4126 88.32ZM102.441 88.32H109.033V90H104.617V93.232H108.633V94.896H104.617V98.32H109.353V100H102.441V88.32ZM111.234 88.32H115.314C116.797 88.32 117.826 88.7093 118.402 89.488C118.893 90.16 119.138 90.9493 119.138 91.856C119.138 93.4667 118.509 94.5333 117.25 95.056C117.485 95.312 117.687 95.632 117.858 96.016L119.634 100H117.314L115.65 96.208C115.501 95.888 115.335 95.6693 115.154 95.552C114.983 95.4347 114.722 95.376 114.37 95.376H113.41V100H111.234V88.32ZM113.41 93.696H115.058C115.698 93.696 116.173 93.52 116.482 93.168C116.802 92.816 116.962 92.3787 116.962 91.856C116.962 91.3227 116.802 90.88 116.482 90.528C116.173 90.176 115.698 90 115.058 90H113.41V93.696ZM129.652 98.448C129.311 99.024 128.815 99.4667 128.164 99.776C127.524 100.075 126.778 100.224 125.924 100.224C125.082 100.224 124.378 100.123 123.812 99.92C123.247 99.7067 122.788 99.4293 122.436 99.088C122.084 98.736 121.802 98.2933 121.588 97.76C121.215 96.8213 121.028 95.6213 121.028 94.16C121.028 93.2533 121.098 92.4587 121.236 91.776C121.375 91.0933 121.615 90.464 121.956 89.888C122.639 88.6933 123.919 88.096 125.796 88.096C127.93 88.096 129.338 88.9227 130.02 90.576C130.394 91.504 130.58 92.6987 130.58 94.16C130.58 95.0773 130.511 95.8773 130.372 96.56C130.234 97.2427 129.994 97.872 129.652 98.448ZM125.796 98.464C126.767 98.464 127.444 98.0853 127.828 97.328C128.212 96.5707 128.404 95.5147 128.404 94.16C128.404 92.8053 128.212 91.7493 127.828 90.992C127.444 90.2347 126.767 89.856 125.796 89.856C124.772 89.856 124.074 90.272 123.7 91.104C123.37 91.8613 123.204 92.88 123.204 94.16C123.204 96.2933 123.636 97.6213 124.5 98.144C124.852 98.3573 125.284 98.464 125.796 98.464ZM137.066 88.32H140.954C142.842 88.32 144.122 88.896 144.794 90.048C145.125 90.6027 145.354 91.2053 145.482 91.856C145.61 92.5067 145.674 93.232 145.674 94.032C145.674 94.8213 145.637 95.488 145.562 96.032C145.488 96.576 145.344 97.1093 145.13 97.632C144.928 98.144 144.656 98.5653 144.314 98.896C143.557 99.632 142.437 100 140.954 100H137.066V88.32ZM140.666 90H139.242V98.32H140.666C141.808 98.32 142.581 97.9093 142.986 97.088C143.328 96.3733 143.498 95.3973 143.498 94.16C143.498 92.9227 143.328 91.9467 142.986 91.232C142.581 90.4107 141.808 90 140.666 90ZM148.078 88.32H154.67V90H150.254V93.232H154.27V94.896H150.254V98.32H154.99V100H148.078V88.32ZM165.518 93.36C166.606 93.6373 167.384 94.032 167.854 94.544C168.323 95.056 168.558 95.824 168.558 96.848C168.558 97.872 168.206 98.6933 167.502 99.312C166.798 99.92 165.763 100.224 164.398 100.224C163.032 100.224 162.046 99.936 161.438 99.36C160.83 98.7733 160.456 97.9253 160.318 96.816L162.062 96.544C162.126 97.1733 162.339 97.664 162.702 98.016C163.075 98.3573 163.592 98.528 164.254 98.528C165.672 98.528 166.382 97.9893 166.382 96.912C166.382 96.4533 166.248 96.1067 165.982 95.872C165.715 95.6373 165.203 95.424 164.446 95.232L163.534 95.008C162.467 94.7413 161.704 94.3467 161.246 93.824C160.787 93.3013 160.558 92.5227 160.558 91.488C160.558 90.4427 160.894 89.616 161.566 89.008C162.238 88.4 163.23 88.096 164.542 88.096C165.864 88.096 166.814 88.3893 167.39 88.976C167.976 89.552 168.339 90.3947 168.478 91.504L166.75 91.776C166.611 90.4533 165.928 89.792 164.702 89.792C164.03 89.792 163.534 89.9413 163.214 90.24C162.894 90.528 162.734 90.912 162.734 91.392C162.734 91.872 162.856 92.2293 163.102 92.464C163.347 92.6987 163.816 92.9067 164.51 93.088L165.518 93.36ZM170.598 88.32H177.19V90H172.774V93.232H176.79V94.896H172.774V98.32H177.51V100H170.598V88.32ZM183.455 98.464C184.991 98.464 185.77 97.632 185.791 95.968V95.424H183.999V94.032H187.663V100H186.575L186.207 98.832C185.525 99.76 184.565 100.224 183.327 100.224C181.578 100.224 180.373 99.68 179.711 98.592C179.37 98.0373 179.13 97.408 178.991 96.704C178.853 96 178.783 95.1467 178.783 94.144C178.783 93.1307 178.853 92.272 178.991 91.568C179.141 90.8533 179.391 90.2293 179.743 89.696C180.437 88.6293 181.695 88.096 183.519 88.096C184.831 88.096 185.775 88.3893 186.351 88.976C186.927 89.5627 187.279 90.4267 187.407 91.568L185.647 91.84C185.583 91.2 185.386 90.7093 185.055 90.368C184.725 90.0267 184.213 89.856 183.519 89.856C182.517 89.856 181.839 90.1867 181.487 90.848C181.135 91.5093 180.959 92.6027 180.959 94.128C180.959 95.6533 181.13 96.7573 181.471 97.44C181.823 98.1227 182.485 98.464 183.455 98.464ZM196.66 88.32H198.836V96.144C198.836 96.8587 198.746 97.472 198.564 97.984C198.383 98.496 198.159 98.896 197.892 99.184C197.626 99.4613 197.284 99.6853 196.868 99.856C196.452 100.016 196.063 100.117 195.7 100.16C195.348 100.203 194.938 100.224 194.468 100.224C193.999 100.224 193.583 100.203 193.22 100.16C192.868 100.117 192.484 100.016 192.068 99.856C191.652 99.6853 191.311 99.4613 191.044 99.184C190.788 98.896 190.57 98.496 190.388 97.984C190.207 97.472 190.116 96.8587 190.116 96.144V88.32H192.292V95.984C192.292 96.976 192.484 97.6373 192.868 97.968C193.252 98.288 193.786 98.448 194.468 98.448C194.799 98.448 195.076 98.4213 195.3 98.368C195.524 98.3147 195.748 98.208 195.972 98.048C196.431 97.7173 196.66 97.0293 196.66 95.984V88.32ZM201.446 88.32H205.526C207.009 88.32 208.038 88.7093 208.614 89.488C209.105 90.16 209.35 90.9493 209.35 91.856C209.35 93.4667 208.721 94.5333 207.462 95.056C207.697 95.312 207.9 95.632 208.07 96.016L209.846 100H207.526L205.862 96.208C205.713 95.888 205.548 95.6693 205.366 95.552C205.196 95.4347 204.934 95.376 204.582 95.376H203.622V100H201.446V88.32ZM203.622 93.696H205.27C205.91 93.696 206.385 93.52 206.694 93.168C207.014 92.816 207.174 92.3787 207.174 91.856C207.174 91.3227 207.014 90.88 206.694 90.528C206.385 90.176 205.91 90 205.27 90H203.622V93.696ZM211.849 88.32H214.025V100H211.849V88.32ZM216.876 88.32H220.764C222.652 88.32 223.932 88.896 224.604 90.048C224.935 90.6027 225.164 91.2053 225.292 91.856C225.42 92.5067 225.484 93.232 225.484 94.032C225.484 94.8213 225.447 95.488 225.372 96.032C225.298 96.576 225.154 97.1093 224.94 97.632C224.738 98.144 224.466 98.5653 224.124 98.896C223.367 99.632 222.247 100 220.764 100H216.876V88.32ZM220.476 90H219.052V98.32H220.476C221.618 98.32 222.391 97.9093 222.796 97.088C223.138 96.3733 223.308 95.3973 223.308 94.16C223.308 92.9227 223.138 91.9467 222.796 91.232C222.391 90.4107 221.618 90 220.476 90ZM230.112 88.32H232.944L236.528 100H234.432L233.44 96.768H229.6L228.624 100H226.512L230.112 88.32ZM231.52 90.384L230.096 95.12H232.944L231.52 90.384ZM237.994 88.32H241.882C243.77 88.32 245.05 88.896 245.722 90.048C246.053 90.6027 246.282 91.2053 246.41 91.856C246.538 92.5067 246.602 93.232 246.602 94.032C246.602 94.8213 246.565 95.488 246.49 96.032C246.415 96.576 246.271 97.1093 246.058 97.632C245.855 98.144 245.583 98.5653 245.242 98.896C244.485 99.632 243.365 100 241.882 100H237.994V88.32ZM241.594 90H240.17V98.32H241.594C242.735 98.32 243.509 97.9093 243.914 97.088C244.255 96.3733 244.426 95.3973 244.426 94.16C244.426 92.9227 244.255 91.9467 243.914 91.232C243.509 90.4107 242.735 90 241.594 90ZM257.652 93.36C258.74 93.6373 259.519 94.032 259.988 94.544C260.457 95.056 260.692 95.824 260.692 96.848C260.692 97.872 260.34 98.6933 259.636 99.312C258.932 99.92 257.897 100.224 256.532 100.224C255.167 100.224 254.18 99.936 253.572 99.36C252.964 98.7733 252.591 97.9253 252.452 96.816L254.196 96.544C254.26 97.1733 254.473 97.664 254.836 98.016C255.209 98.3573 255.727 98.528 256.388 98.528C257.807 98.528 258.516 97.9893 258.516 96.912C258.516 96.4533 258.383 96.1067 258.116 95.872C257.849 95.6373 257.337 95.424 256.58 95.232L255.668 95.008C254.601 94.7413 253.839 94.3467 253.38 93.824C252.921 93.3013 252.692 92.5227 252.692 91.488C252.692 90.4427 253.028 89.616 253.7 89.008C254.372 88.4 255.364 88.096 256.676 88.096C257.999 88.096 258.948 88.3893 259.524 88.976C260.111 89.552 260.473 90.3947 260.612 91.504L258.884 91.776C258.745 90.4533 258.063 89.792 256.836 89.792C256.164 89.792 255.668 89.9413 255.348 90.24C255.028 90.528 254.868 90.912 254.868 91.392C254.868 91.872 254.991 92.2293 255.236 92.464C255.481 92.6987 255.951 92.9067 256.644 93.088L257.652 93.36ZM270.749 98.448C270.407 99.024 269.911 99.4667 269.261 99.776C268.621 100.075 267.874 100.224 267.021 100.224C266.178 100.224 265.474 100.123 264.909 99.92C264.343 99.7067 263.885 99.4293 263.533 99.088C263.181 98.736 262.898 98.2933 262.685 97.76C262.311 96.8213 262.125 95.6213 262.125 94.16C262.125 93.2533 262.194 92.4587 262.333 91.776C262.471 91.0933 262.711 90.464 263.053 89.888C263.735 88.6933 265.015 88.096 266.893 88.096C269.026 88.096 270.434 88.9227 271.117 90.576C271.49 91.504 271.677 92.6987 271.677 94.16C271.677 95.0773 271.607 95.8773 271.469 96.56C271.33 97.2427 271.09 97.872 270.749 98.448ZM266.893 98.464C267.863 98.464 268.541 98.0853 268.925 97.328C269.309 96.5707 269.501 95.5147 269.501 94.16C269.501 92.8053 269.309 91.7493 268.925 90.992C268.541 90.2347 267.863 89.856 266.893 89.856C265.869 89.856 265.17 90.272 264.797 91.104C264.466 91.8613 264.301 92.88 264.301 94.16C264.301 96.2933 264.733 97.6213 265.597 98.144C265.949 98.3573 266.381 98.464 266.893 98.464ZM278.044 89.856C277.042 89.856 276.364 90.1867 276.012 90.848C275.66 91.4987 275.484 92.6027 275.484 94.16C275.484 95.7067 275.66 96.8107 276.012 97.472C276.364 98.1333 277.042 98.464 278.044 98.464C278.823 98.464 279.372 98.2507 279.692 97.824C280.023 97.3973 280.199 96.7787 280.22 95.968L281.98 96.048C281.895 97.424 281.564 98.464 280.988 99.168C280.423 99.872 279.442 100.224 278.044 100.224C276.22 100.224 274.962 99.6907 274.268 98.624C273.916 98.0907 273.666 97.472 273.516 96.768C273.378 96.0533 273.308 95.184 273.308 94.16C273.308 93.136 273.378 92.272 273.516 91.568C273.666 90.8533 273.916 90.2293 274.268 89.696C274.962 88.6293 276.22 88.096 278.044 88.096C279.356 88.096 280.3 88.3893 280.876 88.976C281.452 89.5627 281.804 90.4267 281.932 91.568L280.172 91.84C280.108 91.2 279.911 90.7093 279.58 90.368C279.25 90.0267 278.738 89.856 278.044 89.856ZM283.772 88.32H285.948V100H283.772V88.32ZM291.024 88.32H293.856L297.44 100H295.344L294.352 96.768H290.512L289.536 100H287.424L291.024 88.32ZM292.432 90.384L291.008 95.12H293.856L292.432 90.384ZM298.905 100V88.32H301.081V98.32H305.065V100H298.905Z" fill="#114550"/>
<path d="M142.89 144.109H145.93L146.234 155.789H144.09L143.914 146.797L141.306 154.397H139.418L137.066 147.053L136.906 155.789H134.762L135.05 144.109H138.106L140.394 151.485L142.89 144.109ZM151.142 144.109H153.974L157.558 155.789H155.462L154.47 152.557H150.63L149.654 155.789H147.542L151.142 144.109ZM152.55 146.173L151.126 150.909H153.974L152.55 146.173ZM156.925 145.757V144.109H165.229V145.757H162.173V155.789H159.997V145.757H156.925ZM166.536 144.109H170.616C172.099 144.109 173.128 144.498 173.704 145.277C174.195 145.949 174.44 146.738 174.44 147.645C174.44 149.256 173.811 150.322 172.552 150.845C172.787 151.101 172.989 151.421 173.16 151.805L174.936 155.789H172.616L170.952 151.997C170.803 151.677 170.637 151.458 170.456 151.341C170.285 151.224 170.024 151.165 169.672 151.165H168.712V155.789H166.536V144.109ZM168.712 149.485H170.36C171 149.485 171.475 149.309 171.784 148.957C172.104 148.605 172.264 148.168 172.264 147.645C172.264 147.112 172.104 146.669 171.784 146.317C171.475 145.965 171 145.789 170.36 145.789H168.712V149.485ZM176.938 144.109H179.114V155.789H176.938V144.109ZM177.114 143.341L176.394 142.189L179.514 140.061L180.474 141.597L177.114 143.341ZM186.094 145.645C185.091 145.645 184.414 145.976 184.062 146.637C183.71 147.288 183.534 148.392 183.534 149.949C183.534 151.496 183.71 152.6 184.062 153.261C184.414 153.922 185.091 154.253 186.094 154.253C186.873 154.253 187.422 154.04 187.742 153.613C188.073 153.186 188.249 152.568 188.27 151.757L190.03 151.837C189.945 153.213 189.614 154.253 189.038 154.957C188.473 155.661 187.491 156.013 186.094 156.013C184.27 156.013 183.011 155.48 182.318 154.413C181.966 153.88 181.715 153.261 181.566 152.557C181.427 151.842 181.358 150.973 181.358 149.949C181.358 148.925 181.427 148.061 181.566 147.357C181.715 146.642 181.966 146.018 182.318 145.485C183.011 144.418 184.27 143.885 186.094 143.885C187.406 143.885 188.35 144.178 188.926 144.765C189.502 145.352 189.854 146.216 189.982 147.357L188.222 147.629C188.158 146.989 187.961 146.498 187.63 146.157C187.299 145.816 186.787 145.645 186.094 145.645ZM198.125 144.109H200.301V151.933C200.301 152.648 200.211 153.261 200.029 153.773C199.848 154.285 199.624 154.685 199.357 154.973C199.091 155.25 198.749 155.474 198.333 155.645C197.917 155.805 197.528 155.906 197.165 155.949C196.813 155.992 196.403 156.013 195.933 156.013C195.464 156.013 195.048 155.992 194.685 155.949C194.333 155.906 193.949 155.805 193.533 155.645C193.117 155.474 192.776 155.25 192.509 154.973C192.253 154.685 192.035 154.285 191.853 153.773C191.672 153.261 191.581 152.648 191.581 151.933V144.109H193.757V151.773C193.757 152.765 193.949 153.426 194.333 153.757C194.717 154.077 195.251 154.237 195.933 154.237C196.264 154.237 196.541 154.21 196.765 154.157C196.989 154.104 197.213 153.997 197.437 153.837C197.896 153.506 198.125 152.818 198.125 151.773V144.109ZM202.911 155.789V144.109H205.087V154.109H209.071V155.789H202.911ZM212.71 144.109H215.542L219.126 155.789H217.03L216.038 152.557H212.198L211.222 155.789H209.11L212.71 144.109ZM214.118 146.173L212.694 150.909H215.542L214.118 146.173ZM228.966 145.645C227.963 145.645 227.286 145.976 226.934 146.637C226.582 147.288 226.406 148.392 226.406 149.949C226.406 151.496 226.582 152.6 226.934 153.261C227.286 153.922 227.963 154.253 228.966 154.253C229.744 154.253 230.294 154.04 230.614 153.613C230.944 153.186 231.12 152.568 231.142 151.757L232.902 151.837C232.816 153.213 232.486 154.253 231.91 154.957C231.344 155.661 230.363 156.013 228.966 156.013C227.142 156.013 225.883 155.48 225.19 154.413C224.838 153.88 224.587 153.261 224.438 152.557C224.299 151.842 224.23 150.973 224.23 149.949C224.23 148.925 224.299 148.061 224.438 147.357C224.587 146.642 224.838 146.018 225.19 145.485C225.883 144.418 227.142 143.885 228.966 143.885C230.278 143.885 231.222 144.178 231.798 144.765C232.374 145.352 232.726 146.216 232.854 147.357L231.094 147.629C231.03 146.989 230.832 146.498 230.502 146.157C230.171 145.816 229.659 145.645 228.966 145.645ZM242.709 154.237C242.368 154.813 241.872 155.256 241.221 155.565C240.581 155.864 239.835 156.013 238.981 156.013C238.139 156.013 237.435 155.912 236.869 155.709C236.304 155.496 235.845 155.218 235.493 154.877C235.141 154.525 234.859 154.082 234.645 153.549C234.272 152.61 234.085 151.41 234.085 149.949C234.085 149.042 234.155 148.248 234.293 147.565C234.432 146.882 234.672 146.253 235.013 145.677C235.696 144.482 236.976 143.885 238.853 143.885C240.987 143.885 242.395 144.712 243.077 146.365C243.451 147.293 243.637 148.488 243.637 149.949C243.637 150.866 243.568 151.666 243.429 152.349C243.291 153.032 243.051 153.661 242.709 154.237ZM238.853 154.253C239.824 154.253 240.501 153.874 240.885 153.117C241.269 152.36 241.461 151.304 241.461 149.949C241.461 148.594 241.269 147.538 240.885 146.781C240.501 146.024 239.824 145.645 238.853 145.645C237.829 145.645 237.131 146.061 236.757 146.893C236.427 147.65 236.261 148.669 236.261 149.949C236.261 152.082 236.693 153.41 237.557 153.933C237.909 154.146 238.341 154.253 238.853 154.253ZM252.805 144.109H254.981V155.789H252.677L248.053 147.853V155.789H245.877V144.109H248.181L252.805 152.061V144.109ZM262.226 149.149C263.314 149.426 264.093 149.821 264.562 150.333C265.032 150.845 265.266 151.613 265.266 152.637C265.266 153.661 264.914 154.482 264.21 155.101C263.506 155.709 262.472 156.013 261.106 156.013C259.741 156.013 258.754 155.725 258.146 155.149C257.538 154.562 257.165 153.714 257.026 152.605L258.77 152.333C258.834 152.962 259.048 153.453 259.41 153.805C259.784 154.146 260.301 154.317 260.962 154.317C262.381 154.317 263.09 153.778 263.09 152.701C263.09 152.242 262.957 151.896 262.69 151.661C262.424 151.426 261.912 151.213 261.154 151.021L260.242 150.797C259.176 150.53 258.413 150.136 257.954 149.613C257.496 149.09 257.266 148.312 257.266 147.277C257.266 146.232 257.602 145.405 258.274 144.797C258.946 144.189 259.938 143.885 261.25 143.885C262.573 143.885 263.522 144.178 264.098 144.765C264.685 145.341 265.048 146.184 265.186 147.293L263.458 147.565C263.32 146.242 262.637 145.581 261.41 145.581C260.738 145.581 260.242 145.73 259.922 146.029C259.602 146.317 259.442 146.701 259.442 147.181C259.442 147.661 259.565 148.018 259.81 148.253C260.056 148.488 260.525 148.696 261.218 148.877L262.226 149.149ZM273.611 144.109H275.787V151.933C275.787 152.648 275.696 153.261 275.515 153.773C275.334 154.285 275.11 154.685 274.843 154.973C274.576 155.25 274.235 155.474 273.819 155.645C273.403 155.805 273.014 155.906 272.651 155.949C272.299 155.992 271.888 156.013 271.419 156.013C270.95 156.013 270.534 155.992 270.171 155.949C269.819 155.906 269.435 155.805 269.019 155.645C268.603 155.474 268.262 155.25 267.995 154.973C267.739 154.685 267.52 154.285 267.339 153.773C267.158 153.261 267.067 152.648 267.067 151.933V144.109H269.243V151.773C269.243 152.765 269.435 153.426 269.819 153.757C270.203 154.077 270.736 154.237 271.419 154.237C271.75 154.237 272.027 154.21 272.251 154.157C272.475 154.104 272.699 153.997 272.923 153.837C273.382 153.506 273.611 152.818 273.611 151.773V144.109ZM278.397 155.789V144.109H280.573V154.109H284.557V155.789H278.397ZM288.195 144.109H291.027L294.611 155.789H292.515L291.523 152.557H287.683L286.707 155.789H284.595L288.195 144.109ZM289.603 146.173L288.179 150.909H291.027L289.603 146.173ZM296.077 144.109H300.157C301.64 144.109 302.669 144.498 303.245 145.277C303.736 145.949 303.981 146.738 303.981 147.645C303.981 149.256 303.352 150.322 302.093 150.845C302.328 151.101 302.53 151.421 302.701 151.805L304.477 155.789H302.157L300.493 151.997C300.344 151.677 300.178 151.458 299.997 151.341C299.826 151.224 299.565 151.165 299.213 151.165H298.253V155.789H296.077V144.109ZM298.253 149.485H299.901C300.541 149.485 301.016 149.309 301.325 148.957C301.645 148.605 301.805 148.168 301.805 147.645C301.805 147.112 301.645 146.669 301.325 146.317C301.016 145.965 300.541 145.789 299.901 145.789H298.253V149.485Z" fill="#114550"/>
<path d="M139.848 198.602H137.992V202.746H135.816V191.066H139.848C141.256 191.066 142.248 191.45 142.824 192.218C143.326 192.911 143.576 193.786 143.576 194.842C143.576 195.887 143.326 196.751 142.824 197.434C142.248 198.213 141.256 198.602 139.848 198.602ZM137.992 196.922H139.512C140.771 196.922 141.4 196.229 141.4 194.842C141.4 193.445 140.771 192.746 139.512 192.746H137.992V196.922ZM146.38 191.066H149.212L152.796 202.746H150.7L149.708 199.514H145.868L144.892 202.746H142.78L146.38 191.066ZM147.788 193.13L146.364 197.866H149.212L147.788 193.13ZM158.662 196.106C159.75 196.383 160.529 196.778 160.998 197.29C161.467 197.802 161.702 198.57 161.702 199.594C161.702 200.618 161.35 201.439 160.646 202.058C159.942 202.666 158.907 202.97 157.542 202.97C156.177 202.97 155.19 202.682 154.582 202.106C153.974 201.519 153.601 200.671 153.462 199.562L155.206 199.29C155.27 199.919 155.483 200.41 155.846 200.762C156.219 201.103 156.737 201.274 157.398 201.274C158.817 201.274 159.526 200.735 159.526 199.658C159.526 199.199 159.393 198.853 159.126 198.618C158.859 198.383 158.347 198.17 157.59 197.978L156.678 197.754C155.611 197.487 154.849 197.093 154.39 196.57C153.931 196.047 153.702 195.269 153.702 194.234C153.702 193.189 154.038 192.362 154.71 191.754C155.382 191.146 156.374 190.842 157.686 190.842C159.009 190.842 159.958 191.135 160.534 191.722C161.121 192.298 161.483 193.141 161.622 194.25L159.894 194.522C159.755 193.199 159.073 192.538 157.846 192.538C157.174 192.538 156.678 192.687 156.358 192.986C156.038 193.274 155.878 193.658 155.878 194.138C155.878 194.618 156.001 194.975 156.246 195.21C156.491 195.445 156.961 195.653 157.654 195.834L158.662 196.106ZM165.967 191.066H168.799L172.383 202.746H170.287L169.295 199.514H165.455L164.479 202.746H162.367L165.967 191.066ZM167.375 193.13L165.951 197.866H168.799L167.375 193.13ZM177.88 198.602H176.024V202.746H173.848V191.066H177.88C179.288 191.066 180.28 191.45 180.856 192.218C181.358 192.911 181.608 193.786 181.608 194.842C181.608 195.887 181.358 196.751 180.856 197.434C180.28 198.213 179.288 198.602 177.88 198.602ZM176.024 196.922H177.544C178.803 196.922 179.432 196.229 179.432 194.842C179.432 193.445 178.803 192.746 177.544 192.746H176.024V196.922ZM191.251 201.194C190.91 201.77 190.414 202.213 189.763 202.522C189.123 202.821 188.376 202.97 187.523 202.97C186.68 202.97 185.976 202.869 185.411 202.666C184.846 202.453 184.387 202.175 184.035 201.834C183.683 201.482 183.4 201.039 183.187 200.506C182.814 199.567 182.627 198.367 182.627 196.906C182.627 195.999 182.696 195.205 182.835 194.522C182.974 193.839 183.214 193.21 183.555 192.634C184.238 191.439 185.518 190.842 187.395 190.842C189.528 190.842 190.936 191.669 191.619 193.322C191.992 194.25 192.179 195.445 192.179 196.906C192.179 197.823 192.11 198.623 191.971 199.306C191.832 199.989 191.592 200.618 191.251 201.194ZM187.395 201.21C188.366 201.21 189.043 200.831 189.427 200.074C189.811 199.317 190.003 198.261 190.003 196.906C190.003 195.551 189.811 194.495 189.427 193.738C189.043 192.981 188.366 192.602 187.395 192.602C186.371 192.602 185.672 193.018 185.299 193.85C184.968 194.607 184.803 195.626 184.803 196.906C184.803 199.039 185.235 200.367 186.099 200.89C186.451 201.103 186.883 201.21 187.395 201.21ZM194.419 191.066H198.499C199.982 191.066 201.011 191.455 201.587 192.234C202.078 192.906 202.323 193.695 202.323 194.602C202.323 196.213 201.694 197.279 200.435 197.802C200.67 198.058 200.872 198.378 201.043 198.762L202.819 202.746H200.499L198.835 198.954C198.686 198.634 198.52 198.415 198.339 198.298C198.168 198.181 197.907 198.122 197.555 198.122H196.595V202.746H194.419V191.066ZM196.595 196.442H198.243C198.883 196.442 199.358 196.266 199.667 195.914C199.987 195.562 200.147 195.125 200.147 194.602C200.147 194.069 199.987 193.626 199.667 193.274C199.358 192.922 198.883 192.746 198.243 192.746H196.595V196.442ZM203.285 192.714V191.066H211.589V192.714H208.533V202.746H206.357V192.714H203.285ZM212.896 191.066H219.488V192.746H215.072V195.978H219.088V197.642H215.072V201.066H219.808V202.746H212.896V191.066ZM233.903 191.066H236.943L237.247 202.746H235.103L234.927 193.754L232.319 201.354H230.431L228.079 194.01L227.919 202.746H225.775L226.063 191.066H229.119L231.407 198.442L233.903 191.066ZM239.931 191.066H246.523V192.746H242.107V195.978H246.123V197.642H242.107V201.066H246.843V202.746H239.931V191.066ZM247.301 191.066H249.781L252.405 195.114L254.837 191.066H257.125L253.557 196.89L257.365 202.746H254.885L252.117 198.49L249.605 202.746H247.333L250.981 196.73L247.301 191.066ZM258.518 191.066H260.694V202.746H258.518V191.066ZM267.673 192.602C266.67 192.602 265.993 192.933 265.641 193.594C265.289 194.245 265.113 195.349 265.113 196.906C265.113 198.453 265.289 199.557 265.641 200.218C265.993 200.879 266.67 201.21 267.673 201.21C268.452 201.21 269.001 200.997 269.321 200.57C269.652 200.143 269.828 199.525 269.849 198.714L271.609 198.794C271.524 200.17 271.193 201.21 270.617 201.914C270.052 202.618 269.07 202.97 267.673 202.97C265.849 202.97 264.59 202.437 263.897 201.37C263.545 200.837 263.294 200.218 263.145 199.514C263.006 198.799 262.937 197.93 262.937 196.906C262.937 195.882 263.006 195.018 263.145 194.314C263.294 193.599 263.545 192.975 263.897 192.442C264.59 191.375 265.849 190.842 267.673 190.842C268.985 190.842 269.929 191.135 270.505 191.722C271.081 192.309 271.433 193.173 271.561 194.314L269.801 194.586C269.737 193.946 269.54 193.455 269.209 193.114C268.878 192.773 268.366 192.602 267.673 192.602ZM275.625 191.066H278.457L282.041 202.746H279.945L278.953 199.514H275.113L274.137 202.746H272.025L275.625 191.066ZM277.033 193.13L275.609 197.866H278.457L277.033 193.13ZM290.434 191.066H292.61V202.746H290.306L285.682 194.81V202.746H283.506V191.066H285.81L290.434 199.018V191.066ZM303.472 201.194C303.13 201.77 302.634 202.213 301.984 202.522C301.344 202.821 300.597 202.97 299.744 202.97C298.901 202.97 298.197 202.869 297.632 202.666C297.066 202.453 296.608 202.175 296.256 201.834C295.904 201.482 295.621 201.039 295.408 200.506C295.034 199.567 294.848 198.367 294.848 196.906C294.848 195.999 294.917 195.205 295.056 194.522C295.194 193.839 295.434 193.21 295.776 192.634C296.458 191.439 297.738 190.842 299.616 190.842C301.749 190.842 303.157 191.669 303.84 193.322C304.213 194.25 304.4 195.445 304.4 196.906C304.4 197.823 304.33 198.623 304.192 199.306C304.053 199.989 303.813 200.618 303.472 201.194ZM299.616 201.21C300.586 201.21 301.264 200.831 301.648 200.074C302.032 199.317 302.224 198.261 302.224 196.906C302.224 195.551 302.032 194.495 301.648 193.738C301.264 192.981 300.586 192.602 299.616 192.602C298.592 192.602 297.893 193.018 297.52 193.85C297.189 194.607 297.024 195.626 297.024 196.906C297.024 199.039 297.456 200.367 298.32 200.89C298.672 201.103 299.104 201.21 299.616 201.21ZM162.181 217.602H160.325V221.746H158.149V210.066H162.181C163.589 210.066 164.581 210.45 165.157 211.218C165.658 211.911 165.909 212.786 165.909 213.842C165.909 214.887 165.658 215.751 165.157 216.434C164.581 217.213 163.589 217.602 162.181 217.602ZM160.325 215.922H161.845C163.104 215.922 163.733 215.229 163.733 213.842C163.733 212.445 163.104 211.746 161.845 211.746H160.325V215.922ZM168.713 210.066H171.545L175.129 221.746H173.033L172.041 218.514H168.201L167.225 221.746H165.113L168.713 210.066ZM170.121 212.13L168.697 216.866H171.545L170.121 212.13ZM180.994 215.106C182.082 215.383 182.861 215.778 183.33 216.29C183.8 216.802 184.034 217.57 184.034 218.594C184.034 219.618 183.682 220.439 182.978 221.058C182.274 221.666 181.24 221.97 179.874 221.97C178.509 221.97 177.522 221.682 176.914 221.106C176.306 220.519 175.933 219.671 175.794 218.562L177.538 218.29C177.602 218.919 177.816 219.41 178.178 219.762C178.552 220.103 179.069 220.274 179.73 220.274C181.149 220.274 181.858 219.735 181.858 218.658C181.858 218.199 181.725 217.853 181.458 217.618C181.192 217.383 180.68 217.17 179.922 216.978L179.01 216.754C177.944 216.487 177.181 216.093 176.722 215.57C176.264 215.047 176.034 214.269 176.034 213.234C176.034 212.189 176.37 211.362 177.042 210.754C177.714 210.146 178.706 209.842 180.018 209.842C181.341 209.842 182.29 210.135 182.866 210.722C183.453 211.298 183.816 212.141 183.954 213.25L182.226 213.522C182.088 212.199 181.405 211.538 180.178 211.538C179.506 211.538 179.01 211.687 178.69 211.986C178.37 212.274 178.21 212.658 178.21 213.138C178.21 213.618 178.333 213.975 178.578 214.21C178.824 214.445 179.293 214.653 179.986 214.834L180.994 215.106ZM188.299 210.066H191.131L194.715 221.746H192.619L191.627 218.514H187.787L186.811 221.746H184.699L188.299 210.066ZM189.707 212.13L188.283 216.866H191.131L189.707 212.13ZM200.213 217.602H198.357V221.746H196.181V210.066H200.213C201.621 210.066 202.613 210.45 203.189 211.218C203.69 211.911 203.941 212.786 203.941 213.842C203.941 214.887 203.69 215.751 203.189 216.434C202.613 217.213 201.621 217.602 200.213 217.602ZM198.357 215.922H199.877C201.135 215.922 201.765 215.229 201.765 213.842C201.765 212.445 201.135 211.746 199.877 211.746H198.357V215.922ZM213.584 220.194C213.242 220.77 212.746 221.213 212.096 221.522C211.456 221.821 210.709 221.97 209.856 221.97C209.013 221.97 208.309 221.869 207.744 221.666C207.178 221.453 206.72 221.175 206.368 220.834C206.016 220.482 205.733 220.039 205.52 219.506C205.146 218.567 204.96 217.367 204.96 215.906C204.96 214.999 205.029 214.205 205.168 213.522C205.306 212.839 205.546 212.21 205.888 211.634C206.57 210.439 207.85 209.842 209.728 209.842C211.861 209.842 213.269 210.669 213.952 212.322C214.325 213.25 214.512 214.445 214.512 215.906C214.512 216.823 214.442 217.623 214.304 218.306C214.165 218.989 213.925 219.618 213.584 220.194ZM209.728 220.21C210.698 220.21 211.376 219.831 211.76 219.074C212.144 218.317 212.336 217.261 212.336 215.906C212.336 214.551 212.144 213.495 211.76 212.738C211.376 211.981 210.698 211.602 209.728 211.602C208.704 211.602 208.005 212.018 207.632 212.85C207.301 213.607 207.136 214.626 207.136 215.906C207.136 218.039 207.568 219.367 208.432 219.89C208.784 220.103 209.216 220.21 209.728 220.21ZM216.751 210.066H220.831C222.314 210.066 223.343 210.455 223.919 211.234C224.41 211.906 224.655 212.695 224.655 213.602C224.655 215.213 224.026 216.279 222.767 216.802C223.002 217.058 223.205 217.378 223.375 217.762L225.151 221.746H222.831L221.167 217.954C221.018 217.634 220.853 217.415 220.671 217.298C220.501 217.181 220.239 217.122 219.887 217.122H218.927V221.746H216.751V210.066ZM218.927 215.442H220.575C221.215 215.442 221.69 215.266 221.999 214.914C222.319 214.562 222.479 214.125 222.479 213.602C222.479 213.069 222.319 212.626 221.999 212.274C221.69 211.922 221.215 211.746 220.575 211.746H218.927V215.442ZM225.618 211.714V210.066H233.922V211.714H230.866V221.746H228.69V211.714H225.618ZM235.228 210.066H241.82V211.746H237.404V214.978H241.42V216.642H237.404V220.066H242.14V221.746H235.228V210.066ZM248.421 215.106C249.509 215.383 250.288 215.778 250.757 216.29C251.227 216.802 251.461 217.57 251.461 218.594C251.461 219.618 251.109 220.439 250.405 221.058C249.701 221.666 248.667 221.97 247.301 221.97C245.936 221.97 244.949 221.682 244.341 221.106C243.733 220.519 243.36 219.671 243.221 218.562L244.965 218.29C245.029 218.919 245.243 219.41 245.605 219.762C245.979 220.103 246.496 220.274 247.157 220.274C248.576 220.274 249.285 219.735 249.285 218.658C249.285 218.199 249.152 217.853 248.885 217.618C248.619 217.383 248.107 217.17 247.349 216.978L246.437 216.754C245.371 216.487 244.608 216.093 244.149 215.57C243.691 215.047 243.461 214.269 243.461 213.234C243.461 212.189 243.797 211.362 244.469 210.754C245.141 210.146 246.133 209.842 247.445 209.842C248.768 209.842 249.717 210.135 250.293 210.722C250.88 211.298 251.243 212.141 251.381 213.25L249.653 213.522C249.515 212.199 248.832 211.538 247.605 211.538C246.933 211.538 246.437 211.687 246.117 211.986C245.797 212.274 245.637 212.658 245.637 213.138C245.637 213.618 245.76 213.975 246.005 214.21C246.251 214.445 246.72 214.653 247.413 214.834L248.421 215.106ZM257.748 221.746V210.066H259.924V220.066H263.908V221.746H257.748ZM267.547 210.066H270.379L273.963 221.746H271.867L270.875 218.514H267.035L266.059 221.746H263.947L267.547 210.066ZM268.955 212.13L267.531 216.866H270.379L268.955 212.13ZM273.33 211.714V210.066H281.634V211.714H278.578V221.746H276.402V211.714H273.33ZM284.602 210.066H287.434L291.018 221.746H288.922L287.93 218.514H284.09L283.114 221.746H281.002L284.602 210.066ZM286.01 212.13L284.586 216.866H287.434L286.01 212.13ZM300.451 210.066H303.491L303.795 221.746H301.651L301.475 212.754L298.867 220.354H296.979L294.627 213.01L294.467 221.746H292.323L292.611 210.066H295.667L297.955 217.442L300.451 210.066Z" fill="#114550"/>
<path d="M22.588 428.968V427.32H30.892V428.968H27.836V439H25.66V428.968H22.588ZM33.8599 427.32H36.6919L40.2759 439H38.1799L37.1879 435.768H33.3479L32.3719 439H30.2599L33.8599 427.32ZM35.2679 429.384L33.8439 434.12H36.6919L35.2679 429.384ZM41.7415 427.32H45.8215C47.3042 427.32 48.3335 427.709 48.9095 428.488C49.4002 429.16 49.6455 429.949 49.6455 430.856C49.6455 432.467 49.0162 433.533 47.7575 434.056C47.9922 434.312 48.1948 434.632 48.3655 435.016L50.1415 439H47.8215L46.1575 435.208C46.0082 434.888 45.8428 434.669 45.6615 434.552C45.4908 434.435 45.2295 434.376 44.8775 434.376H43.9175V439H41.7415V427.32ZM43.9175 432.696H45.5655C46.2055 432.696 46.6802 432.52 46.9895 432.168C47.3095 431.816 47.4695 431.379 47.4695 430.856C47.4695 430.323 47.3095 429.88 46.9895 429.528C46.6802 429.176 46.2055 429 45.5655 429H43.9175V432.696ZM57.136 427.32V436.072C57.136 436.563 57.0987 436.968 57.024 437.288C56.96 437.608 56.8213 437.933 56.608 438.264C56.1813 438.904 55.2267 439.224 53.744 439.224C52.5387 439.224 51.728 438.968 51.312 438.456C51.0347 438.104 50.8693 437.747 50.816 437.384C50.7413 436.883 50.704 436.317 50.704 435.688H52.592C52.592 436.349 52.6773 436.813 52.848 437.08C53.0187 437.336 53.328 437.464 53.776 437.464C54.2347 437.464 54.544 437.363 54.704 437.16C54.8747 436.957 54.96 436.595 54.96 436.072V427.32H57.136ZM59.7496 427.32H66.3416V429H61.9256V432.232H65.9416V433.896H61.9256V437.32H66.6616V439H59.7496V427.32ZM67.0067 428.968V427.32H75.3107V428.968H72.2547V439H70.0787V428.968H67.0067ZM78.2786 427.32H81.1106L84.6946 439H82.5986L81.6066 435.768H77.7666L76.7906 439H74.6786L78.2786 427.32ZM79.6866 429.384L78.2626 434.12H81.1106L79.6866 429.384ZM90.4065 427.32H94.2945C96.1825 427.32 97.4625 427.896 98.1345 429.048C98.4652 429.603 98.6945 430.205 98.8225 430.856C98.9505 431.507 99.0145 432.232 99.0145 433.032C99.0145 433.821 98.9772 434.488 98.9025 435.032C98.8278 435.576 98.6838 436.109 98.4705 436.632C98.2678 437.144 97.9958 437.565 97.6545 437.896C96.8972 438.632 95.7772 439 94.2945 439H90.4065V427.32ZM94.0065 429H92.5825V437.32H94.0065C95.1478 437.32 95.9212 436.909 96.3265 436.088C96.6678 435.373 96.8385 434.397 96.8385 433.16C96.8385 431.923 96.6678 430.947 96.3265 430.232C95.9212 429.411 95.1478 429 94.0065 429ZM101.418 427.32H108.01V429H103.594V432.232H107.61V433.896H103.594V437.32H108.33V439H101.418V427.32ZM114.458 427.32H118.538C120.02 427.32 121.05 427.709 121.626 428.488C122.116 429.16 122.362 429.949 122.362 430.856C122.362 432.467 121.732 433.533 120.474 434.056C120.708 434.312 120.911 434.632 121.082 435.016L122.858 439H120.538L118.874 435.208C118.724 434.888 118.559 434.669 118.378 434.552C118.207 434.435 117.946 434.376 117.594 434.376H116.634V439H114.458V427.32ZM116.634 432.696H118.282C118.922 432.696 119.396 432.52 119.706 432.168C120.026 431.816 120.186 431.379 120.186 430.856C120.186 430.323 120.026 429.88 119.706 429.528C119.396 429.176 118.922 429 118.282 429H116.634V432.696ZM124.86 427.32H131.452V429H127.036V432.232H131.052V433.896H127.036V437.32H131.772V439H124.86V427.32ZM138.053 432.36C139.141 432.637 139.92 433.032 140.389 433.544C140.859 434.056 141.093 434.824 141.093 435.848C141.093 436.872 140.741 437.693 140.037 438.312C139.333 438.92 138.299 439.224 136.933 439.224C135.568 439.224 134.581 438.936 133.973 438.36C133.365 437.773 132.992 436.925 132.853 435.816L134.597 435.544C134.661 436.173 134.875 436.664 135.237 437.016C135.611 437.357 136.128 437.528 136.789 437.528C138.208 437.528 138.917 436.989 138.917 435.912C138.917 435.453 138.784 435.107 138.517 434.872C138.251 434.637 137.739 434.424 136.981 434.232L136.069 434.008C135.003 433.741 134.24 433.347 133.781 432.824C133.323 432.301 133.093 431.523 133.093 430.488C133.093 429.443 133.429 428.616 134.101 428.008C134.773 427.4 135.765 427.096 137.077 427.096C138.4 427.096 139.349 427.389 139.925 427.976C140.512 428.552 140.875 429.395 141.013 430.504L139.285 430.776C139.147 429.453 138.464 428.792 137.237 428.792C136.565 428.792 136.069 428.941 135.749 429.24C135.429 429.528 135.269 429.912 135.269 430.392C135.269 430.872 135.392 431.229 135.637 431.464C135.883 431.699 136.352 431.907 137.045 432.088L138.053 432.36ZM143.134 427.32H145.31V439H143.134V427.32ZM148.162 427.32H152.05C153.938 427.32 155.218 427.896 155.89 429.048C156.22 429.603 156.45 430.205 156.578 430.856C156.706 431.507 156.77 432.232 156.77 433.032C156.77 433.821 156.732 434.488 156.658 435.032C156.583 435.576 156.439 436.109 156.226 436.632C156.023 437.144 155.751 437.565 155.41 437.896C154.652 438.632 153.532 439 152.05 439H148.162V427.32ZM151.762 429H150.338V437.32H151.762C152.903 437.32 153.676 436.909 154.082 436.088C154.423 435.373 154.594 434.397 154.594 433.16C154.594 431.923 154.423 430.947 154.082 430.232C153.676 429.411 152.903 429 151.762 429ZM159.173 427.32H165.765V429H161.349V432.232H165.365V433.896H161.349V437.32H166.085V439H159.173V427.32ZM174.894 427.32H177.07V439H174.766L170.142 431.064V439H167.966V427.32H170.27L174.894 435.272V427.32ZM178.38 428.968V427.32H186.684V428.968H183.628V439H181.452V428.968H178.38ZM187.99 427.32H194.582V429H190.166V432.232H194.182V433.896H190.166V437.32H194.902V439H187.99V427.32ZM199.398 440.696L203.19 426.6H205.35L201.558 440.696H199.398ZM214.883 437.464C216.419 437.464 217.198 436.632 217.219 434.968V434.424H215.427V433.032H219.091V439H218.003L217.635 437.832C216.952 438.76 215.992 439.224 214.755 439.224C213.006 439.224 211.8 438.68 211.139 437.592C210.798 437.037 210.558 436.408 210.419 435.704C210.28 435 210.211 434.147 210.211 433.144C210.211 432.131 210.28 431.272 210.419 430.568C210.568 429.853 210.819 429.229 211.171 428.696C211.864 427.629 213.123 427.096 214.947 427.096C216.259 427.096 217.203 427.389 217.779 427.976C218.355 428.563 218.707 429.427 218.835 430.568L217.075 430.84C217.011 430.2 216.814 429.709 216.483 429.368C216.152 429.027 215.64 428.856 214.947 428.856C213.944 428.856 213.267 429.187 212.915 429.848C212.563 430.509 212.387 431.603 212.387 433.128C212.387 434.653 212.558 435.757 212.899 436.44C213.251 437.123 213.912 437.464 214.883 437.464ZM221.784 427.32H225.864C227.347 427.32 228.376 427.709 228.952 428.488C229.443 429.16 229.688 429.949 229.688 430.856C229.688 432.467 229.059 433.533 227.8 434.056C228.035 434.312 228.237 434.632 228.408 435.016L230.184 439H227.864L226.2 435.208C226.051 434.888 225.885 434.669 225.704 434.552C225.533 434.435 225.272 434.376 224.92 434.376H223.96V439H221.784V427.32ZM223.96 432.696H225.608C226.248 432.696 226.723 432.52 227.032 432.168C227.352 431.816 227.512 431.379 227.512 430.856C227.512 430.323 227.352 429.88 227.032 429.528C226.723 429.176 226.248 429 225.608 429H223.96V432.696ZM232.186 427.32H238.778V429H234.362V432.232H238.378V433.896H234.362V437.32H239.098V439H232.186V427.32ZM240.98 427.32H247.572V429H243.156V432.232H247.172V433.896H243.156V437.32H247.892V439H240.98V427.32ZM256.701 427.32H258.877V439H256.573L251.949 431.064V439H249.773V427.32H252.077L256.701 435.272V427.32ZM270.096 428.856C269.094 428.856 268.416 429.187 268.064 429.848C267.712 430.499 267.536 431.603 267.536 433.16C267.536 434.707 267.712 435.811 268.064 436.472C268.416 437.133 269.094 437.464 270.096 437.464C270.875 437.464 271.424 437.251 271.744 436.824C272.075 436.397 272.251 435.779 272.272 434.968L274.032 435.048C273.947 436.424 273.616 437.464 273.04 438.168C272.475 438.872 271.494 439.224 270.096 439.224C268.272 439.224 267.014 438.691 266.32 437.624C265.968 437.091 265.718 436.472 265.568 435.768C265.43 435.053 265.36 434.184 265.36 433.16C265.36 432.136 265.43 431.272 265.568 430.568C265.718 429.853 265.968 429.229 266.32 428.696C267.014 427.629 268.272 427.096 270.096 427.096C271.408 427.096 272.352 427.389 272.928 427.976C273.504 428.563 273.856 429.427 273.984 430.568L272.224 430.84C272.16 430.2 271.963 429.709 271.632 429.368C271.302 429.027 270.79 428.856 270.096 428.856ZM278.048 427.32H280.88L284.464 439H282.368L281.376 435.768H277.536L276.56 439H274.448L278.048 427.32ZM279.456 429.384L278.032 434.12H280.88L279.456 429.384ZM285.93 427.32H290.01C291.492 427.32 292.522 427.709 293.098 428.488C293.588 429.16 293.834 429.949 293.834 430.856C293.834 432.467 293.204 433.533 291.946 434.056C292.18 434.312 292.383 434.632 292.554 435.016L294.33 439H292.01L290.346 435.208C290.196 434.888 290.031 434.669 289.85 434.552C289.679 434.435 289.418 434.376 289.066 434.376H288.106V439H285.93V427.32ZM288.106 432.696H289.754C290.394 432.696 290.868 432.52 291.178 432.168C291.498 431.816 291.658 431.379 291.658 430.856C291.658 430.323 291.498 429.88 291.178 429.528C290.868 429.176 290.394 429 289.754 429H288.106V432.696ZM296.332 427.32H300.22C302.108 427.32 303.388 427.896 304.06 429.048C304.391 429.603 304.62 430.205 304.748 430.856C304.876 431.507 304.94 432.232 304.94 433.032C304.94 433.821 304.903 434.488 304.828 435.032C304.753 435.576 304.609 436.109 304.396 436.632C304.193 437.144 303.921 437.565 303.58 437.896C302.823 438.632 301.703 439 300.22 439H296.332V427.32ZM299.932 429H298.508V437.32H299.932C301.073 437.32 301.847 436.909 302.252 436.088C302.593 435.373 302.764 434.397 302.764 433.16C302.764 431.923 302.593 430.947 302.252 430.232C301.847 429.411 301.073 429 299.932 429Z" fill="#114550"/>
<path d="M244.826 254.703H247.002V266.383H244.826V254.703ZM256.781 254.703H258.957V266.383H256.653L252.029 258.447V266.383H249.853V254.703H252.157L256.781 262.655V254.703ZM261.803 254.703H268.395V256.383H263.979V259.615H267.995V261.279H263.979V264.703H268.715V266.383H261.803V254.703ZM273.21 268.079L277.002 253.983H279.162L275.37 268.079H273.21ZM284.631 254.703H286.807V266.383H284.631V254.703ZM289.659 254.703H295.931V256.383H291.835V259.615H295.403V261.279H291.835V266.383H289.659V254.703ZM297.686 254.703H304.278V256.383H299.862V259.615H303.878V261.279H299.862V264.703H304.598V266.383H297.686V254.703Z" fill="#114550"/>
<path d="M87.7638 328V316.32H89.9398V326.32H93.9238V328H87.7638ZM95.3381 316.32H97.5141V328H95.3381V316.32ZM104.494 317.856C103.491 317.856 102.814 318.187 102.462 318.848C102.11 319.499 101.934 320.603 101.934 322.16C101.934 323.707 102.11 324.811 102.462 325.472C102.814 326.133 103.491 326.464 104.494 326.464C105.272 326.464 105.822 326.251 106.142 325.824C106.472 325.397 106.648 324.779 106.67 323.968L108.43 324.048C108.344 325.424 108.014 326.464 107.438 327.168C106.872 327.872 105.891 328.224 104.494 328.224C102.67 328.224 101.411 327.691 100.718 326.624C100.366 326.091 100.115 325.472 99.9656 324.768C99.827 324.053 99.7576 323.184 99.7576 322.16C99.7576 321.136 99.827 320.272 99.9656 319.568C100.115 318.853 100.366 318.229 100.718 317.696C101.411 316.629 102.67 316.096 104.494 316.096C105.806 316.096 106.75 316.389 107.326 316.976C107.902 317.563 108.254 318.427 108.382 319.568L106.622 319.84C106.558 319.2 106.36 318.709 106.03 318.368C105.699 318.027 105.187 317.856 104.494 317.856ZM110.221 316.32H116.813V318H112.397V321.232H116.413V322.896H112.397V326.32H117.133V328H110.221V316.32ZM125.942 316.32H128.118V328H125.814L121.19 320.064V328H119.014V316.32H121.318L125.942 324.272V316.32ZM135.092 317.856C134.089 317.856 133.412 318.187 133.06 318.848C132.708 319.499 132.532 320.603 132.532 322.16C132.532 323.707 132.708 324.811 133.06 325.472C133.412 326.133 134.089 326.464 135.092 326.464C135.87 326.464 136.42 326.251 136.74 325.824C137.07 325.397 137.246 324.779 137.268 323.968L139.028 324.048C138.942 325.424 138.612 326.464 138.036 327.168C137.47 327.872 136.489 328.224 135.092 328.224C133.268 328.224 132.009 327.691 131.316 326.624C130.964 326.091 130.713 325.472 130.564 324.768C130.425 324.053 130.356 323.184 130.356 322.16C130.356 321.136 130.425 320.272 130.564 319.568C130.713 318.853 130.964 318.229 131.316 317.696C132.009 316.629 133.268 316.096 135.092 316.096C136.404 316.096 137.348 316.389 137.924 316.976C138.5 317.563 138.852 318.427 138.98 319.568L137.22 319.84C137.156 319.2 136.958 318.709 136.628 318.368C136.297 318.027 135.785 317.856 135.092 317.856ZM140.819 316.32H142.995V328H140.819V316.32ZM148.071 316.32H150.903L154.487 328H152.391L151.399 324.768H147.559L146.583 328H144.471L148.071 316.32ZM149.479 318.384L148.055 323.12H150.903L149.479 318.384ZM160.199 316.32H164.087C165.975 316.32 167.255 316.896 167.927 318.048C168.257 318.603 168.487 319.205 168.615 319.856C168.743 320.507 168.807 321.232 168.807 322.032C168.807 322.821 168.769 323.488 168.695 324.032C168.62 324.576 168.476 325.109 168.263 325.632C168.06 326.144 167.788 326.565 167.447 326.896C166.689 327.632 165.569 328 164.087 328H160.199V316.32ZM163.799 318H162.375V326.32H163.799C164.94 326.32 165.713 325.909 166.119 325.088C166.46 324.373 166.631 323.397 166.631 322.16C166.631 320.923 166.46 319.947 166.119 319.232C165.713 318.411 164.94 318 163.799 318ZM171.211 316.32H177.803V318H173.387V321.232H177.403V322.896H173.387V326.32H178.123V328H171.211V316.32ZM192.218 316.32H195.258L195.562 328H193.418L193.242 319.008L190.634 326.608H188.746L186.394 319.264L186.234 328H184.09L184.378 316.32H187.434L189.722 323.696L192.218 316.32ZM200.47 316.32H203.302L206.886 328H204.79L203.798 324.768H199.958L198.982 328H196.87L200.47 316.32ZM201.878 318.384L200.454 323.12H203.302L201.878 318.384ZM215.28 316.32H217.456V328H215.152L210.528 320.064V328H208.352V316.32H210.656L215.28 324.272V316.32ZM220.301 316.32H226.893V318H222.477V321.232H226.493V322.896H222.477V326.32H227.213V328H220.301V316.32ZM234.086 316.32V325.072C234.086 325.563 234.049 325.968 233.974 326.288C233.91 326.608 233.772 326.933 233.558 327.264C233.132 327.904 232.177 328.224 230.694 328.224C229.489 328.224 228.678 327.968 228.262 327.456C227.985 327.104 227.82 326.747 227.766 326.384C227.692 325.883 227.654 325.317 227.654 324.688H229.542C229.542 325.349 229.628 325.813 229.798 326.08C229.969 326.336 230.278 326.464 230.726 326.464C231.185 326.464 231.494 326.363 231.654 326.16C231.825 325.957 231.91 325.595 231.91 325.072V316.32H234.086ZM244.716 326.448C244.375 327.024 243.879 327.467 243.228 327.776C242.588 328.075 241.841 328.224 240.988 328.224C240.145 328.224 239.441 328.123 238.876 327.92C238.311 327.707 237.852 327.429 237.5 327.088C237.148 326.736 236.865 326.293 236.652 325.76C236.279 324.821 236.092 323.621 236.092 322.16C236.092 321.253 236.161 320.459 236.3 319.776C236.439 319.093 236.679 318.464 237.02 317.888C237.703 316.693 238.983 316.096 240.86 316.096C242.993 316.096 244.401 316.923 245.084 318.576C245.457 319.504 245.644 320.699 245.644 322.16C245.644 323.077 245.575 323.877 245.436 324.56C245.297 325.243 245.057 325.872 244.716 326.448ZM240.86 326.464C241.831 326.464 242.508 326.085 242.892 325.328C243.276 324.571 243.468 323.515 243.468 322.16C243.468 320.805 243.276 319.749 242.892 318.992C242.508 318.235 241.831 317.856 240.86 317.856C239.836 317.856 239.137 318.272 238.764 319.104C238.433 319.861 238.268 320.88 238.268 322.16C238.268 324.293 238.7 325.621 239.564 326.144C239.916 326.357 240.348 326.464 240.86 326.464ZM252.13 316.32H256.018C257.906 316.32 259.186 316.896 259.858 318.048C260.189 318.603 260.418 319.205 260.546 319.856C260.674 320.507 260.738 321.232 260.738 322.032C260.738 322.821 260.701 323.488 260.626 324.032C260.551 324.576 260.407 325.109 260.194 325.632C259.991 326.144 259.719 326.565 259.378 326.896C258.621 327.632 257.501 328 256.018 328H252.13V316.32ZM255.73 318H254.306V326.32H255.73C256.871 326.32 257.645 325.909 258.05 325.088C258.391 324.373 258.562 323.397 258.562 322.16C258.562 320.923 258.391 319.947 258.05 319.232C257.645 318.411 256.871 318 255.73 318ZM263.142 316.32H269.734V318H265.318V321.232H269.334V322.896H265.318V326.32H270.054V328H263.142V316.32ZM282.485 316.32H284.661V324.144C284.661 324.859 284.571 325.472 284.389 325.984C284.208 326.496 283.984 326.896 283.717 327.184C283.451 327.461 283.109 327.685 282.693 327.856C282.277 328.016 281.888 328.117 281.525 328.16C281.173 328.203 280.763 328.224 280.293 328.224C279.824 328.224 279.408 328.203 279.045 328.16C278.693 328.117 278.309 328.016 277.893 327.856C277.477 327.685 277.136 327.461 276.869 327.184C276.613 326.896 276.395 326.496 276.213 325.984C276.032 325.472 275.941 324.859 275.941 324.144V316.32H278.117V323.984C278.117 324.976 278.309 325.637 278.693 325.968C279.077 326.288 279.611 326.448 280.293 326.448C280.624 326.448 280.901 326.421 281.125 326.368C281.349 326.315 281.573 326.208 281.797 326.048C282.256 325.717 282.485 325.029 282.485 323.984V316.32ZM291.671 321.36C292.759 321.637 293.538 322.032 294.007 322.544C294.477 323.056 294.711 323.824 294.711 324.848C294.711 325.872 294.359 326.693 293.655 327.312C292.951 327.92 291.917 328.224 290.551 328.224C289.186 328.224 288.199 327.936 287.591 327.36C286.983 326.773 286.61 325.925 286.471 324.816L288.215 324.544C288.279 325.173 288.493 325.664 288.855 326.016C289.229 326.357 289.746 326.528 290.407 326.528C291.826 326.528 292.535 325.989 292.535 324.912C292.535 324.453 292.402 324.107 292.135 323.872C291.869 323.637 291.357 323.424 290.599 323.232L289.687 323.008C288.621 322.741 287.858 322.347 287.399 321.824C286.941 321.301 286.711 320.523 286.711 319.488C286.711 318.443 287.047 317.616 287.719 317.008C288.391 316.4 289.383 316.096 290.695 316.096C292.018 316.096 292.967 316.389 293.543 316.976C294.13 317.552 294.493 318.395 294.631 319.504L292.903 319.776C292.765 318.453 292.082 317.792 290.855 317.792C290.183 317.792 289.687 317.941 289.367 318.24C289.047 318.528 288.887 318.912 288.887 319.392C288.887 319.872 289.01 320.229 289.255 320.464C289.501 320.699 289.97 320.907 290.663 321.088L291.671 321.36ZM298.976 316.32H301.808L305.392 328H303.296L302.304 324.768H298.464L297.488 328H295.376L298.976 316.32ZM300.384 318.384L298.96 323.12H301.808L300.384 318.384Z" fill="#114550"/>
<path d="M29.9511 373.968V372.32H38.2551V373.968H35.1991V384H33.0231V373.968H29.9511ZM41.223 372.32H44.055L47.639 384H45.543L44.551 380.768H40.711L39.735 384H37.623L41.223 372.32ZM42.631 374.384L41.207 379.12H44.055L42.631 374.384ZM49.1046 372.32H53.1846C54.6673 372.32 55.6966 372.709 56.2726 373.488C56.7633 374.16 57.0086 374.949 57.0086 375.856C57.0086 377.467 56.3793 378.533 55.1206 379.056C55.3553 379.312 55.558 379.632 55.7286 380.016L57.5046 384H55.1846L53.5206 380.208C53.3713 379.888 53.206 379.669 53.0246 379.552C52.854 379.435 52.5926 379.376 52.2406 379.376H51.2806V384H49.1046V372.32ZM51.2806 377.696H52.9286C53.5686 377.696 54.0433 377.52 54.3526 377.168C54.6726 376.816 54.8326 376.379 54.8326 375.856C54.8326 375.323 54.6726 374.88 54.3526 374.528C54.0433 374.176 53.5686 374 52.9286 374H51.2806V377.696ZM64.4991 372.32V381.072C64.4991 381.563 64.4618 381.968 64.3871 382.288C64.3231 382.608 64.1845 382.933 63.9711 383.264C63.5445 383.904 62.5898 384.224 61.1071 384.224C59.9018 384.224 59.0911 383.968 58.6751 383.456C58.3978 383.104 58.2325 382.747 58.1791 382.384C58.1045 381.883 58.0671 381.317 58.0671 380.688H59.9551C59.9551 381.349 60.0405 381.813 60.2111 382.08C60.3818 382.336 60.6911 382.464 61.1391 382.464C61.5978 382.464 61.9071 382.363 62.0671 382.16C62.2378 381.957 62.3231 381.595 62.3231 381.072V372.32H64.4991ZM67.1127 372.32H73.7048V374H69.2887V377.232H73.3047V378.896H69.2887V382.32H74.0247V384H67.1127V372.32ZM74.3699 373.968V372.32H82.6739V373.968H79.6179V384H77.4419V373.968H74.3699ZM85.6417 372.32H88.4738L92.0577 384H89.9618L88.9697 380.768H85.1297L84.1537 384H82.0417L85.6417 372.32ZM87.0497 374.384L85.6257 379.12H88.4738L87.0497 374.384ZM97.7696 372.32H101.658C103.546 372.32 104.826 372.896 105.498 374.048C105.828 374.603 106.058 375.205 106.186 375.856C106.314 376.507 106.378 377.232 106.378 378.032C106.378 378.821 106.34 379.488 106.266 380.032C106.191 380.576 106.047 381.109 105.834 381.632C105.631 382.144 105.359 382.565 105.018 382.896C104.26 383.632 103.14 384 101.658 384H97.7696V372.32ZM101.37 374H99.9456V382.32H101.37C102.511 382.32 103.284 381.909 103.69 381.088C104.031 380.373 104.202 379.397 104.202 378.16C104.202 376.923 104.031 375.947 103.69 375.232C103.284 374.411 102.511 374 101.37 374ZM108.781 372.32H115.373V374H110.957V377.232H114.973V378.896H110.957V382.32H115.693V384H108.781V372.32ZM121.821 372.32H123.997V384H121.821V372.32ZM126.848 372.32H130.736C132.624 372.32 133.904 372.896 134.576 374.048C134.907 374.603 135.136 375.205 135.264 375.856C135.392 376.507 135.456 377.232 135.456 378.032C135.456 378.821 135.419 379.488 135.344 380.032C135.27 380.576 135.126 381.109 134.912 381.632C134.71 382.144 134.438 382.565 134.096 382.896C133.339 383.632 132.219 384 130.736 384H126.848V372.32ZM130.448 374H129.024V382.32H130.448C131.59 382.32 132.363 381.909 132.768 381.088C133.11 380.373 133.28 379.397 133.28 378.16C133.28 376.923 133.11 375.947 132.768 375.232C132.363 374.411 131.59 374 130.448 374ZM137.86 372.32H144.452V374H140.036V377.232H144.052V378.896H140.036V382.32H144.772V384H137.86V372.32ZM153.581 372.32H155.757V384H153.453L148.829 376.064V384H146.653V372.32H148.957L153.581 380.272V372.32ZM157.067 373.968V372.32H165.371V373.968H162.315V384H160.139V373.968H157.067ZM166.677 372.32H168.853V384H166.677V372.32ZM171.705 372.32H177.977V374H173.881V377.232H177.449V378.896H173.881V384H171.705V372.32ZM179.732 372.32H181.908V384H179.732V372.32ZM188.888 373.856C187.885 373.856 187.208 374.187 186.856 374.848C186.504 375.499 186.328 376.603 186.328 378.16C186.328 379.707 186.504 380.811 186.856 381.472C187.208 382.133 187.885 382.464 188.888 382.464C189.666 382.464 190.216 382.251 190.536 381.824C190.866 381.397 191.042 380.779 191.064 379.968L192.824 380.048C192.738 381.424 192.408 382.464 191.832 383.168C191.266 383.872 190.285 384.224 188.888 384.224C187.064 384.224 185.805 383.691 185.112 382.624C184.76 382.091 184.509 381.472 184.36 380.768C184.221 380.053 184.152 379.184 184.152 378.16C184.152 377.136 184.221 376.272 184.36 375.568C184.509 374.853 184.76 374.229 185.112 373.696C185.805 372.629 187.064 372.096 188.888 372.096C190.2 372.096 191.144 372.389 191.72 372.976C192.296 373.563 192.648 374.427 192.776 375.568L191.016 375.84C190.952 375.2 190.754 374.709 190.424 374.368C190.093 374.027 189.581 373.856 188.888 373.856ZM196.839 372.32H199.671L203.255 384H201.159L200.167 380.768H196.327L195.351 384H193.239L196.839 372.32ZM198.247 374.384L196.823 379.12H199.671L198.247 374.384ZM208.849 373.856C207.846 373.856 207.169 374.187 206.817 374.848C206.465 375.499 206.289 376.603 206.289 378.16C206.289 379.707 206.465 380.811 206.817 381.472C207.169 382.133 207.846 382.464 208.849 382.464C209.628 382.464 210.177 382.251 210.497 381.824C210.828 381.397 211.004 380.779 211.025 379.968L212.785 380.048C212.7 381.424 212.369 382.464 211.793 383.168C211.228 383.872 210.246 384.224 208.849 384.224C207.025 384.224 205.766 383.691 205.073 382.624C204.721 382.091 204.47 381.472 204.321 380.768C204.182 380.053 204.113 379.184 204.113 378.16C204.113 377.136 204.182 376.272 204.321 375.568C204.47 374.853 204.721 374.229 205.073 373.696C205.766 372.629 207.025 372.096 208.849 372.096C210.161 372.096 211.105 372.389 211.681 372.976C212.257 373.563 212.609 374.427 212.737 375.568L210.977 375.84C210.913 375.2 210.716 374.709 210.385 374.368C210.054 374.027 209.542 373.856 208.849 373.856ZM214.576 372.32H216.752V384H214.576V372.32ZM227.62 382.448C227.279 383.024 226.783 383.467 226.132 383.776C225.492 384.075 224.745 384.224 223.892 384.224C223.049 384.224 222.345 384.123 221.78 383.92C221.215 383.707 220.756 383.429 220.404 383.088C220.052 382.736 219.769 382.293 219.556 381.76C219.183 380.821 218.996 379.621 218.996 378.16C218.996 377.253 219.065 376.459 219.204 375.776C219.343 375.093 219.583 374.464 219.924 373.888C220.607 372.693 221.887 372.096 223.764 372.096C225.897 372.096 227.305 372.923 227.988 374.576C228.361 375.504 228.548 376.699 228.548 378.16C228.548 379.077 228.479 379.877 228.34 380.56C228.201 381.243 227.961 381.872 227.62 382.448ZM223.764 382.464C224.735 382.464 225.412 382.085 225.796 381.328C226.18 380.571 226.372 379.515 226.372 378.16C226.372 376.805 226.18 375.749 225.796 374.992C225.412 374.235 224.735 373.856 223.764 373.856C222.74 373.856 222.041 374.272 221.668 375.104C221.337 375.861 221.172 376.88 221.172 378.16C221.172 380.293 221.604 381.621 222.468 382.144C222.82 382.357 223.252 382.464 223.764 382.464ZM222.532 371.552L221.812 370.4L224.932 368.272L225.892 369.808L222.532 371.552ZM237.716 372.32H239.892V384H237.588L232.964 376.064V384H230.788V372.32H233.092L237.716 380.272V372.32ZM246.983 372.32H253.575V374H249.159V377.232H253.175V378.896H249.159V382.32H253.895V384H246.983V372.32ZM260.176 377.36C261.264 377.637 262.043 378.032 262.512 378.544C262.982 379.056 263.216 379.824 263.216 380.848C263.216 381.872 262.864 382.693 262.16 383.312C261.456 383.92 260.422 384.224 259.056 384.224C257.691 384.224 256.704 383.936 256.096 383.36C255.488 382.773 255.115 381.925 254.976 380.816L256.72 380.544C256.784 381.173 256.998 381.664 257.36 382.016C257.734 382.357 258.251 382.528 258.912 382.528C260.331 382.528 261.04 381.989 261.04 380.912C261.04 380.453 260.907 380.107 260.64 379.872C260.374 379.637 259.862 379.424 259.104 379.232L258.192 379.008C257.126 378.741 256.363 378.347 255.904 377.824C255.446 377.301 255.216 376.523 255.216 375.488C255.216 374.443 255.552 373.616 256.224 373.008C256.896 372.4 257.888 372.096 259.2 372.096C260.523 372.096 261.472 372.389 262.048 372.976C262.635 373.552 262.998 374.395 263.136 375.504L261.408 375.776C261.27 374.453 260.587 373.792 259.36 373.792C258.688 373.792 258.192 373.941 257.872 374.24C257.552 374.528 257.392 374.912 257.392 375.392C257.392 375.872 257.515 376.229 257.76 376.464C258.006 376.699 258.475 376.907 259.168 377.088L260.176 377.36ZM263.721 373.968V372.32H272.025V373.968H268.969V384H266.793V373.968H263.721ZM274.993 372.32H277.825L281.409 384H279.313L278.321 380.768H274.481L273.505 384H271.393L274.993 372.32ZM276.401 374.384L274.977 379.12H277.825L276.401 374.384ZM280.776 373.968V372.32H289.08V373.968H286.024V384H283.848V373.968H280.776ZM292.048 372.32H294.88L298.464 384H296.368L295.376 380.768H291.536L290.56 384H288.448L292.048 372.32ZM293.456 374.384L292.032 379.12H294.88L293.456 374.384ZM299.93 384V372.32H302.106V382.32H306.09V384H299.93Z" fill="#114550"/>
<circle cx="541.821" cy="93.8212" r="17.8212" fill="#317C82"/>
<path fill-rule="evenodd" clip-rule="evenodd" d="M552.268 87.7059L537.889 101.812L530.146 94.2164L533.306 91.116L537.889 95.6113L549.108 84.6055L552.268 87.7059Z" fill="#FFF6D2"/>
<circle cx="541.821" cy="151.595" r="17.8212" fill="#317C82"/>
<path fill-rule="evenodd" clip-rule="evenodd" d="M552.268 145.479L537.889 159.586L530.146 151.99L533.306 148.889L537.889 153.385L549.108 142.379L552.268 145.479Z" fill="#FFF6D2"/>
<circle cx="541.821" cy="208.126" r="17.8212" fill="#114550"/>
<path fill-rule="evenodd" clip-rule="evenodd" d="M552.625 211.023L532.482 210.83L532.44 206.445L552.582 206.596L552.625 211.023Z" fill="#FFF6D2"/>
<circle cx="541.821" cy="264.657" r="17.8212" fill="#114550"/>
<path fill-rule="evenodd" clip-rule="evenodd" d="M552.625 267.554L532.482 267.361L532.44 262.976L552.582 263.127L552.625 267.554Z" fill="#FFF6D2"/>
<circle cx="541.821" cy="321.196" r="17.8212" fill="#114550"/>
<path fill-rule="evenodd" clip-rule="evenodd" d="M552.625 324.093L532.482 323.9L532.44 319.515L552.582 319.666L552.625 324.093Z" fill="#FFF6D2"/>
<circle cx="541.821" cy="377.731" r="17.8212" fill="#114550"/>
<path fill-rule="evenodd" clip-rule="evenodd" d="M552.625 380.629L532.482 380.435L532.44 376.05L552.582 376.201L552.625 380.629Z" fill="#FFF6D2"/>
<circle cx="541.821" cy="434.27" r="17.8212" fill="#114550"/>
<path fill-rule="evenodd" clip-rule="evenodd" d="M552.625 437.168L532.482 436.974L532.44 432.589L552.582 432.74L552.625 437.168Z" fill="#FFF6D2"/>
<circle cx="399.821" cy="93.8212" r="17.8212" fill="#317C82"/>
<path fill-rule="evenodd" clip-rule="evenodd" d="M410.268 87.7059L395.889 101.812L388.146 94.2164L391.306 91.116L395.889 95.6113L407.108 84.6055L410.268 87.7059Z" fill="#FFF6D2"/>
<circle cx="399.821" cy="151.595" r="17.8212" fill="#317C82"/>
<path fill-rule="evenodd" clip-rule="evenodd" d="M410.268 145.479L395.889 159.586L388.146 151.99L391.306 148.889L395.889 153.385L407.108 142.379L410.268 145.479Z" fill="#FFF6D2"/>
<circle cx="399.821" cy="208.126" r="17.8212" fill="#317C82"/>
<path fill-rule="evenodd" clip-rule="evenodd" d="M410.268 202.011L395.889 216.117L388.146 208.521L391.306 205.421L395.889 209.916L407.108 198.91L410.268 202.011Z" fill="#FFF6D2"/>
<circle cx="399.821" cy="264.657" r="17.8212" fill="#317C82"/>
<path fill-rule="evenodd" clip-rule="evenodd" d="M410.268 258.542L395.889 272.648L388.146 265.052L391.306 261.952L395.889 266.447L407.108 255.441L410.268 258.542Z" fill="#FFF6D2"/>
<circle cx="399.821" cy="321.196" r="17.8212" fill="#317C82"/>
<path fill-rule="evenodd" clip-rule="evenodd" d="M410.268 315.081L395.889 329.187L388.146 321.591L391.306 318.491L395.889 322.986L407.108 311.98L410.268 315.081Z" fill="#FFF6D2"/>
<circle cx="399.821" cy="377.731" r="17.8212" fill="#317C82"/>
<path fill-rule="evenodd" clip-rule="evenodd" d="M410.268 371.616L395.889 385.722L388.146 378.127L391.306 375.026L395.889 379.521L407.108 368.516L410.268 371.616Z" fill="#FFF6D2"/>
<circle cx="399.821" cy="434.27" r="17.8212" fill="#317C82"/>
<path fill-rule="evenodd" clip-rule="evenodd" d="M410.268 428.155L395.889 442.261L388.146 434.666L391.306 431.565L395.889 436.061L407.108 425.055L410.268 428.155Z" fill="#FFF6D2"/>
</svg>
