<svg width="459" height="470" viewBox="0 0 459 470" fill="none" xmlns="http://www.w3.org/2000/svg">
<path d="M373.884 15.384C374.566 15.8747 375.036 16.376 375.292 16.888C375.548 17.4 375.676 18.072 375.676 18.904V23.032C375.676 25.8053 374.289 27.192 371.516 27.192H369.02C366.246 27.192 364.86 25.8053 364.86 23.032V18.264H369.244V22.616C369.244 23.1493 369.51 23.416 370.044 23.416H370.46C370.993 23.416 371.26 23.1493 371.26 22.616V19.928C371.26 19.3307 371.004 18.8507 370.492 18.488L366.652 15.64C365.969 15.1493 365.5 14.648 365.243 14.136C364.988 13.6027 364.86 12.9307 364.86 12.12V8.568C364.86 5.79467 366.246 4.408 369.02 4.408H371.452C374.225 4.408 375.612 5.79467 375.612 8.568V12.664H371.228V8.984C371.228 8.45067 370.961 8.184 370.428 8.184H370.076C369.542 8.184 369.276 8.45067 369.276 8.984V11.096C369.276 11.6933 369.532 12.1733 370.044 12.536L373.884 15.384ZM385.279 4.6L388.223 27H383.775L383.423 23.736H380.607L380.286 27H376.223L379.167 4.6H385.279ZM382.015 10.04L381.023 19.832H383.039L382.015 10.04ZM395.611 17.112H400.027V23.032C400.027 25.8053 398.64 27.192 395.867 27.192H393.115C390.341 27.192 388.955 25.8053 388.955 23.032V8.568C388.955 5.79467 390.341 4.408 393.115 4.408H395.803C398.576 4.408 399.963 5.79467 399.963 8.568V13.816H395.547V9.048C395.547 8.51467 395.28 8.248 394.747 8.248H394.235C393.701 8.248 393.435 8.51467 393.435 9.048V22.552C393.435 23.0853 393.701 23.352 394.235 23.352H394.811C395.344 23.352 395.611 23.0853 395.611 22.552V17.112ZM410.415 15.416C411.695 15.7787 412.335 16.7387 412.335 18.296V22.84C412.335 25.6133 410.948 27 408.175 27H401.519V4.6H408.111C410.884 4.6 412.271 5.98667 412.271 8.76V12.088C412.271 13.8373 411.652 14.9467 410.415 15.416ZM407.823 9.24C407.823 8.70667 407.556 8.44 407.023 8.44H405.967V13.752H407.023C407.556 13.752 407.823 13.4853 407.823 12.952V9.24ZM405.967 17.496V23.16H407.087C407.62 23.16 407.887 22.8933 407.887 22.36V18.296C407.887 17.7627 407.62 17.496 407.087 17.496H405.967ZM413.769 4.6H422.089V8.6H418.249V13.624H421.929V17.624H418.249V23H422.153V27H413.769V4.6ZM416.361 3.48L417.801 0.439999H421.929L419.401 3.48H416.361ZM432.253 4.6L432.989 10.904L433.661 4.6H436.637V14.36H434.557V7.832L433.693 14.36H431.869L431.005 7.768V14.36H429.341V4.6H432.253ZM427.293 14.36H425.181V6.456H423.709V4.6H428.765V6.456H427.293V14.36ZM363.2 30.6L366.144 53H361.696L361.344 49.736H358.528L358.208 53H354.144L357.088 30.6H363.2ZM359.936 36.04L358.944 45.832H360.96L359.936 36.04ZM373.533 43.112H377.949V49.032C377.949 51.8053 376.562 53.192 373.789 53.192H371.037C368.263 53.192 366.877 51.8053 366.877 49.032V34.568C366.877 31.7947 368.263 30.408 371.037 30.408H373.725C376.498 30.408 377.885 31.7947 377.885 34.568V39.816H373.469V35.048C373.469 34.5147 373.202 34.248 372.669 34.248H372.157C371.623 34.248 371.357 34.5147 371.357 35.048V48.552C371.357 49.0853 371.623 49.352 372.157 49.352H372.733C373.266 49.352 373.533 49.0853 373.533 48.552V43.112ZM386.033 43.112H390.449V49.032C390.449 51.8053 389.062 53.192 386.289 53.192H383.537C380.763 53.192 379.377 51.8053 379.377 49.032V34.568C379.377 31.7947 380.763 30.408 383.537 30.408H386.225C388.998 30.408 390.385 31.7947 390.385 34.568V39.816H385.969V35.048C385.969 34.5147 385.702 34.248 385.169 34.248H384.657C384.123 34.248 383.857 34.5147 383.857 35.048V48.552C383.857 49.0853 384.123 49.352 384.657 49.352H385.233C385.766 49.352 386.033 49.0853 386.033 48.552V43.112ZM403.077 49.032C403.077 51.8053 401.69 53.192 398.917 53.192H396.037C393.263 53.192 391.877 51.8053 391.877 49.032V34.568C391.877 31.7947 393.263 30.408 396.037 30.408H398.917C401.69 30.408 403.077 31.7947 403.077 34.568V49.032ZM398.597 35.048C398.597 34.5147 398.33 34.248 397.797 34.248H397.157C396.623 34.248 396.357 34.5147 396.357 35.048V48.552C396.357 49.0853 396.623 49.352 397.157 49.352H397.797C398.33 49.352 398.597 49.0853 398.597 48.552V35.048ZM415.636 30.6V49.032C415.636 51.8053 414.249 53.192 411.476 53.192H408.756C405.983 53.192 404.596 51.8053 404.596 49.032V30.6H409.076V48.552C409.076 49.0853 409.343 49.352 409.876 49.352H410.356C410.889 49.352 411.156 49.0853 411.156 48.552V30.6H415.636ZM424.359 41.736L424.263 30.6H428.135V53H423.783L420.967 40.84L421.063 53H417.191V30.6H421.767L424.359 41.736ZM436.442 53H431.962V34.6H429.242V30.6H439.162V34.6H436.442V53ZM444.764 30.536L444.668 33.48L447.484 31.848H447.58V33.992L445.372 35.112L447.58 36.232V38.376H447.484L444.7 36.776L444.764 39.688H442.748L442.812 36.776L440.028 38.376H439.932V36.232L442.108 35.112L439.932 33.992V31.848H440.028L442.812 33.48L442.748 30.536H444.764Z" fill="#CA8923"/>
<circle cx="388.821" cy="98.8212" r="17.8212" fill="#317C82"/>
<path fill-rule="evenodd" clip-rule="evenodd" d="M399.269 92.7049L384.89 106.811L377.146 99.2155L380.307 96.115L384.89 100.61L396.109 89.6045L399.269 92.7049Z" fill="#FFF6D2"/>
<circle cx="388.821" cy="156.593" r="17.8212" fill="#317C82"/>
<path fill-rule="evenodd" clip-rule="evenodd" d="M399.269 150.476L384.89 164.583L377.146 156.987L380.307 153.887L384.89 158.382L396.109 147.376L399.269 150.476Z" fill="#FFF6D2"/>
<circle cx="388.821" cy="213.126" r="17.8212" fill="#317C82"/>
<path fill-rule="evenodd" clip-rule="evenodd" d="M399.269 207.01L384.89 221.116L377.146 213.52L380.307 210.42L384.89 214.915L396.109 203.909L399.269 207.01Z" fill="#FFF6D2"/>
<circle cx="388.821" cy="269.657" r="17.8212" fill="#317C82"/>
<path fill-rule="evenodd" clip-rule="evenodd" d="M399.269 263.541L384.89 277.647L377.146 270.051L380.307 266.951L384.89 271.446L396.109 260.44L399.269 263.541Z" fill="#FFF6D2"/>
<circle cx="388.821" cy="326.196" r="17.8212" fill="#317C82"/>
<path fill-rule="evenodd" clip-rule="evenodd" d="M399.269 320.08L384.89 334.186L377.146 326.59L380.307 323.49L384.89 327.985L396.109 316.979L399.269 320.08Z" fill="#FFF6D2"/>
<circle cx="388.821" cy="382.732" r="17.8212" fill="#317C82"/>
<path fill-rule="evenodd" clip-rule="evenodd" d="M399.269 376.616L384.89 390.722L377.146 383.127L380.307 380.026L384.89 384.521L396.109 373.516L399.269 376.616Z" fill="#FFF6D2"/>
<circle cx="388.821" cy="439.272" r="17.8212" fill="#317C82"/>
<path fill-rule="evenodd" clip-rule="evenodd" d="M399.269 433.156L384.89 447.262L377.146 439.667L380.307 436.566L384.89 441.062L396.109 430.056L399.269 433.156Z" fill="#FFF6D2"/>
<path d="M2 85C2 76.7157 8.71573 70 17 70H323V468H17C8.71573 468 2 461.284 2 453V85Z" stroke="#114550" stroke-width="2.4581"/>
<path d="M323 70H442C450.284 70 457 76.7157 457 85V453C457 461.284 450.284 468 442 468H323V70Z" stroke="#114550" stroke-width="2.4581"/>
<path d="M457 183H2" stroke="#114550" stroke-width="2.4581"/>
<path d="M457 296H2" stroke="#114550" stroke-width="2.4581"/>
<path d="M457 409H2" stroke="#114550" stroke-width="2.4581"/>
<path d="M457 126H2" stroke="#114550" stroke-width="2.4581"/>
<path d="M457 239H2" stroke="#114550" stroke-width="2.4581"/>
<path d="M457 352H2" stroke="#114550" stroke-width="2.4581"/>
<path d="M102.202 97.36C103.29 97.6373 104.068 98.032 104.538 98.544C105.007 99.056 105.242 99.824 105.242 100.848C105.242 101.872 104.89 102.693 104.186 103.312C103.482 103.92 102.447 104.224 101.082 104.224C99.7162 104.224 98.7295 103.936 98.1215 103.36C97.5135 102.773 97.1402 101.925 97.0015 100.816L98.7455 100.544C98.8095 101.173 99.0228 101.664 99.3855 102.016C99.7588 102.357 100.276 102.528 100.938 102.528C102.356 102.528 103.066 101.989 103.066 100.912C103.066 100.453 102.932 100.107 102.666 99.872C102.399 99.6373 101.887 99.424 101.13 99.232L100.218 99.008C99.1508 98.7413 98.3882 98.3467 97.9295 97.824C97.4708 97.3013 97.2415 96.5227 97.2415 95.488C97.2415 94.4427 97.5775 93.616 98.2495 93.008C98.9215 92.4 99.9135 92.096 101.226 92.096C102.548 92.096 103.498 92.3893 104.074 92.976C104.66 93.552 105.023 94.3947 105.162 95.504L103.434 95.776C103.295 94.4533 102.612 93.792 101.386 93.792C100.714 93.792 100.218 93.9413 99.8975 94.24C99.5775 94.528 99.4175 94.912 99.4175 95.392C99.4175 95.872 99.5402 96.2293 99.7855 96.464C100.031 96.6987 100.5 96.9067 101.194 97.088L102.202 97.36ZM115.298 102.448C114.957 103.024 114.461 103.467 113.81 103.776C113.17 104.075 112.423 104.224 111.57 104.224C110.727 104.224 110.023 104.123 109.458 103.92C108.893 103.707 108.434 103.429 108.082 103.088C107.73 102.736 107.447 102.293 107.234 101.76C106.861 100.821 106.674 99.6213 106.674 98.16C106.674 97.2533 106.743 96.4587 106.882 95.776C107.021 95.0933 107.261 94.464 107.602 93.888C108.285 92.6933 109.565 92.096 111.442 92.096C113.575 92.096 114.983 92.9227 115.666 94.576C116.039 95.504 116.226 96.6987 116.226 98.16C116.226 99.0773 116.157 99.8773 116.018 100.56C115.879 101.243 115.639 101.872 115.298 102.448ZM111.442 102.464C112.413 102.464 113.09 102.085 113.474 101.328C113.858 100.571 114.05 99.5147 114.05 98.16C114.05 96.8053 113.858 95.7493 113.474 94.992C113.09 94.2347 112.413 93.856 111.442 93.856C110.418 93.856 109.719 94.272 109.346 95.104C109.015 95.8613 108.85 96.88 108.85 98.16C108.85 100.293 109.282 101.621 110.146 102.144C110.498 102.357 110.93 102.464 111.442 102.464ZM122.594 93.856C121.591 93.856 120.914 94.1867 120.562 94.848C120.21 95.4987 120.034 96.6027 120.034 98.16C120.034 99.7067 120.21 100.811 120.562 101.472C120.914 102.133 121.591 102.464 122.594 102.464C123.373 102.464 123.922 102.251 124.242 101.824C124.573 101.397 124.749 100.779 124.77 99.968L126.53 100.048C126.445 101.424 126.114 102.464 125.538 103.168C124.973 103.872 123.991 104.224 122.594 104.224C120.77 104.224 119.511 103.691 118.818 102.624C118.466 102.091 118.215 101.472 118.066 100.768C117.927 100.053 117.858 99.184 117.858 98.16C117.858 97.136 117.927 96.272 118.066 95.568C118.215 94.8533 118.466 94.2293 118.818 93.696C119.511 92.6293 120.77 92.096 122.594 92.096C123.906 92.096 124.85 92.3893 125.426 92.976C126.002 93.5627 126.354 94.4267 126.482 95.568L124.722 95.84C124.658 95.2 124.461 94.7093 124.13 94.368C123.799 94.0267 123.287 93.856 122.594 93.856ZM128.322 92.32H130.498V104H128.322V92.32ZM135.573 92.32H138.405L141.989 104H139.893L138.901 100.768H135.061L134.085 104H131.973L135.573 92.32ZM136.981 94.384L135.557 99.12H138.405L136.981 94.384ZM143.455 104V92.32H145.631V102.32H149.615V104H143.455ZM159.675 97.36C160.763 97.6373 161.542 98.032 162.011 98.544C162.481 99.056 162.715 99.824 162.715 100.848C162.715 101.872 162.363 102.693 161.659 103.312C160.955 103.92 159.921 104.224 158.555 104.224C157.19 104.224 156.203 103.936 155.595 103.36C154.987 102.773 154.614 101.925 154.475 100.816L156.219 100.544C156.283 101.173 156.497 101.664 156.859 102.016C157.233 102.357 157.75 102.528 158.411 102.528C159.83 102.528 160.539 101.989 160.539 100.912C160.539 100.453 160.406 100.107 160.139 99.872C159.873 99.6373 159.361 99.424 158.603 99.232L157.691 99.008C156.625 98.7413 155.862 98.3467 155.403 97.824C154.945 97.3013 154.715 96.5227 154.715 95.488C154.715 94.4427 155.051 93.616 155.723 93.008C156.395 92.4 157.387 92.096 158.699 92.096C160.022 92.096 160.971 92.3893 161.547 92.976C162.134 93.552 162.497 94.3947 162.635 95.504L160.907 95.776C160.769 94.4533 160.086 93.792 158.859 93.792C158.187 93.792 157.691 93.9413 157.371 94.24C157.051 94.528 156.891 94.912 156.891 95.392C156.891 95.872 157.014 96.2293 157.259 96.464C157.505 96.6987 157.974 96.9067 158.667 97.088L159.675 97.36ZM164.756 92.32H171.348V94H166.932V97.232H170.948V98.896H166.932V102.32H171.668V104H164.756V92.32ZM177.677 93.856C176.674 93.856 175.997 94.1867 175.645 94.848C175.293 95.4987 175.117 96.6027 175.117 98.16C175.117 99.7067 175.293 100.811 175.645 101.472C175.997 102.133 176.674 102.464 177.677 102.464C178.456 102.464 179.005 102.251 179.325 101.824C179.656 101.397 179.832 100.779 179.853 99.968L181.613 100.048C181.528 101.424 181.197 102.464 180.621 103.168C180.056 103.872 179.074 104.224 177.677 104.224C175.853 104.224 174.594 103.691 173.901 102.624C173.549 102.091 173.298 101.472 173.149 100.768C173.01 100.053 172.941 99.184 172.941 98.16C172.941 97.136 173.01 96.272 173.149 95.568C173.298 94.8533 173.549 94.2293 173.901 93.696C174.594 92.6293 175.853 92.096 177.677 92.096C178.989 92.096 179.933 92.3893 180.509 92.976C181.085 93.5627 181.437 94.4267 181.565 95.568L179.805 95.84C179.741 95.2 179.544 94.7093 179.213 94.368C178.882 94.0267 178.37 93.856 177.677 93.856ZM189.709 92.32H191.885V100.144C191.885 100.859 191.794 101.472 191.613 101.984C191.431 102.496 191.207 102.896 190.941 103.184C190.674 103.461 190.333 103.685 189.917 103.856C189.501 104.016 189.111 104.117 188.749 104.16C188.397 104.203 187.986 104.224 187.517 104.224C187.047 104.224 186.631 104.203 186.269 104.16C185.917 104.117 185.533 104.016 185.117 103.856C184.701 103.685 184.359 103.461 184.093 103.184C183.837 102.896 183.618 102.496 183.437 101.984C183.255 101.472 183.165 100.859 183.165 100.144V92.32H185.341V99.984C185.341 100.976 185.533 101.637 185.917 101.968C186.301 102.288 186.834 102.448 187.517 102.448C187.847 102.448 188.125 102.421 188.349 102.368C188.573 102.315 188.797 102.208 189.021 102.048C189.479 101.717 189.709 101.029 189.709 99.984V92.32ZM194.495 92.32H198.575C200.057 92.32 201.087 92.7093 201.663 93.488C202.153 94.16 202.399 94.9493 202.399 95.856C202.399 97.4667 201.769 98.5333 200.511 99.056C200.745 99.312 200.948 99.632 201.119 100.016L202.895 104H200.575L198.911 100.208C198.761 99.888 198.596 99.6693 198.415 99.552C198.244 99.4347 197.983 99.376 197.631 99.376H196.671V104H194.495V92.32ZM196.671 97.696H198.319C198.959 97.696 199.433 97.52 199.743 97.168C200.063 96.816 200.223 96.3787 200.223 95.856C200.223 95.3227 200.063 94.88 199.743 94.528C199.433 94.176 198.959 94 198.319 94H196.671V97.696ZM204.897 92.32H207.073V104H204.897V92.32ZM208.389 93.968V92.32H216.693V93.968H213.637V104H211.461V93.968H208.389ZM222.175 104H219.999V99.936L216.399 92.32H218.575L221.087 97.904L223.599 92.32H225.775L222.175 99.936V104ZM238.201 92.32H240.377V104H238.073L233.449 96.064V104H231.273V92.32H233.577L238.201 100.272V92.32ZM249.526 92.32H251.702V100.144C251.702 100.859 251.611 101.472 251.43 101.984C251.249 102.496 251.025 102.896 250.758 103.184C250.491 103.461 250.15 103.685 249.734 103.856C249.318 104.016 248.929 104.117 248.566 104.16C248.214 104.203 247.803 104.224 247.334 104.224C246.865 104.224 246.449 104.203 246.086 104.16C245.734 104.117 245.35 104.016 244.934 103.856C244.518 103.685 244.177 103.461 243.91 103.184C243.654 102.896 243.435 102.496 243.254 101.984C243.073 101.472 242.982 100.859 242.982 100.144V92.32H245.158V99.984C245.158 100.976 245.35 101.637 245.734 101.968C246.118 102.288 246.651 102.448 247.334 102.448C247.665 102.448 247.942 102.421 248.166 102.368C248.39 102.315 248.614 102.208 248.838 102.048C249.297 101.717 249.526 101.029 249.526 99.984V92.32ZM262.28 92.32H265.32L265.624 104H263.48L263.304 95.008L260.696 102.608H258.808L256.456 95.264L256.296 104H254.152L254.44 92.32H257.496L259.784 99.696L262.28 92.32ZM272.532 104H268.308V92.32H271.988C273.428 92.32 274.431 92.64 274.996 93.28C275.498 93.856 275.748 94.5333 275.748 95.312C275.748 96.6453 275.178 97.5307 274.036 97.968C274.804 98.1813 275.364 98.5547 275.716 99.088C276.079 99.6213 276.26 100.219 276.26 100.88C276.26 101.701 276.01 102.405 275.508 102.992C275.252 103.301 274.868 103.547 274.356 103.728C273.844 103.909 273.236 104 272.532 104ZM270.484 102.32H272.404C272.959 102.32 273.375 102.165 273.652 101.856C273.94 101.547 274.084 101.125 274.084 100.592C274.084 100.059 273.94 99.6373 273.652 99.328C273.375 99.0187 272.959 98.864 272.404 98.864H270.484V102.32ZM270.484 97.2H271.956C272.468 97.2 272.863 97.0613 273.14 96.784C273.428 96.496 273.572 96.1067 273.572 95.616C273.572 95.1147 273.428 94.72 273.14 94.432C272.863 94.144 272.468 94 271.956 94H270.484V97.2ZM278.148 92.32H284.74V94H280.324V97.232H284.34V98.896H280.324V102.32H285.06V104H278.148V92.32ZM286.942 92.32H291.022C292.504 92.32 293.534 92.7093 294.11 93.488C294.6 94.16 294.845 94.9493 294.845 95.856C294.845 97.4667 294.216 98.5333 292.958 99.056C293.192 99.312 293.395 99.632 293.566 100.016L295.342 104H293.022L291.358 100.208C291.208 99.888 291.043 99.6693 290.862 99.552C290.691 99.4347 290.43 99.376 290.078 99.376H289.118V104H286.942V92.32ZM289.118 97.696H290.766C291.406 97.696 291.88 97.52 292.19 97.168C292.51 96.816 292.67 96.3787 292.67 95.856C292.67 95.3227 292.51 94.88 292.19 94.528C291.88 94.176 291.406 94 290.766 94H289.118V97.696Z" fill="#114550"/>
<path d="M199.545 150.856C198.542 150.856 197.865 151.187 197.513 151.848C197.161 152.499 196.985 153.603 196.985 155.16C196.985 156.707 197.161 157.811 197.513 158.472C197.865 159.133 198.542 159.464 199.545 159.464C200.323 159.464 200.873 159.251 201.193 158.824C201.523 158.397 201.699 157.779 201.721 156.968L203.481 157.048C203.395 158.424 203.065 159.464 202.489 160.168C201.923 160.872 200.942 161.224 199.545 161.224C197.721 161.224 196.462 160.691 195.769 159.624C195.417 159.091 195.166 158.472 195.017 157.768C194.878 157.053 194.809 156.184 194.809 155.16C194.809 154.136 194.878 153.272 195.017 152.568C195.166 151.853 195.417 151.229 195.769 150.696C196.462 149.629 197.721 149.096 199.545 149.096C200.857 149.096 201.801 149.389 202.377 149.976C202.953 150.563 203.305 151.427 203.433 152.568L201.673 152.84C201.609 152.2 201.411 151.709 201.081 151.368C200.75 151.027 200.238 150.856 199.545 150.856ZM213.288 159.448C212.947 160.024 212.451 160.467 211.8 160.776C211.16 161.075 210.413 161.224 209.56 161.224C208.717 161.224 208.013 161.123 207.448 160.92C206.883 160.707 206.424 160.429 206.072 160.088C205.72 159.736 205.437 159.293 205.224 158.76C204.851 157.821 204.664 156.621 204.664 155.16C204.664 154.253 204.733 153.459 204.872 152.776C205.011 152.093 205.251 151.464 205.592 150.888C206.275 149.693 207.555 149.096 209.432 149.096C211.565 149.096 212.973 149.923 213.656 151.576C214.029 152.504 214.216 153.699 214.216 155.16C214.216 156.077 214.147 156.877 214.008 157.56C213.869 158.243 213.629 158.872 213.288 159.448ZM209.432 159.464C210.403 159.464 211.08 159.085 211.464 158.328C211.848 157.571 212.04 156.515 212.04 155.16C212.04 153.805 211.848 152.749 211.464 151.992C211.08 151.235 210.403 150.856 209.432 150.856C208.408 150.856 207.709 151.272 207.336 152.104C207.005 152.861 206.84 153.88 206.84 155.16C206.84 157.293 207.272 158.621 208.136 159.144C208.488 159.357 208.92 159.464 209.432 159.464ZM223.384 149.32H225.56V161H223.256L218.632 153.064V161H216.456V149.32H218.76L223.384 157.272V149.32ZM232.805 154.36C233.893 154.637 234.672 155.032 235.141 155.544C235.611 156.056 235.845 156.824 235.845 157.848C235.845 158.872 235.493 159.693 234.789 160.312C234.085 160.92 233.051 161.224 231.685 161.224C230.32 161.224 229.333 160.936 228.725 160.36C228.117 159.773 227.744 158.925 227.605 157.816L229.349 157.544C229.413 158.173 229.627 158.664 229.989 159.016C230.363 159.357 230.88 159.528 231.541 159.528C232.96 159.528 233.669 158.989 233.669 157.912C233.669 157.453 233.536 157.107 233.269 156.872C233.003 156.637 232.491 156.424 231.733 156.232L230.821 156.008C229.755 155.741 228.992 155.347 228.533 154.824C228.075 154.301 227.845 153.523 227.845 152.488C227.845 151.443 228.181 150.616 228.853 150.008C229.525 149.4 230.517 149.096 231.829 149.096C233.152 149.096 234.101 149.389 234.677 149.976C235.264 150.552 235.627 151.395 235.765 152.504L234.037 152.776C233.899 151.453 233.216 150.792 231.989 150.792C231.317 150.792 230.821 150.941 230.501 151.24C230.181 151.528 230.021 151.912 230.021 152.392C230.021 152.872 230.144 153.229 230.389 153.464C230.635 153.699 231.104 153.907 231.797 154.088L232.805 154.36ZM244.19 149.32H246.366V157.144C246.366 157.859 246.275 158.472 246.094 158.984C245.913 159.496 245.689 159.896 245.422 160.184C245.155 160.461 244.814 160.685 244.398 160.856C243.982 161.016 243.593 161.117 243.23 161.16C242.878 161.203 242.467 161.224 241.998 161.224C241.529 161.224 241.113 161.203 240.75 161.16C240.398 161.117 240.014 161.016 239.598 160.856C239.182 160.685 238.841 160.461 238.574 160.184C238.318 159.896 238.099 159.496 237.918 158.984C237.737 158.472 237.646 157.859 237.646 157.144V149.32H239.822V156.984C239.822 157.976 240.014 158.637 240.398 158.968C240.782 159.288 241.315 159.448 241.998 159.448C242.329 159.448 242.606 159.421 242.83 159.368C243.054 159.315 243.278 159.208 243.502 159.048C243.961 158.717 244.19 158.029 244.19 156.984V149.32ZM248.976 161V149.32H251.152V159.32H255.136V161H248.976ZM258.774 149.32H261.606L265.19 161H263.094L262.102 157.768H258.262L257.286 161H255.174L258.774 149.32ZM260.182 151.384L258.758 156.12H261.606L260.182 151.384ZM266.656 149.32H270.736C272.219 149.32 273.248 149.709 273.824 150.488C274.315 151.16 274.56 151.949 274.56 152.856C274.56 154.467 273.931 155.533 272.672 156.056C272.907 156.312 273.109 156.632 273.28 157.016L275.056 161H272.736L271.072 157.208C270.923 156.888 270.757 156.669 270.576 156.552C270.405 156.435 270.144 156.376 269.792 156.376H268.832V161H266.656V149.32ZM268.832 154.696H270.48C271.12 154.696 271.595 154.52 271.904 154.168C272.224 153.816 272.384 153.379 272.384 152.856C272.384 152.323 272.224 151.88 271.904 151.528C271.595 151.176 271.12 151 270.48 151H268.832V154.696ZM281.305 149.32H283.481V161H281.305V149.32ZM286.332 149.32H290.22C292.108 149.32 293.388 149.896 294.06 151.048C294.391 151.603 294.62 152.205 294.748 152.856C294.876 153.507 294.94 154.232 294.94 155.032C294.94 155.821 294.903 156.488 294.828 157.032C294.753 157.576 294.609 158.109 294.396 158.632C294.193 159.144 293.921 159.565 293.58 159.896C292.823 160.632 291.703 161 290.22 161H286.332V149.32ZM289.932 151H288.508V159.32H289.932C291.073 159.32 291.847 158.909 292.252 158.088C292.593 157.373 292.764 156.397 292.764 155.16C292.764 153.923 292.593 152.947 292.252 152.232C291.847 151.411 291.073 151 289.932 151Z" fill="#114550"/>
<path d="M155.25 197.32H158.29L158.594 209H156.45L156.274 200.008L153.666 207.608H151.778L149.426 200.264L149.266 209H147.122L147.41 197.32H150.466L152.754 204.696L155.25 197.32ZM161.279 197.32H167.871V199H163.455V202.232H167.471V203.896H163.455V207.32H168.191V209H161.279V197.32ZM168.648 197.32H171.128L173.752 201.368L176.184 197.32H178.472L174.904 203.144L178.712 209H176.232L173.464 204.744L170.952 209H168.68L172.328 202.984L168.648 197.32ZM179.865 197.32H182.041V209H179.865V197.32ZM189.02 198.856C188.018 198.856 187.34 199.187 186.988 199.848C186.636 200.499 186.46 201.603 186.46 203.16C186.46 204.707 186.636 205.811 186.988 206.472C187.34 207.133 188.018 207.464 189.02 207.464C189.799 207.464 190.348 207.251 190.668 206.824C190.999 206.397 191.175 205.779 191.196 204.968L192.956 205.048C192.871 206.424 192.54 207.464 191.964 208.168C191.399 208.872 190.418 209.224 189.02 209.224C187.196 209.224 185.938 208.691 185.244 207.624C184.892 207.091 184.642 206.472 184.492 205.768C184.354 205.053 184.284 204.184 184.284 203.16C184.284 202.136 184.354 201.272 184.492 200.568C184.642 199.853 184.892 199.229 185.244 198.696C185.938 197.629 187.196 197.096 189.02 197.096C190.332 197.096 191.276 197.389 191.852 197.976C192.428 198.563 192.78 199.427 192.908 200.568L191.148 200.84C191.084 200.2 190.887 199.709 190.556 199.368C190.226 199.027 189.714 198.856 189.02 198.856ZM196.972 197.32H199.804L203.388 209H201.292L200.3 205.768H196.46L195.484 209H193.372L196.972 197.32ZM198.38 199.384L196.956 204.12H199.804L198.38 199.384ZM211.782 197.32H213.958V209H211.654L207.03 201.064V209H204.854V197.32H207.158L211.782 205.272V197.32ZM225.081 204.856H223.225V209H221.049V197.32H225.081C226.489 197.32 227.481 197.704 228.057 198.472C228.559 199.165 228.809 200.04 228.809 201.096C228.809 202.141 228.559 203.005 228.057 203.688C227.481 204.467 226.489 204.856 225.081 204.856ZM223.225 203.176H224.745C226.004 203.176 226.633 202.483 226.633 201.096C226.633 199.699 226.004 199 224.745 199H223.225V203.176ZM231.613 197.32H234.445L238.029 209H235.933L234.941 205.768H231.101L230.125 209H228.013L231.613 197.32ZM233.021 199.384L231.597 204.12H234.445L233.021 199.384ZM243.895 202.36C244.983 202.637 245.762 203.032 246.231 203.544C246.7 204.056 246.935 204.824 246.935 205.848C246.935 206.872 246.583 207.693 245.879 208.312C245.175 208.92 244.14 209.224 242.775 209.224C241.41 209.224 240.423 208.936 239.815 208.36C239.207 207.773 238.834 206.925 238.695 205.816L240.439 205.544C240.503 206.173 240.716 206.664 241.079 207.016C241.452 207.357 241.97 207.528 242.631 207.528C244.05 207.528 244.759 206.989 244.759 205.912C244.759 205.453 244.626 205.107 244.359 204.872C244.092 204.637 243.58 204.424 242.823 204.232L241.911 204.008C240.844 203.741 240.082 203.347 239.623 202.824C239.164 202.301 238.935 201.523 238.935 200.488C238.935 199.443 239.271 198.616 239.943 198.008C240.615 197.4 241.607 197.096 242.919 197.096C244.242 197.096 245.191 197.389 245.767 197.976C246.354 198.552 246.716 199.395 246.855 200.504L245.127 200.776C244.988 199.453 244.306 198.792 243.079 198.792C242.407 198.792 241.911 198.941 241.591 199.24C241.271 199.528 241.111 199.912 241.111 200.392C241.111 200.872 241.234 201.229 241.479 201.464C241.724 201.699 242.194 201.907 242.887 202.088L243.895 202.36ZM253.376 202.36C254.464 202.637 255.242 203.032 255.712 203.544C256.181 204.056 256.416 204.824 256.416 205.848C256.416 206.872 256.064 207.693 255.36 208.312C254.656 208.92 253.621 209.224 252.256 209.224C250.89 209.224 249.904 208.936 249.296 208.36C248.688 207.773 248.314 206.925 248.176 205.816L249.92 205.544C249.984 206.173 250.197 206.664 250.56 207.016C250.933 207.357 251.45 207.528 252.112 207.528C253.53 207.528 254.24 206.989 254.24 205.912C254.24 205.453 254.106 205.107 253.84 204.872C253.573 204.637 253.061 204.424 252.304 204.232L251.392 204.008C250.325 203.741 249.562 203.347 249.104 202.824C248.645 202.301 248.416 201.523 248.416 200.488C248.416 199.443 248.752 198.616 249.424 198.008C250.096 197.4 251.088 197.096 252.4 197.096C253.722 197.096 254.672 197.389 255.248 197.976C255.834 198.552 256.197 199.395 256.336 200.504L254.608 200.776C254.469 199.453 253.786 198.792 252.56 198.792C251.888 198.792 251.392 198.941 251.072 199.24C250.752 199.528 250.592 199.912 250.592 200.392C250.592 200.872 250.714 201.229 250.96 201.464C251.205 201.699 251.674 201.907 252.368 202.088L253.376 202.36ZM262.488 204.856H260.632V209H258.456V197.32H262.488C263.896 197.32 264.888 197.704 265.464 198.472C265.966 199.165 266.216 200.04 266.216 201.096C266.216 202.141 265.966 203.005 265.464 203.688C264.888 204.467 263.896 204.856 262.488 204.856ZM260.632 203.176H262.152C263.411 203.176 264.04 202.483 264.04 201.096C264.04 199.699 263.411 199 262.152 199H260.632V203.176ZM275.859 207.448C275.518 208.024 275.022 208.467 274.371 208.776C273.731 209.075 272.984 209.224 272.131 209.224C271.288 209.224 270.584 209.123 270.019 208.92C269.454 208.707 268.995 208.429 268.643 208.088C268.291 207.736 268.008 207.293 267.795 206.76C267.422 205.821 267.235 204.621 267.235 203.16C267.235 202.253 267.304 201.459 267.443 200.776C267.582 200.093 267.822 199.464 268.163 198.888C268.846 197.693 270.126 197.096 272.003 197.096C274.136 197.096 275.544 197.923 276.227 199.576C276.6 200.504 276.787 201.699 276.787 203.16C276.787 204.077 276.718 204.877 276.579 205.56C276.44 206.243 276.2 206.872 275.859 207.448ZM272.003 207.464C272.974 207.464 273.651 207.085 274.035 206.328C274.419 205.571 274.611 204.515 274.611 203.16C274.611 201.805 274.419 200.749 274.035 199.992C273.651 199.235 272.974 198.856 272.003 198.856C270.979 198.856 270.28 199.272 269.907 200.104C269.576 200.861 269.411 201.88 269.411 203.16C269.411 205.293 269.843 206.621 270.707 207.144C271.059 207.357 271.491 207.464 272.003 207.464ZM279.027 197.32H283.107C284.589 197.32 285.619 197.709 286.195 198.488C286.685 199.16 286.931 199.949 286.931 200.856C286.931 202.467 286.301 203.533 285.043 204.056C285.277 204.312 285.48 204.632 285.651 205.016L287.427 209H285.107L283.443 205.208C283.293 204.888 283.128 204.669 282.947 204.552C282.776 204.435 282.515 204.376 282.163 204.376H281.203V209H279.027V197.32ZM281.203 202.696H282.851C283.491 202.696 283.965 202.52 284.275 202.168C284.595 201.816 284.755 201.379 284.755 200.856C284.755 200.323 284.595 199.88 284.275 199.528C283.965 199.176 283.491 199 282.851 199H281.203V202.696ZM287.893 198.968V197.32H296.197V198.968H293.141V209H290.965V198.968H287.893ZM158.431 228V216.32H160.607V226.32H164.591V228H158.431ZM168.23 216.32H171.062L174.646 228H172.55L171.558 224.768H167.718L166.742 228H164.63L168.23 216.32ZM169.638 218.384L168.214 223.12H171.062L169.638 218.384ZM174.013 217.968V216.32H182.317V217.968H179.261V228H177.085V217.968H174.013ZM185.285 216.32H188.117L191.701 228H189.605L188.613 224.768H184.773L183.797 228H181.685L185.285 216.32ZM186.693 218.384L185.269 223.12H188.117L186.693 218.384ZM201.134 216.32H204.174L204.478 228H202.334L202.158 219.008L199.55 226.608H197.662L195.31 219.264L195.15 228H193.006L193.294 216.32H196.35L198.638 223.696L201.134 216.32ZM215.441 223.856H213.585V228H211.409V216.32H215.441C216.849 216.32 217.841 216.704 218.417 217.472C218.918 218.165 219.169 219.04 219.169 220.096C219.169 221.141 218.918 222.005 218.417 222.688C217.841 223.467 216.849 223.856 215.441 223.856ZM213.585 222.176H215.105C216.363 222.176 216.993 221.483 216.993 220.096C216.993 218.699 216.363 218 215.105 218H213.585V222.176ZM221.973 216.32H224.805L228.389 228H226.293L225.301 224.768H221.461L220.485 228H218.373L221.973 216.32ZM223.381 218.384L221.957 223.12H224.805L223.381 218.384ZM234.254 221.36C235.342 221.637 236.121 222.032 236.59 222.544C237.06 223.056 237.294 223.824 237.294 224.848C237.294 225.872 236.942 226.693 236.238 227.312C235.534 227.92 234.5 228.224 233.134 228.224C231.769 228.224 230.782 227.936 230.174 227.36C229.566 226.773 229.193 225.925 229.054 224.816L230.798 224.544C230.862 225.173 231.076 225.664 231.438 226.016C231.812 226.357 232.329 226.528 232.99 226.528C234.409 226.528 235.118 225.989 235.118 224.912C235.118 224.453 234.985 224.107 234.718 223.872C234.452 223.637 233.94 223.424 233.182 223.232L232.27 223.008C231.204 222.741 230.441 222.347 229.982 221.824C229.524 221.301 229.294 220.523 229.294 219.488C229.294 218.443 229.63 217.616 230.302 217.008C230.974 216.4 231.966 216.096 233.278 216.096C234.601 216.096 235.55 216.389 236.126 216.976C236.713 217.552 237.076 218.395 237.214 219.504L235.486 219.776C235.348 218.453 234.665 217.792 233.438 217.792C232.766 217.792 232.27 217.941 231.95 218.24C231.63 218.528 231.47 218.912 231.47 219.392C231.47 219.872 231.593 220.229 231.838 220.464C232.084 220.699 232.553 220.907 233.246 221.088L234.254 221.36ZM243.735 221.36C244.823 221.637 245.602 222.032 246.071 222.544C246.54 223.056 246.775 223.824 246.775 224.848C246.775 225.872 246.423 226.693 245.719 227.312C245.015 227.92 243.98 228.224 242.615 228.224C241.25 228.224 240.263 227.936 239.655 227.36C239.047 226.773 238.674 225.925 238.535 224.816L240.279 224.544C240.343 225.173 240.556 225.664 240.919 226.016C241.292 226.357 241.81 226.528 242.471 226.528C243.89 226.528 244.599 225.989 244.599 224.912C244.599 224.453 244.466 224.107 244.199 223.872C243.932 223.637 243.42 223.424 242.663 223.232L241.751 223.008C240.684 222.741 239.922 222.347 239.463 221.824C239.004 221.301 238.775 220.523 238.775 219.488C238.775 218.443 239.111 217.616 239.783 217.008C240.455 216.4 241.447 216.096 242.759 216.096C244.082 216.096 245.031 216.389 245.607 216.976C246.194 217.552 246.556 218.395 246.695 219.504L244.967 219.776C244.828 218.453 244.146 217.792 242.919 217.792C242.247 217.792 241.751 217.941 241.431 218.24C241.111 218.528 240.951 218.912 240.951 219.392C240.951 219.872 241.074 220.229 241.319 220.464C241.564 220.699 242.034 220.907 242.727 221.088L243.735 221.36ZM252.848 223.856H250.992V228H248.816V216.32H252.848C254.256 216.32 255.248 216.704 255.824 217.472C256.325 218.165 256.576 219.04 256.576 220.096C256.576 221.141 256.325 222.005 255.824 222.688C255.248 223.467 254.256 223.856 252.848 223.856ZM250.992 222.176H252.512C253.77 222.176 254.4 221.483 254.4 220.096C254.4 218.699 253.77 218 252.512 218H250.992V222.176ZM266.218 226.448C265.877 227.024 265.381 227.467 264.73 227.776C264.09 228.075 263.344 228.224 262.49 228.224C261.648 228.224 260.944 228.123 260.378 227.92C259.813 227.707 259.354 227.429 259.002 227.088C258.65 226.736 258.368 226.293 258.154 225.76C257.781 224.821 257.594 223.621 257.594 222.16C257.594 221.253 257.664 220.459 257.802 219.776C257.941 219.093 258.181 218.464 258.522 217.888C259.205 216.693 260.485 216.096 262.362 216.096C264.496 216.096 265.904 216.923 266.586 218.576C266.96 219.504 267.146 220.699 267.146 222.16C267.146 223.077 267.077 223.877 266.938 224.56C266.8 225.243 266.56 225.872 266.218 226.448ZM262.362 226.464C263.333 226.464 264.01 226.085 264.394 225.328C264.778 224.571 264.97 223.515 264.97 222.16C264.97 220.805 264.778 219.749 264.394 218.992C264.01 218.235 263.333 217.856 262.362 217.856C261.338 217.856 260.64 218.272 260.266 219.104C259.936 219.861 259.77 220.88 259.77 222.16C259.77 224.293 260.202 225.621 261.066 226.144C261.418 226.357 261.85 226.464 262.362 226.464ZM269.386 216.32H273.466C274.949 216.32 275.978 216.709 276.554 217.488C277.045 218.16 277.29 218.949 277.29 219.856C277.29 221.467 276.661 222.533 275.402 223.056C275.637 223.312 275.84 223.632 276.01 224.016L277.786 228H275.466L273.802 224.208C273.653 223.888 273.488 223.669 273.306 223.552C273.136 223.435 272.874 223.376 272.522 223.376H271.562V228H269.386V216.32ZM271.562 221.696H273.21C273.85 221.696 274.325 221.52 274.634 221.168C274.954 220.816 275.114 220.379 275.114 219.856C275.114 219.323 274.954 218.88 274.634 218.528C274.325 218.176 273.85 218 273.21 218H271.562V221.696ZM278.253 217.968V216.32H286.557V217.968H283.501V228H281.325V217.968H278.253ZM292.263 221.36C293.351 221.637 294.13 222.032 294.599 222.544C295.068 223.056 295.303 223.824 295.303 224.848C295.303 225.872 294.951 226.693 294.247 227.312C293.543 227.92 292.508 228.224 291.143 228.224C289.778 228.224 288.791 227.936 288.183 227.36C287.575 226.773 287.202 225.925 287.063 224.816L288.807 224.544C288.871 225.173 289.084 225.664 289.447 226.016C289.82 226.357 290.338 226.528 290.999 226.528C292.418 226.528 293.127 225.989 293.127 224.912C293.127 224.453 292.994 224.107 292.727 223.872C292.46 223.637 291.948 223.424 291.191 223.232L290.279 223.008C289.212 222.741 288.45 222.347 287.991 221.824C287.532 221.301 287.303 220.523 287.303 219.488C287.303 218.443 287.639 217.616 288.311 217.008C288.983 216.4 289.975 216.096 291.287 216.096C292.61 216.096 293.559 216.389 294.135 216.976C294.722 217.552 295.084 218.395 295.223 219.504L293.495 219.776C293.356 218.453 292.674 217.792 291.447 217.792C290.775 217.792 290.279 217.941 289.959 218.24C289.639 218.528 289.479 218.912 289.479 219.392C289.479 219.872 289.602 220.229 289.847 220.464C290.092 220.699 290.562 220.907 291.255 221.088L292.263 221.36Z" fill="#114550"/>
<path d="M52.343 434.32H54.519V442.144C54.519 442.859 54.4283 443.472 54.247 443.984C54.0657 444.496 53.8417 444.896 53.575 445.184C53.3083 445.461 52.967 445.685 52.551 445.856C52.135 446.016 51.7457 446.117 51.383 446.16C51.031 446.203 50.6203 446.224 50.151 446.224C49.6817 446.224 49.2657 446.203 48.903 446.16C48.551 446.117 48.167 446.016 47.751 445.856C47.335 445.685 46.9937 445.461 46.727 445.184C46.471 444.896 46.2523 444.496 46.071 443.984C45.8897 443.472 45.799 442.859 45.799 442.144V434.32H47.975V441.984C47.975 442.976 48.167 443.637 48.551 443.968C48.935 444.288 49.4683 444.448 50.151 444.448C50.4817 444.448 50.759 444.421 50.983 444.368C51.207 444.315 51.431 444.208 51.655 444.048C52.1137 443.717 52.343 443.029 52.343 441.984V434.32ZM61.529 439.36C62.617 439.637 63.3957 440.032 63.865 440.544C64.3343 441.056 64.569 441.824 64.569 442.848C64.569 443.872 64.217 444.693 63.513 445.312C62.809 445.92 61.7743 446.224 60.409 446.224C59.0437 446.224 58.057 445.936 57.449 445.36C56.841 444.773 56.4677 443.925 56.329 442.816L58.073 442.544C58.137 443.173 58.3503 443.664 58.713 444.016C59.0863 444.357 59.6037 444.528 60.265 444.528C61.6837 444.528 62.393 443.989 62.393 442.912C62.393 442.453 62.2597 442.107 61.993 441.872C61.7263 441.637 61.2143 441.424 60.457 441.232L59.545 441.008C58.4783 440.741 57.7157 440.347 57.257 439.824C56.7983 439.301 56.569 438.523 56.569 437.488C56.569 436.443 56.905 435.616 57.577 435.008C58.249 434.4 59.241 434.096 60.553 434.096C61.8757 434.096 62.825 434.389 63.401 434.976C63.9877 435.552 64.3503 436.395 64.489 437.504L62.761 437.776C62.6223 436.453 61.9397 435.792 60.713 435.792C60.041 435.792 59.545 435.941 59.225 436.24C58.905 436.528 58.745 436.912 58.745 437.392C58.745 437.872 58.8677 438.229 59.113 438.464C59.3583 438.699 59.8277 438.907 60.521 439.088L61.529 439.36ZM70.8559 434.32H74.9359C76.4185 434.32 77.4479 434.709 78.0239 435.488C78.5145 436.16 78.7599 436.949 78.7599 437.856C78.7599 439.467 78.1305 440.533 76.8719 441.056C77.1065 441.312 77.3092 441.632 77.4799 442.016L79.2559 446H76.9359L75.2719 442.208C75.1225 441.888 74.9572 441.669 74.7759 441.552C74.6052 441.435 74.3439 441.376 73.9919 441.376H73.0319V446H70.8559V434.32ZM73.0319 439.696H74.6799C75.3199 439.696 75.7945 439.52 76.1039 439.168C76.4239 438.816 76.5839 438.379 76.5839 437.856C76.5839 437.323 76.4239 436.88 76.1039 436.528C75.7945 436.176 75.3199 436 74.6799 436H73.0319V439.696ZM81.2584 434.32H87.8504V436H83.4344V439.232H87.4504V440.896H83.4344V444.32H88.1704V446H81.2584V434.32ZM94.4515 439.36C95.5395 439.637 96.3182 440.032 96.7875 440.544C97.2568 441.056 97.4915 441.824 97.4915 442.848C97.4915 443.872 97.1395 444.693 96.4355 445.312C95.7315 445.92 94.6968 446.224 93.3315 446.224C91.9662 446.224 90.9795 445.936 90.3715 445.36C89.7635 444.773 89.3902 443.925 89.2515 442.816L90.9955 442.544C91.0595 443.173 91.2728 443.664 91.6355 444.016C92.0088 444.357 92.5262 444.528 93.1875 444.528C94.6062 444.528 95.3155 443.989 95.3155 442.912C95.3155 442.453 95.1822 442.107 94.9155 441.872C94.6488 441.637 94.1368 441.424 93.3795 441.232L92.4675 441.008C91.4008 440.741 90.6382 440.347 90.1795 439.824C89.7208 439.301 89.4915 438.523 89.4915 437.488C89.4915 436.443 89.8275 435.616 90.4995 435.008C91.1715 434.4 92.1635 434.096 93.4755 434.096C94.7982 434.096 95.7475 434.389 96.3235 434.976C96.9102 435.552 97.2728 436.395 97.4115 437.504L95.6835 437.776C95.5448 436.453 94.8622 435.792 93.6355 435.792C92.9635 435.792 92.4675 435.941 92.1475 436.24C91.8275 436.528 91.6675 436.912 91.6675 437.392C91.6675 437.872 91.7902 438.229 92.0355 438.464C92.2808 438.699 92.7502 438.907 93.4435 439.088L94.4515 439.36ZM99.5321 434.32H101.708V446H99.5321V434.32ZM104.56 434.32H108.448C110.336 434.32 111.616 434.896 112.288 436.048C112.618 436.603 112.848 437.205 112.976 437.856C113.104 438.507 113.168 439.232 113.168 440.032C113.168 440.821 113.13 441.488 113.056 442.032C112.981 442.576 112.837 443.109 112.624 443.632C112.421 444.144 112.149 444.565 111.808 444.896C111.05 445.632 109.93 446 108.448 446H104.56V434.32ZM108.16 436H106.736V444.32H108.16C109.301 444.32 110.074 443.909 110.48 443.088C110.821 442.373 110.992 441.397 110.992 440.16C110.992 438.923 110.821 437.947 110.48 437.232C110.074 436.411 109.301 436 108.16 436ZM115.572 434.32H122.164V436H117.748V439.232H121.764V440.896H117.748V444.32H122.484V446H115.572V434.32ZM131.293 434.32H133.469V446H131.165L126.541 438.064V446H124.365V434.32H126.669L131.293 442.272V434.32ZM140.442 435.856C139.439 435.856 138.762 436.187 138.41 436.848C138.058 437.499 137.882 438.603 137.882 440.16C137.882 441.707 138.058 442.811 138.41 443.472C138.762 444.133 139.439 444.464 140.442 444.464C141.221 444.464 141.77 444.251 142.09 443.824C142.421 443.397 142.597 442.779 142.618 441.968L144.378 442.048C144.293 443.424 143.962 444.464 143.386 445.168C142.821 445.872 141.839 446.224 140.442 446.224C138.618 446.224 137.359 445.691 136.666 444.624C136.314 444.091 136.063 443.472 135.914 442.768C135.775 442.053 135.706 441.184 135.706 440.16C135.706 439.136 135.775 438.272 135.914 437.568C136.063 436.853 136.314 436.229 136.666 435.696C137.359 434.629 138.618 434.096 140.442 434.096C141.754 434.096 142.698 434.389 143.274 434.976C143.85 435.563 144.202 436.427 144.33 437.568L142.57 437.84C142.506 437.2 142.309 436.709 141.978 436.368C141.647 436.027 141.135 435.856 140.442 435.856ZM150.346 446H148.17V441.936L144.57 434.32H146.746L149.258 439.904L151.77 434.32H153.946L150.346 441.936V446ZM163.571 435.856C162.569 435.856 161.891 436.187 161.539 436.848C161.187 437.499 161.011 438.603 161.011 440.16C161.011 441.707 161.187 442.811 161.539 443.472C161.891 444.133 162.569 444.464 163.571 444.464C164.35 444.464 164.899 444.251 165.219 443.824C165.55 443.397 165.726 442.779 165.747 441.968L167.507 442.048C167.422 443.424 167.091 444.464 166.515 445.168C165.95 445.872 164.969 446.224 163.571 446.224C161.747 446.224 160.489 445.691 159.795 444.624C159.443 444.091 159.193 443.472 159.043 442.768C158.905 442.053 158.835 441.184 158.835 440.16C158.835 439.136 158.905 438.272 159.043 437.568C159.193 436.853 159.443 436.229 159.795 435.696C160.489 434.629 161.747 434.096 163.571 434.096C164.883 434.096 165.827 434.389 166.403 434.976C166.979 435.563 167.331 436.427 167.459 437.568L165.699 437.84C165.635 437.2 165.438 436.709 165.107 436.368C164.777 436.027 164.265 435.856 163.571 435.856ZM171.523 434.32H174.355L177.939 446H175.843L174.851 442.768H171.011L170.035 446H167.923L171.523 434.32ZM172.931 436.384L171.507 441.12H174.355L172.931 436.384ZM179.405 434.32H183.485C184.967 434.32 185.997 434.709 186.573 435.488C187.063 436.16 187.309 436.949 187.309 437.856C187.309 439.467 186.679 440.533 185.421 441.056C185.655 441.312 185.858 441.632 186.029 442.016L187.805 446H185.485L183.821 442.208C183.671 441.888 183.506 441.669 183.325 441.552C183.154 441.435 182.893 441.376 182.541 441.376H181.581V446H179.405V434.32ZM181.581 439.696H183.229C183.869 439.696 184.343 439.52 184.653 439.168C184.973 438.816 185.133 438.379 185.133 437.856C185.133 437.323 184.973 436.88 184.653 436.528C184.343 436.176 183.869 436 183.229 436H181.581V439.696ZM189.807 434.32H193.695C195.583 434.32 196.863 434.896 197.535 436.048C197.866 436.603 198.095 437.205 198.223 437.856C198.351 438.507 198.415 439.232 198.415 440.032C198.415 440.821 198.378 441.488 198.303 442.032C198.228 442.576 198.084 443.109 197.871 443.632C197.668 444.144 197.396 444.565 197.055 444.896C196.298 445.632 195.178 446 193.695 446H189.807V434.32ZM193.407 436H191.983V444.32H193.407C194.548 444.32 195.322 443.909 195.727 443.088C196.068 442.373 196.239 441.397 196.239 440.16C196.239 438.923 196.068 437.947 195.727 437.232C195.322 436.411 194.548 436 193.407 436ZM209.129 444.464C210.665 444.464 211.444 443.632 211.465 441.968V441.424H209.673V440.032H213.337V446H212.249L211.881 444.832C211.199 445.76 210.239 446.224 209.001 446.224C207.252 446.224 206.047 445.68 205.385 444.592C205.044 444.037 204.804 443.408 204.665 442.704C204.527 442 204.457 441.147 204.457 440.144C204.457 439.131 204.527 438.272 204.665 437.568C204.815 436.853 205.065 436.229 205.417 435.696C206.111 434.629 207.369 434.096 209.193 434.096C210.505 434.096 211.449 434.389 212.025 434.976C212.601 435.563 212.953 436.427 213.081 437.568L211.321 437.84C211.257 437.2 211.06 436.709 210.729 436.368C210.399 436.027 209.887 435.856 209.193 435.856C208.191 435.856 207.513 436.187 207.161 436.848C206.809 437.509 206.633 438.603 206.633 440.128C206.633 441.653 206.804 442.757 207.145 443.44C207.497 444.123 208.159 444.464 209.129 444.464ZM216.03 434.32H220.11C221.593 434.32 222.622 434.709 223.198 435.488C223.689 436.16 223.934 436.949 223.934 437.856C223.934 439.467 223.305 440.533 222.046 441.056C222.281 441.312 222.484 441.632 222.654 442.016L224.43 446H222.11L220.446 442.208C220.297 441.888 220.132 441.669 219.95 441.552C219.78 441.435 219.518 441.376 219.166 441.376H218.206V446H216.03V434.32ZM218.206 439.696H219.854C220.494 439.696 220.969 439.52 221.278 439.168C221.598 438.816 221.758 438.379 221.758 437.856C221.758 437.323 221.598 436.88 221.278 436.528C220.969 436.176 220.494 436 219.854 436H218.206V439.696ZM226.433 434.32H233.025V436H228.609V439.232H232.625V440.896H228.609V444.32H233.345V446H226.433V434.32ZM235.226 434.32H241.818V436H237.402V439.232H241.418V440.896H237.402V444.32H242.138V446H235.226V434.32ZM250.947 434.32H253.123V446H250.819L246.195 438.064V446H244.019V434.32H246.323L250.947 442.272V434.32ZM260.096 435.856C259.094 435.856 258.416 436.187 258.064 436.848C257.712 437.499 257.536 438.603 257.536 440.16C257.536 441.707 257.712 442.811 258.064 443.472C258.416 444.133 259.094 444.464 260.096 444.464C260.875 444.464 261.424 444.251 261.744 443.824C262.075 443.397 262.251 442.779 262.272 441.968L264.032 442.048C263.947 443.424 263.616 444.464 263.04 445.168C262.475 445.872 261.494 446.224 260.096 446.224C258.272 446.224 257.014 445.691 256.32 444.624C255.968 444.091 255.718 443.472 255.568 442.768C255.43 442.053 255.36 441.184 255.36 440.16C255.36 439.136 255.43 438.272 255.568 437.568C255.718 436.853 255.968 436.229 256.32 435.696C257.014 434.629 258.272 434.096 260.096 434.096C261.408 434.096 262.352 434.389 262.928 434.976C263.504 435.563 263.856 436.427 263.984 437.568L262.224 437.84C262.16 437.2 261.963 436.709 261.632 436.368C261.302 436.027 260.79 435.856 260.096 435.856ZM268.048 434.32H270.88L274.464 446H272.368L271.376 442.768H267.536L266.56 446H264.448L268.048 434.32ZM269.456 436.384L268.032 441.12H270.88L269.456 436.384ZM275.93 434.32H280.01C281.492 434.32 282.522 434.709 283.098 435.488C283.588 436.16 283.834 436.949 283.834 437.856C283.834 439.467 283.204 440.533 281.946 441.056C282.18 441.312 282.383 441.632 282.554 442.016L284.33 446H282.01L280.346 442.208C280.196 441.888 280.031 441.669 279.85 441.552C279.679 441.435 279.418 441.376 279.066 441.376H278.106V446H275.93V434.32ZM278.106 439.696H279.754C280.394 439.696 280.868 439.52 281.178 439.168C281.498 438.816 281.658 438.379 281.658 437.856C281.658 437.323 281.498 436.88 281.178 436.528C280.868 436.176 280.394 436 279.754 436H278.106V439.696ZM286.332 434.32H290.22C292.108 434.32 293.388 434.896 294.06 436.048C294.391 436.603 294.62 437.205 294.748 437.856C294.876 438.507 294.94 439.232 294.94 440.032C294.94 440.821 294.903 441.488 294.828 442.032C294.753 442.576 294.609 443.109 294.396 443.632C294.193 444.144 293.921 444.565 293.58 444.896C292.823 445.632 291.703 446 290.22 446H286.332V434.32ZM289.932 436H288.508V444.32H289.932C291.073 444.32 291.847 443.909 292.252 443.088C292.593 442.373 292.764 441.397 292.764 440.16C292.764 438.923 292.593 437.947 292.252 437.232C291.847 436.411 291.073 436 289.932 436Z" fill="#114550"/>
<path d="M169.891 262.32H172.931L173.235 274H171.091L170.915 265.008L168.307 272.608H166.419L164.067 265.264L163.907 274H161.763L162.051 262.32H165.107L167.395 269.696L169.891 262.32ZM175.92 262.32H182.512V264H178.096V267.232H182.112V268.896H178.096V272.32H182.832V274H175.92V262.32ZM183.289 262.32H185.769L188.393 266.368L190.825 262.32H193.113L189.545 268.144L193.353 274H190.873L188.105 269.744L185.593 274H183.321L186.969 267.984L183.289 262.32ZM194.506 262.32H196.682V274H194.506V262.32ZM203.661 263.856C202.659 263.856 201.981 264.187 201.629 264.848C201.277 265.499 201.101 266.603 201.101 268.16C201.101 269.707 201.277 270.811 201.629 271.472C201.981 272.133 202.659 272.464 203.661 272.464C204.44 272.464 204.989 272.251 205.309 271.824C205.64 271.397 205.816 270.779 205.837 269.968L207.597 270.048C207.512 271.424 207.181 272.464 206.605 273.168C206.04 273.872 205.059 274.224 203.661 274.224C201.837 274.224 200.579 273.691 199.885 272.624C199.533 272.091 199.283 271.472 199.133 270.768C198.995 270.053 198.925 269.184 198.925 268.16C198.925 267.136 198.995 266.272 199.133 265.568C199.283 264.853 199.533 264.229 199.885 263.696C200.579 262.629 201.837 262.096 203.661 262.096C204.973 262.096 205.917 262.389 206.493 262.976C207.069 263.563 207.421 264.427 207.549 265.568L205.789 265.84C205.725 265.2 205.528 264.709 205.197 264.368C204.867 264.027 204.355 263.856 203.661 263.856ZM211.613 262.32H214.445L218.029 274H215.933L214.941 270.768H211.101L210.125 274H208.013L211.613 262.32ZM213.021 264.384L211.597 269.12H214.445L213.021 264.384ZM226.423 262.32H228.599V274H226.295L221.671 266.064V274H219.495V262.32H221.799L226.423 270.272V262.32ZM235.69 262.32H237.866V274H235.69V262.32ZM247.646 262.32H249.822V274H247.518L242.894 266.064V274H240.718V262.32H243.022L247.646 270.272V262.32ZM252.667 262.32H259.259V264H254.843V267.232H258.859V268.896H254.843V272.32H259.579V274H252.667V262.32ZM264.074 275.696L267.866 261.6H270.026L266.234 275.696H264.074ZM275.496 262.32H277.672V274H275.496V262.32ZM280.523 262.32H286.795V264H282.699V267.232H286.267V268.896H282.699V274H280.523V262.32ZM288.551 262.32H295.143V264H290.727V267.232H294.743V268.896H290.727V272.32H295.463V274H288.551V262.32Z" fill="#114550"/>
<path d="M148.091 318.32H150.267V326.144C150.267 326.859 150.176 327.472 149.995 327.984C149.813 328.496 149.589 328.896 149.323 329.184C149.056 329.461 148.715 329.685 148.299 329.856C147.883 330.016 147.493 330.117 147.131 330.16C146.779 330.203 146.368 330.224 145.899 330.224C145.429 330.224 145.013 330.203 144.651 330.16C144.299 330.117 143.915 330.016 143.499 329.856C143.083 329.685 142.741 329.461 142.475 329.184C142.219 328.896 142 328.496 141.819 327.984C141.637 327.472 141.547 326.859 141.547 326.144V318.32H143.723V325.984C143.723 326.976 143.915 327.637 144.299 327.968C144.683 328.288 145.216 328.448 145.899 328.448C146.229 328.448 146.507 328.421 146.731 328.368C146.955 328.315 147.179 328.208 147.403 328.048C147.861 327.717 148.091 327.029 148.091 325.984V318.32ZM157.276 323.36C158.364 323.637 159.143 324.032 159.612 324.544C160.082 325.056 160.316 325.824 160.316 326.848C160.316 327.872 159.964 328.693 159.26 329.312C158.556 329.92 157.522 330.224 156.156 330.224C154.791 330.224 153.804 329.936 153.196 329.36C152.588 328.773 152.215 327.925 152.076 326.816L153.82 326.544C153.884 327.173 154.098 327.664 154.46 328.016C154.834 328.357 155.351 328.528 156.012 328.528C157.431 328.528 158.14 327.989 158.14 326.912C158.14 326.453 158.007 326.107 157.74 325.872C157.474 325.637 156.962 325.424 156.204 325.232L155.292 325.008C154.226 324.741 153.463 324.347 153.004 323.824C152.546 323.301 152.316 322.523 152.316 321.488C152.316 320.443 152.652 319.616 153.324 319.008C153.996 318.4 154.988 318.096 156.3 318.096C157.623 318.096 158.572 318.389 159.148 318.976C159.735 319.552 160.098 320.395 160.236 321.504L158.508 321.776C158.37 320.453 157.687 319.792 156.46 319.792C155.788 319.792 155.292 319.941 154.972 320.24C154.652 320.528 154.492 320.912 154.492 321.392C154.492 321.872 154.615 322.229 154.86 322.464C155.106 322.699 155.575 322.907 156.268 323.088L157.276 323.36ZM166.603 318.32H170.491C172.379 318.32 173.659 318.896 174.331 320.048C174.662 320.603 174.891 321.205 175.019 321.856C175.147 322.507 175.211 323.232 175.211 324.032C175.211 324.821 175.174 325.488 175.099 326.032C175.025 326.576 174.881 327.109 174.667 327.632C174.465 328.144 174.193 328.565 173.851 328.896C173.094 329.632 171.974 330 170.491 330H166.603V318.32ZM170.203 320H168.779V328.32H170.203C171.345 328.32 172.118 327.909 172.523 327.088C172.865 326.373 173.035 325.397 173.035 324.16C173.035 322.923 172.865 321.947 172.523 321.232C172.118 320.411 171.345 320 170.203 320ZM177.615 318.32H181.695C183.178 318.32 184.207 318.709 184.783 319.488C185.274 320.16 185.519 320.949 185.519 321.856C185.519 323.467 184.89 324.533 183.631 325.056C183.866 325.312 184.069 325.632 184.239 326.016L186.015 330H183.695L182.031 326.208C181.882 325.888 181.717 325.669 181.535 325.552C181.365 325.435 181.103 325.376 180.751 325.376H179.791V330H177.615V318.32ZM179.791 323.696H181.439C182.079 323.696 182.554 323.52 182.863 323.168C183.183 322.816 183.343 322.379 183.343 321.856C183.343 321.323 183.183 320.88 182.863 320.528C182.554 320.176 182.079 320 181.439 320H179.791V323.696ZM188.018 318.32H190.194V330H188.018V318.32ZM197.973 330H195.157L191.701 318.32H193.877L196.565 327.888L199.253 318.32H201.445L197.973 330ZM202.948 318.32H209.54V320H205.124V323.232H209.14V324.896H205.124V328.32H209.86V330H202.948V318.32ZM211.741 318.32H215.821C217.304 318.32 218.333 318.709 218.909 319.488C219.4 320.16 219.645 320.949 219.645 321.856C219.645 323.467 219.016 324.533 217.757 325.056C217.992 325.312 218.194 325.632 218.365 326.016L220.141 330H217.821L216.157 326.208C216.008 325.888 215.842 325.669 215.661 325.552C215.49 325.435 215.229 325.376 214.877 325.376H213.917V330H211.741V318.32ZM213.917 323.696H215.565C216.205 323.696 216.68 323.52 216.989 323.168C217.309 322.816 217.469 322.379 217.469 321.856C217.469 321.323 217.309 320.88 216.989 320.528C216.68 320.176 216.205 320 215.565 320H213.917V323.696ZM226.543 323.36C227.631 323.637 228.41 324.032 228.879 324.544C229.349 325.056 229.583 325.824 229.583 326.848C229.583 327.872 229.231 328.693 228.527 329.312C227.823 329.92 226.789 330.224 225.423 330.224C224.058 330.224 223.071 329.936 222.463 329.36C221.855 328.773 221.482 327.925 221.343 326.816L223.087 326.544C223.151 327.173 223.365 327.664 223.727 328.016C224.101 328.357 224.618 328.528 225.279 328.528C226.698 328.528 227.407 327.989 227.407 326.912C227.407 326.453 227.274 326.107 227.007 325.872C226.741 325.637 226.229 325.424 225.471 325.232L224.559 325.008C223.493 324.741 222.73 324.347 222.271 323.824C221.813 323.301 221.583 322.523 221.583 321.488C221.583 320.443 221.919 319.616 222.591 319.008C223.263 318.4 224.255 318.096 225.567 318.096C226.89 318.096 227.839 318.389 228.415 318.976C229.002 319.552 229.365 320.395 229.503 321.504L227.775 321.776C227.637 320.453 226.954 319.792 225.727 319.792C225.055 319.792 224.559 319.941 224.239 320.24C223.919 320.528 223.759 320.912 223.759 321.392C223.759 321.872 223.882 322.229 224.127 322.464C224.373 322.699 224.842 322.907 225.535 323.088L226.543 323.36ZM235.87 330V318.32H238.046V328.32H242.03V330H235.87ZM243.445 318.32H245.621V330H243.445V318.32ZM252.6 319.856C251.597 319.856 250.92 320.187 250.568 320.848C250.216 321.499 250.04 322.603 250.04 324.16C250.04 325.707 250.216 326.811 250.568 327.472C250.92 328.133 251.597 328.464 252.6 328.464C253.379 328.464 253.928 328.251 254.248 327.824C254.579 327.397 254.755 326.779 254.776 325.968L256.536 326.048C256.451 327.424 256.12 328.464 255.544 329.168C254.979 329.872 253.997 330.224 252.6 330.224C250.776 330.224 249.517 329.691 248.824 328.624C248.472 328.091 248.221 327.472 248.072 326.768C247.933 326.053 247.864 325.184 247.864 324.16C247.864 323.136 247.933 322.272 248.072 321.568C248.221 320.853 248.472 320.229 248.824 319.696C249.517 318.629 250.776 318.096 252.6 318.096C253.912 318.096 254.856 318.389 255.432 318.976C256.008 319.563 256.36 320.427 256.488 321.568L254.728 321.84C254.664 321.2 254.467 320.709 254.136 320.368C253.805 320.027 253.293 319.856 252.6 319.856ZM258.328 318.32H264.92V320H260.504V323.232H264.52V324.896H260.504V328.32H265.24V330H258.328V318.32ZM274.049 318.32H276.225V330H273.921L269.297 322.064V330H267.121V318.32H269.425L274.049 326.272V318.32ZM283.47 323.36C284.558 323.637 285.337 324.032 285.806 324.544C286.276 325.056 286.51 325.824 286.51 326.848C286.51 327.872 286.158 328.693 285.454 329.312C284.75 329.92 283.716 330.224 282.35 330.224C280.985 330.224 279.998 329.936 279.39 329.36C278.782 328.773 278.409 327.925 278.27 326.816L280.014 326.544C280.078 327.173 280.292 327.664 280.654 328.016C281.028 328.357 281.545 328.528 282.206 328.528C283.625 328.528 284.334 327.989 284.334 326.912C284.334 326.453 284.201 326.107 283.934 325.872C283.668 325.637 283.156 325.424 282.398 325.232L281.486 325.008C280.42 324.741 279.657 324.347 279.198 323.824C278.74 323.301 278.51 322.523 278.51 321.488C278.51 320.443 278.846 319.616 279.518 319.008C280.19 318.4 281.182 318.096 282.494 318.096C283.817 318.096 284.766 318.389 285.342 318.976C285.929 319.552 286.292 320.395 286.43 321.504L284.702 321.776C284.564 320.453 283.881 319.792 282.654 319.792C281.982 319.792 281.486 319.941 281.166 320.24C280.846 320.528 280.686 320.912 280.686 321.392C280.686 321.872 280.809 322.229 281.054 322.464C281.3 322.699 281.769 322.907 282.462 323.088L283.47 323.36ZM288.551 318.32H295.143V320H290.727V323.232H294.743V324.896H290.727V328.32H295.463V330H288.551V318.32Z" fill="#114550"/>
<path d="M215.142 375.32H217.318V383.144C217.318 383.859 217.228 384.472 217.046 384.984C216.865 385.496 216.641 385.896 216.374 386.184C216.108 386.461 215.766 386.685 215.35 386.856C214.934 387.016 214.545 387.117 214.182 387.16C213.83 387.203 213.42 387.224 212.95 387.224C212.481 387.224 212.065 387.203 211.702 387.16C211.35 387.117 210.966 387.016 210.55 386.856C210.134 386.685 209.793 386.461 209.526 386.184C209.27 385.896 209.052 385.496 208.87 384.984C208.689 384.472 208.598 383.859 208.598 383.144V375.32H210.774V382.984C210.774 383.976 210.966 384.637 211.35 384.968C211.734 385.288 212.268 385.448 212.95 385.448C213.281 385.448 213.558 385.421 213.782 385.368C214.006 385.315 214.23 385.208 214.454 385.048C214.913 384.717 215.142 384.029 215.142 382.984V375.32ZM224.328 380.36C225.416 380.637 226.195 381.032 226.664 381.544C227.134 382.056 227.368 382.824 227.368 383.848C227.368 384.872 227.016 385.693 226.312 386.312C225.608 386.92 224.574 387.224 223.208 387.224C221.843 387.224 220.856 386.936 220.248 386.36C219.64 385.773 219.267 384.925 219.128 383.816L220.872 383.544C220.936 384.173 221.15 384.664 221.512 385.016C221.886 385.357 222.403 385.528 223.064 385.528C224.483 385.528 225.192 384.989 225.192 383.912C225.192 383.453 225.059 383.107 224.792 382.872C224.526 382.637 224.014 382.424 223.256 382.232L222.344 382.008C221.278 381.741 220.515 381.347 220.056 380.824C219.598 380.301 219.368 379.523 219.368 378.488C219.368 377.443 219.704 376.616 220.376 376.008C221.048 375.4 222.04 375.096 223.352 375.096C224.675 375.096 225.624 375.389 226.2 375.976C226.787 376.552 227.15 377.395 227.288 378.504L225.56 378.776C225.422 377.453 224.739 376.792 223.512 376.792C222.84 376.792 222.344 376.941 222.024 377.24C221.704 377.528 221.544 377.912 221.544 378.392C221.544 378.872 221.667 379.229 221.912 379.464C222.158 379.699 222.627 379.907 223.32 380.088L224.328 380.36ZM238.055 380.36C239.143 380.637 239.922 381.032 240.391 381.544C240.861 382.056 241.095 382.824 241.095 383.848C241.095 384.872 240.743 385.693 240.039 386.312C239.335 386.92 238.301 387.224 236.935 387.224C235.57 387.224 234.583 386.936 233.975 386.36C233.367 385.773 232.994 384.925 232.855 383.816L234.599 383.544C234.663 384.173 234.877 384.664 235.239 385.016C235.613 385.357 236.13 385.528 236.791 385.528C238.21 385.528 238.919 384.989 238.919 383.912C238.919 383.453 238.786 383.107 238.519 382.872C238.253 382.637 237.741 382.424 236.983 382.232L236.071 382.008C235.005 381.741 234.242 381.347 233.783 380.824C233.325 380.301 233.095 379.523 233.095 378.488C233.095 377.443 233.431 376.616 234.103 376.008C234.775 375.4 235.767 375.096 237.079 375.096C238.402 375.096 239.351 375.389 239.927 375.976C240.514 376.552 240.877 377.395 241.015 378.504L239.287 378.776C239.149 377.453 238.466 376.792 237.239 376.792C236.567 376.792 236.071 376.941 235.751 377.24C235.431 377.528 235.271 377.912 235.271 378.392C235.271 378.872 235.394 379.229 235.639 379.464C235.885 379.699 236.354 379.907 237.047 380.088L238.055 380.36ZM241.6 376.968V375.32H249.904V376.968H246.848V387H244.672V376.968H241.6ZM252.872 375.32H255.704L259.288 387H257.192L256.2 383.768H252.36L251.384 387H249.272L252.872 375.32ZM254.28 377.384L252.856 382.12H255.704L254.28 377.384ZM258.655 376.968V375.32H266.959V376.968H263.903V387H261.727V376.968H258.655ZM268.265 375.32H274.857V377H270.441V380.232H274.457V381.896H270.441V385.32H275.177V387H268.265V375.32ZM281.305 375.32H283.481V387H281.305V375.32ZM286.332 375.32H290.22C292.108 375.32 293.388 375.896 294.06 377.048C294.391 377.603 294.62 378.205 294.748 378.856C294.876 379.507 294.94 380.232 294.94 381.032C294.94 381.821 294.903 382.488 294.828 383.032C294.753 383.576 294.609 384.109 294.396 384.632C294.193 385.144 293.921 385.565 293.58 385.896C292.823 386.632 291.703 387 290.22 387H286.332V375.32ZM289.932 377H288.508V385.32H289.932C291.073 385.32 291.847 384.909 292.252 384.088C292.593 383.373 292.764 382.397 292.764 381.16C292.764 379.923 292.593 378.947 292.252 378.232C291.847 377.411 291.073 377 289.932 377Z" fill="#114550"/>
</svg>
