<svg width="306" height="244" viewBox="0 0 306 244" fill="none" xmlns="http://www.w3.org/2000/svg">
<path d="M46.9998 42.4385C47.5872 42.5883 48.0076 42.8014 48.261 43.0778C48.5143 43.3542 48.641 43.7688 48.641 44.3217C48.641 44.8745 48.451 45.318 48.0709 45.652C47.6908 45.9802 47.1322 46.1444 46.3951 46.1444C45.6579 46.1444 45.1253 45.9889 44.797 45.6779C44.4687 45.3612 44.2672 44.9033 44.1923 44.3044L45.1339 44.1576C45.1684 44.4973 45.2836 44.7622 45.4794 44.9523C45.681 45.1366 45.9603 45.2287 46.3173 45.2287C47.0833 45.2287 47.4662 44.9379 47.4662 44.3562C47.4662 44.1086 47.3942 43.9215 47.2503 43.7948C47.1063 43.6681 46.8299 43.5529 46.421 43.4492L45.9286 43.3283C45.3527 43.1843 44.941 42.9712 44.6933 42.6891C44.4457 42.4069 44.3219 41.9865 44.3219 41.4279C44.3219 40.8635 44.5033 40.4172 44.8661 40.0889C45.2289 39.7607 45.7645 39.5966 46.4728 39.5966C47.1869 39.5966 47.6995 39.7549 48.0104 40.0717C48.3272 40.3826 48.523 40.8376 48.5978 41.4365L47.6649 41.5834C47.59 40.8693 47.2215 40.5122 46.5592 40.5122C46.1964 40.5122 45.9286 40.5928 45.7558 40.7541C45.5831 40.9096 45.4967 41.1169 45.4967 41.376C45.4967 41.6352 45.5629 41.8281 45.6954 41.9548C45.8278 42.0815 46.0812 42.1938 46.4555 42.2917L46.9998 42.4385ZM54.0705 45.1855C53.8863 45.4965 53.6185 45.7355 53.2672 45.9025C52.9216 46.0637 52.5185 46.1444 52.0578 46.1444C51.6029 46.1444 51.2228 46.0897 50.9176 45.9802C50.6123 45.8651 50.3647 45.7153 50.1747 45.5311C49.9846 45.341 49.832 45.102 49.7168 44.8141C49.5153 44.3073 49.4145 43.6594 49.4145 42.8705C49.4145 42.381 49.4519 41.9519 49.5268 41.5834C49.6017 41.2148 49.7312 40.875 49.9155 40.564C50.2841 39.919 50.9751 39.5966 51.9887 39.5966C53.1405 39.5966 53.9006 40.0429 54.2692 40.9355C54.4708 41.4365 54.5716 42.0815 54.5716 42.8705C54.5716 43.3657 54.5341 43.7976 54.4593 44.1662C54.3844 44.5348 54.2548 44.8745 54.0705 45.1855ZM51.9887 45.1942C52.5128 45.1942 52.8785 44.9897 53.0858 44.5808C53.2931 44.172 53.3967 43.6018 53.3967 42.8705C53.3967 42.1391 53.2931 41.569 53.0858 41.1601C52.8785 40.7512 52.5128 40.5468 51.9887 40.5468C51.4359 40.5468 51.0587 40.7714 50.8571 41.2206C50.6786 41.6294 50.5893 42.1794 50.5893 42.8705C50.5893 44.0222 50.8225 44.7392 51.289 45.0214C51.4791 45.1366 51.7123 45.1942 51.9887 45.1942ZM58.0095 40.5468C57.4681 40.5468 57.1024 40.7253 56.9124 41.0823C56.7224 41.4336 56.6273 42.0297 56.6273 42.8705C56.6273 43.7055 56.7224 44.3015 56.9124 44.6586C57.1024 45.0156 57.4681 45.1942 58.0095 45.1942C58.4299 45.1942 58.7264 45.079 58.8992 44.8486C59.0777 44.6183 59.1727 44.2843 59.1843 43.8466L60.1345 43.8898C60.0884 44.6327 59.9099 45.1942 59.5989 45.5742C59.2937 45.9543 58.7639 46.1444 58.0095 46.1444C57.0247 46.1444 56.3451 45.8564 55.9708 45.2805C55.7808 44.9926 55.6454 44.6586 55.5648 44.2785C55.49 43.8927 55.4525 43.4233 55.4525 42.8705C55.4525 42.3176 55.49 41.8511 55.5648 41.4711C55.6454 41.0852 55.7808 40.7483 55.9708 40.4604C56.3451 39.8845 57.0247 39.5966 58.0095 39.5966C58.7178 39.5966 59.2275 39.7549 59.5384 40.0717C59.8494 40.3884 60.0395 40.8549 60.1086 41.4711L59.1583 41.6179C59.1238 41.2724 59.0173 41.0075 58.8387 40.8232C58.6602 40.6389 58.3838 40.5468 58.0095 40.5468ZM61.1018 39.7175H62.2766V46.0234H61.1018V39.7175ZM65.0168 39.7175H66.5458L68.4807 46.0234H67.3491L66.8136 44.2785H64.7404L64.2134 46.0234H63.0732L65.0168 39.7175ZM65.777 40.8318L65.0082 43.3888H66.5458L65.777 40.8318ZM69.272 46.0234V39.7175H70.4468V45.1164H72.5978V46.0234H69.272ZM78.0294 42.4385C78.6168 42.5883 79.0372 42.8014 79.2906 43.0778C79.544 43.3542 79.6707 43.7688 79.6707 44.3217C79.6707 44.8745 79.4807 45.318 79.1006 45.652C78.7205 45.9802 78.1619 46.1444 77.4248 46.1444C76.6876 46.1444 76.1549 45.9889 75.8267 45.6779C75.4984 45.3612 75.2969 44.9033 75.222 44.3044L76.1636 44.1576C76.1981 44.4973 76.3133 44.7622 76.5091 44.9523C76.7107 45.1366 76.99 45.2287 77.347 45.2287C78.1129 45.2287 78.4959 44.9379 78.4959 44.3562C78.4959 44.1086 78.4239 43.9215 78.2799 43.7948C78.136 43.6681 77.8595 43.5529 77.4507 43.4492L76.9583 43.3283C76.3824 43.1843 75.9706 42.9712 75.723 42.6891C75.4754 42.4069 75.3516 41.9865 75.3516 41.4279C75.3516 40.8635 75.533 40.4172 75.8958 40.0889C76.2586 39.7607 76.7942 39.5966 77.5025 39.5966C78.2166 39.5966 78.7291 39.7549 79.0401 40.0717C79.3568 40.3826 79.5526 40.8376 79.6275 41.4365L78.6946 41.5834C78.6197 40.8693 78.2511 40.5122 77.5889 40.5122C77.2261 40.5122 76.9583 40.5928 76.7855 40.7541C76.6128 40.9096 76.5264 41.1169 76.5264 41.376C76.5264 41.6352 76.5926 41.8281 76.7251 41.9548C76.8575 42.0815 77.1109 42.1938 77.4852 42.2917L78.0294 42.4385ZM80.7724 39.7175H84.3314V40.6245H81.9472V42.3694H84.1154V43.2678H81.9472V45.1164H84.5042V46.0234H80.7724V39.7175ZM87.7484 40.5468C87.2071 40.5468 86.8414 40.7253 86.6514 41.0823C86.4613 41.4336 86.3663 42.0297 86.3663 42.8705C86.3663 43.7055 86.4613 44.3015 86.6514 44.6586C86.8414 45.0156 87.2071 45.1942 87.7484 45.1942C88.1688 45.1942 88.4654 45.079 88.6382 44.8486C88.8167 44.6183 88.9117 44.2843 88.9232 43.8466L89.8735 43.8898C89.8274 44.6327 89.6489 45.1942 89.3379 45.5742C89.0327 45.9543 88.5029 46.1444 87.7484 46.1444C86.7637 46.1444 86.0841 45.8564 85.7098 45.2805C85.5198 44.9926 85.3844 44.6586 85.3038 44.2785C85.2289 43.8927 85.1915 43.4233 85.1915 42.8705C85.1915 42.3176 85.2289 41.8511 85.3038 41.4711C85.3844 41.0852 85.5198 40.7483 85.7098 40.4604C86.0841 39.8845 86.7637 39.5966 87.7484 39.5966C88.4568 39.5966 88.9664 39.7549 89.2774 40.0717C89.5884 40.3884 89.7784 40.8549 89.8475 41.4711L88.8973 41.6179C88.8628 41.2724 88.7562 41.0075 88.5777 40.8232C88.3992 40.6389 88.1228 40.5468 87.7484 40.5468ZM94.2442 39.7175H95.419V43.9416C95.419 44.3275 95.3701 44.6586 95.2722 44.935C95.1743 45.2114 95.0534 45.4274 94.9094 45.5829C94.7654 45.7326 94.5811 45.8536 94.3565 45.9457C94.1319 46.0321 93.9217 46.0868 93.7259 46.1098C93.5359 46.1329 93.3142 46.1444 93.0608 46.1444C92.8074 46.1444 92.5828 46.1329 92.387 46.1098C92.197 46.0868 91.9896 46.0321 91.765 45.9457C91.5404 45.8536 91.3562 45.7326 91.2122 45.5829C91.074 45.4274 90.9559 45.2114 90.858 44.935C90.7601 44.6586 90.7112 44.3275 90.7112 43.9416V39.7175H91.886V43.8552C91.886 44.3908 91.9896 44.7479 92.197 44.9264C92.4043 45.0991 92.6922 45.1855 93.0608 45.1855C93.2393 45.1855 93.389 45.1711 93.51 45.1423C93.6309 45.1135 93.7518 45.0559 93.8728 44.9696C94.1204 44.791 94.2442 44.4196 94.2442 43.8552V39.7175ZM96.8282 39.7175H99.0309C99.8314 39.7175 100.387 39.9277 100.698 40.3481C100.963 40.7109 101.095 41.137 101.095 41.6266C101.095 42.4961 100.756 43.072 100.076 43.3542C100.203 43.4924 100.312 43.6652 100.404 43.8725L101.363 46.0234H100.111L99.2123 43.9762C99.1317 43.8034 99.0424 43.6853 98.9445 43.622C98.8524 43.5586 98.7113 43.527 98.5213 43.527H98.003V46.0234H96.8282V39.7175ZM98.003 42.62H98.8927C99.2382 42.62 99.4945 42.5249 99.6615 42.3349C99.8343 42.1448 99.9207 41.9087 99.9207 41.6266C99.9207 41.3386 99.8343 41.0996 99.6615 40.9096C99.4945 40.7195 99.2382 40.6245 98.8927 40.6245H98.003V42.62ZM102.444 39.7175H103.619V46.0234H102.444V39.7175ZM104.329 40.6072V39.7175H108.813V40.6072H107.163V46.0234H105.988V40.6072H104.329ZM111.773 46.0234H110.598V43.8293L108.654 39.7175H109.829L111.185 42.7323L112.541 39.7175H113.716L111.773 43.8293V46.0234ZM120.425 39.7175H121.6V46.0234H120.356L117.859 41.7388V46.0234H116.684V39.7175H117.928L120.425 44.0107V39.7175ZM126.539 39.7175H127.714V43.9416C127.714 44.3275 127.665 44.6586 127.567 44.935C127.469 45.2114 127.348 45.4274 127.204 45.5829C127.06 45.7326 126.876 45.8536 126.652 45.9457C126.427 46.0321 126.217 46.0868 126.021 46.1098C125.831 46.1329 125.609 46.1444 125.356 46.1444C125.102 46.1444 124.878 46.1329 124.682 46.1098C124.492 46.0868 124.285 46.0321 124.06 45.9457C123.835 45.8536 123.651 45.7326 123.507 45.5829C123.369 45.4274 123.251 45.2114 123.153 44.935C123.055 44.6586 123.006 44.3275 123.006 43.9416V39.7175H124.181V43.8552C124.181 44.3908 124.285 44.7479 124.492 44.9264C124.699 45.0991 124.987 45.1855 125.356 45.1855C125.534 45.1855 125.684 45.1711 125.805 45.1423C125.926 45.1135 126.047 45.0559 126.168 44.9696C126.415 44.791 126.539 44.4196 126.539 43.8552V39.7175ZM133.425 39.7175H135.066L135.23 46.0234H134.073L133.978 41.1687L132.57 45.2719H131.551L130.281 41.3069L130.194 46.0234H129.037L129.192 39.7175H130.842L132.077 43.6997L133.425 39.7175ZM138.96 46.0234H136.68V39.7175H138.666C139.444 39.7175 139.985 39.8903 140.29 40.2358C140.561 40.5468 140.696 40.9125 140.696 41.3328C140.696 42.0527 140.388 42.5307 139.772 42.7668C140.187 42.882 140.489 43.0835 140.679 43.3715C140.875 43.6594 140.973 43.9819 140.973 44.339C140.973 44.7824 140.838 45.1625 140.567 45.4792C140.429 45.6462 140.221 45.7787 139.945 45.8766C139.669 45.9745 139.34 46.0234 138.96 46.0234ZM137.854 45.1164H138.891C139.191 45.1164 139.415 45.0329 139.565 44.8659C139.72 44.6989 139.798 44.4714 139.798 44.1835C139.798 43.8955 139.72 43.6681 139.565 43.5011C139.415 43.3341 139.191 43.2505 138.891 43.2505H137.854V45.1164ZM137.854 42.3522H138.649C138.926 42.3522 139.139 42.2773 139.288 42.1276C139.444 41.9721 139.522 41.7619 139.522 41.497C139.522 41.2263 139.444 41.0132 139.288 40.8577C139.139 40.7023 138.926 40.6245 138.649 40.6245H137.854V42.3522ZM141.992 39.7175H145.551V40.6245H143.167V42.3694H145.335V43.2678H143.167V45.1164H145.724V46.0234H141.992V39.7175ZM146.74 39.7175H148.942C149.743 39.7175 150.299 39.9277 150.61 40.3481C150.874 40.7109 151.007 41.137 151.007 41.6266C151.007 42.4961 150.667 43.072 149.988 43.3542C150.114 43.4924 150.224 43.6652 150.316 43.8725L151.275 46.0234H150.022L149.124 43.9762C149.043 43.8034 148.954 43.6853 148.856 43.622C148.764 43.5586 148.623 43.527 148.433 43.527H147.914V46.0234H146.74V39.7175ZM147.914 42.62H148.804C149.15 42.62 149.406 42.5249 149.573 42.3349C149.746 42.1448 149.832 41.9087 149.832 41.6266C149.832 41.3386 149.746 41.0996 149.573 40.9096C149.406 40.7195 149.15 40.6245 148.804 40.6245H147.914V42.62Z" fill="#114550"/>
<path d="M99.5546 71.3202C99.0132 71.3202 98.6475 71.4987 98.4575 71.8558C98.2674 72.2071 98.1724 72.8031 98.1724 73.6439C98.1724 74.4789 98.2674 75.075 98.4575 75.432C98.6475 75.7891 99.0132 75.9676 99.5546 75.9676C99.975 75.9676 100.272 75.8524 100.444 75.6221C100.623 75.3917 100.718 75.0577 100.729 74.62L101.68 74.6632C101.634 75.4061 101.455 75.9676 101.144 76.3477C100.839 76.7278 100.309 76.9178 99.5546 76.9178C98.5698 76.9178 97.8902 76.6299 97.5159 76.054C97.3259 75.766 97.1905 75.432 97.1099 75.0519C97.0351 74.6661 96.9976 74.1968 96.9976 73.6439C96.9976 73.0911 97.0351 72.6246 97.1099 72.2445C97.1905 71.8587 97.3259 71.5218 97.5159 71.2338C97.8902 70.6579 98.5698 70.37 99.5546 70.37C100.263 70.37 100.773 70.5284 101.084 70.8451C101.395 71.1618 101.585 71.6283 101.654 72.2445L100.703 72.3913C100.669 72.0458 100.562 71.7809 100.384 71.5966C100.205 71.4123 99.9289 71.3202 99.5546 71.3202ZM106.975 75.959C106.79 76.2699 106.523 76.5089 106.171 76.6759C105.826 76.8372 105.423 76.9178 104.962 76.9178C104.507 76.9178 104.127 76.8631 103.822 76.7537C103.516 76.6385 103.269 76.4888 103.079 76.3045C102.889 76.1145 102.736 75.8755 102.621 75.5875C102.419 75.0807 102.319 74.4329 102.319 73.6439C102.319 73.1544 102.356 72.7254 102.431 72.3568C102.506 71.9882 102.635 71.6485 102.82 71.3375C103.188 70.6925 103.879 70.37 104.893 70.37C106.045 70.37 106.805 70.8163 107.173 71.7089C107.375 72.2099 107.476 72.8549 107.476 73.6439C107.476 74.1392 107.438 74.5711 107.363 74.9396C107.288 75.3082 107.159 75.648 106.975 75.959ZM104.893 75.9676C105.417 75.9676 105.783 75.7632 105.99 75.3543C106.197 74.9454 106.301 74.3753 106.301 73.6439C106.301 72.9125 106.197 72.3424 105.99 71.9335C105.783 71.5246 105.417 71.3202 104.893 71.3202C104.34 71.3202 103.963 71.5448 103.761 71.994C103.583 72.4029 103.493 72.9528 103.493 73.6439C103.493 74.7957 103.727 75.5126 104.193 75.7948C104.383 75.91 104.616 75.9676 104.893 75.9676ZM112.425 70.4909H113.6V76.7969H112.356L109.86 72.5123V76.7969H108.685V70.4909H109.929L112.425 74.7842V70.4909ZM117.512 73.212C118.099 73.3617 118.52 73.5748 118.773 73.8512C119.026 74.1276 119.153 74.5423 119.153 75.0951C119.153 75.648 118.963 76.0914 118.583 76.4254C118.203 76.7537 117.644 76.9178 116.907 76.9178C116.17 76.9178 115.637 76.7623 115.309 76.4513C114.981 76.1346 114.779 75.6768 114.704 75.0779L115.646 74.931C115.68 75.2708 115.796 75.5357 115.991 75.7257C116.193 75.91 116.472 76.0022 116.829 76.0022C117.595 76.0022 117.978 75.7113 117.978 75.1297C117.978 74.8821 117.906 74.6949 117.762 74.5682C117.618 74.4415 117.342 74.3263 116.933 74.2227L116.441 74.1017C115.865 73.9578 115.453 73.7447 115.205 73.4625C114.958 73.1803 114.834 72.7599 114.834 72.2013C114.834 71.6369 115.015 71.1906 115.378 70.8624C115.741 70.5341 116.277 70.37 116.985 70.37C117.699 70.37 118.211 70.5284 118.522 70.8451C118.839 71.1561 119.035 71.611 119.11 72.2099L118.177 72.3568C118.102 71.6427 117.734 71.2856 117.071 71.2856C116.708 71.2856 116.441 71.3663 116.268 71.5275C116.095 71.683 116.009 71.8903 116.009 72.1495C116.009 72.4086 116.075 72.6015 116.207 72.7282C116.34 72.8549 116.593 72.9672 116.968 73.0651L117.512 73.212ZM123.658 70.4909H124.833V74.715C124.833 75.1009 124.784 75.432 124.686 75.7085C124.588 75.9849 124.467 76.2008 124.323 76.3563C124.179 76.5061 123.995 76.627 123.771 76.7191C123.546 76.8055 123.336 76.8602 123.14 76.8833C122.95 76.9063 122.728 76.9178 122.475 76.9178C122.221 76.9178 121.997 76.9063 121.801 76.8833C121.611 76.8602 121.404 76.8055 121.179 76.7191C120.954 76.627 120.77 76.5061 120.626 76.3563C120.488 76.2008 120.37 75.9849 120.272 75.7085C120.174 75.432 120.125 75.1009 120.125 74.715V70.4909H121.3V74.6287C121.3 75.1642 121.404 75.5213 121.611 75.6998C121.818 75.8726 122.106 75.959 122.475 75.959C122.653 75.959 122.803 75.9446 122.924 75.9158C123.045 75.887 123.166 75.8294 123.287 75.743C123.534 75.5645 123.658 75.193 123.658 74.6287V70.4909ZM126.242 76.7969V70.4909H127.417V75.8899H129.568V76.7969H126.242ZM131.532 70.4909H133.061L134.996 76.7969H133.865L133.329 75.0519H131.256L130.729 76.7969H129.589L131.532 70.4909ZM132.292 71.6053L131.524 74.1622H133.061L132.292 71.6053ZM135.788 70.4909H137.99C138.791 70.4909 139.346 70.7011 139.657 71.1215C139.922 71.4843 140.055 71.9105 140.055 72.4C140.055 73.2696 139.715 73.8455 139.036 74.1276C139.162 74.2659 139.272 74.4386 139.364 74.6459L140.323 76.7969H139.07L138.172 74.7496C138.091 74.5768 138.002 74.4588 137.904 74.3954C137.812 74.3321 137.671 74.3004 137.481 74.3004H136.962V76.7969H135.788V70.4909ZM136.962 73.3934H137.852C138.198 73.3934 138.454 73.2984 138.621 73.1083C138.794 72.9183 138.88 72.6822 138.88 72.4C138.88 72.112 138.794 71.8731 138.621 71.683C138.454 71.493 138.198 71.3979 137.852 71.3979H136.962V73.3934ZM143.696 70.4909H144.871V76.7969H143.696V70.4909ZM146.411 70.4909H148.51C149.529 70.4909 150.22 70.8019 150.583 71.4239C150.761 71.7233 150.885 72.0487 150.954 72.4C151.023 72.7513 151.058 73.1429 151.058 73.5748C151.058 74.0009 151.038 74.3609 150.998 74.6546C150.957 74.9483 150.879 75.2362 150.764 75.5184C150.655 75.7948 150.508 76.0223 150.324 76.2008C149.915 76.5982 149.31 76.7969 148.51 76.7969H146.411V70.4909ZM148.354 71.3979H147.585V75.8899H148.354C148.97 75.8899 149.388 75.6681 149.607 75.2247C149.791 74.8389 149.883 74.3119 149.883 73.6439C149.883 72.9759 149.791 72.4489 149.607 72.0631C149.388 71.6197 148.97 71.3979 148.354 71.3979Z" fill="#114550"/>
<path d="M75.6414 96.948H77.2827L77.4468 103.254H76.2893L76.1942 98.3992L74.7862 102.502H73.7669L72.497 98.5374L72.4107 103.254H71.2531L71.4086 96.948H73.0585L74.2938 100.93L75.6414 96.948ZM78.896 96.948H82.455V97.855H80.0708V99.5999H82.239V100.498H80.0708V102.347H82.6277V103.254H78.896V96.948ZM82.8745 96.948H84.2135L85.6301 99.1334L86.9432 96.948H88.1784L86.2521 100.092L88.308 103.254H86.9691L85.4747 100.956L84.1184 103.254H82.8918L84.8613 100.006L82.8745 96.948ZM88.9306 96.948H90.1054V103.254H88.9306V96.948ZM93.8736 97.7772C93.3322 97.7772 92.9665 97.9558 92.7765 98.3128C92.5865 98.6641 92.4914 99.2601 92.4914 100.101C92.4914 100.936 92.5865 101.532 92.7765 101.889C92.9665 102.246 93.3322 102.425 93.8736 102.425C94.294 102.425 94.5905 102.309 94.7633 102.079C94.9418 101.849 95.0369 101.515 95.0484 101.077L95.9986 101.12C95.9525 101.863 95.774 102.425 95.463 102.805C95.1578 103.185 94.628 103.375 93.8736 103.375C92.8888 103.375 92.2093 103.087 91.8349 102.511C91.6449 102.223 91.5096 101.889 91.4289 101.509C91.3541 101.123 91.3166 100.654 91.3166 100.101C91.3166 99.5481 91.3541 99.0816 91.4289 98.7015C91.5096 98.3157 91.6449 97.9788 91.8349 97.6908C92.2093 97.115 92.8888 96.827 93.8736 96.827C94.5819 96.827 95.0916 96.9854 95.4025 97.3021C95.7135 97.6189 95.9036 98.0853 95.9727 98.7015L95.0225 98.8484C94.9879 98.5028 94.8814 98.2379 94.7028 98.0537C94.5243 97.8694 94.2479 97.7772 93.8736 97.7772ZM98.1666 96.948H99.6956L101.631 103.254H100.499L99.9634 101.509H97.8902L97.3632 103.254H96.223L98.1666 96.948ZM98.9268 98.0623L98.158 100.619H99.6956L98.9268 98.0623ZM106.162 96.948H107.337V103.254H106.093L103.597 98.9693V103.254H102.422V96.948H103.666L106.162 101.241V96.948ZM113.343 101.017H112.341V103.254H111.166V96.948H113.343C114.103 96.948 114.638 97.1553 114.949 97.5699C115.22 97.9442 115.355 98.4165 115.355 98.9866C115.355 99.551 115.22 100.017 114.949 100.386C114.638 100.806 114.103 101.017 113.343 101.017ZM112.341 100.11H113.161C113.841 100.11 114.18 99.7352 114.18 98.9866C114.18 98.2322 113.841 97.855 113.161 97.855H112.341V100.11ZM116.869 96.948H118.398L120.333 103.254H119.201L118.666 101.509H116.593L116.066 103.254H114.926L116.869 96.948ZM117.629 98.0623L116.861 100.619H118.398L117.629 98.0623ZM123.5 99.669C124.087 99.8187 124.508 100.032 124.761 100.308C125.015 100.585 125.141 100.999 125.141 101.552C125.141 102.105 124.951 102.548 124.571 102.882C124.191 103.211 123.632 103.375 122.895 103.375C122.158 103.375 121.625 103.219 121.297 102.908C120.969 102.592 120.767 102.134 120.692 101.535L121.634 101.388C121.669 101.728 121.784 101.993 121.98 102.183C122.181 102.367 122.46 102.459 122.817 102.459C123.583 102.459 123.966 102.168 123.966 101.587C123.966 101.339 123.894 101.152 123.75 101.025C123.606 100.899 123.33 100.783 122.921 100.68L122.429 100.559C121.853 100.415 121.441 100.202 121.193 99.9195C120.946 99.6373 120.822 99.2169 120.822 98.6583C120.822 98.094 121.003 97.6477 121.366 97.3194C121.729 96.9911 122.265 96.827 122.973 96.827C123.687 96.827 124.2 96.9854 124.511 97.3021C124.827 97.6131 125.023 98.0681 125.098 98.667L124.165 98.8138C124.09 98.0997 123.722 97.7427 123.059 97.7427C122.697 97.7427 122.429 97.8233 122.256 97.9846C122.083 98.14 121.997 98.3474 121.997 98.6065C121.997 98.8657 122.063 99.0586 122.196 99.1853C122.328 99.312 122.581 99.4243 122.956 99.5222L123.5 99.669ZM128.618 99.669C129.206 99.8187 129.626 100.032 129.88 100.308C130.133 100.585 130.26 100.999 130.26 101.552C130.26 102.105 130.07 102.548 129.69 102.882C129.309 103.211 128.751 103.375 128.014 103.375C127.277 103.375 126.744 103.219 126.416 102.908C126.087 102.592 125.886 102.134 125.811 101.535L126.753 101.388C126.787 101.728 126.902 101.993 127.098 102.183C127.3 102.367 127.579 102.459 127.936 102.459C128.702 102.459 129.085 102.168 129.085 101.587C129.085 101.339 129.013 101.152 128.869 101.025C128.725 100.899 128.449 100.783 128.04 100.68L127.547 100.559C126.971 100.415 126.56 100.202 126.312 99.9195C126.064 99.6373 125.941 99.2169 125.941 98.6583C125.941 98.094 126.122 97.6477 126.485 97.3194C126.848 96.9911 127.383 96.827 128.092 96.827C128.806 96.827 129.318 96.9854 129.629 97.3021C129.946 97.6131 130.142 98.0681 130.217 98.667L129.284 98.8138C129.209 98.0997 128.84 97.7427 128.178 97.7427C127.815 97.7427 127.547 97.8233 127.375 97.9846C127.202 98.14 127.115 98.3474 127.115 98.6065C127.115 98.8657 127.182 99.0586 127.314 99.1853C127.447 99.312 127.7 99.4243 128.074 99.5222L128.618 99.669ZM133.538 101.017H132.536V103.254H131.361V96.948H133.538C134.298 96.948 134.834 97.1553 135.145 97.5699C135.416 97.9442 135.551 98.4165 135.551 98.9866C135.551 99.551 135.416 100.017 135.145 100.386C134.834 100.806 134.298 101.017 133.538 101.017ZM132.536 100.11H133.357C134.036 100.11 134.376 99.7352 134.376 98.9866C134.376 98.2322 134.036 97.855 133.357 97.855H132.536V100.11ZM140.757 102.416C140.573 102.727 140.305 102.966 139.954 103.133C139.608 103.294 139.205 103.375 138.744 103.375C138.289 103.375 137.909 103.32 137.604 103.211C137.299 103.096 137.051 102.946 136.861 102.762C136.671 102.571 136.519 102.332 136.403 102.045C136.202 101.538 136.101 100.89 136.101 100.101C136.101 99.6114 136.139 99.1824 136.213 98.8138C136.288 98.4453 136.418 98.1055 136.602 97.7945C136.971 97.1495 137.662 96.827 138.675 96.827C139.827 96.827 140.587 97.2733 140.956 98.166C141.157 98.667 141.258 99.312 141.258 100.101C141.258 100.596 141.221 101.028 141.146 101.397C141.071 101.765 140.941 102.105 140.757 102.416ZM138.675 102.425C139.199 102.425 139.565 102.22 139.772 101.811C139.98 101.402 140.083 100.832 140.083 100.101C140.083 99.3696 139.98 98.7994 139.772 98.3906C139.565 97.9817 139.199 97.7772 138.675 97.7772C138.122 97.7772 137.745 98.0018 137.544 98.451C137.365 98.8599 137.276 99.4099 137.276 100.101C137.276 101.253 137.509 101.97 137.976 102.252C138.166 102.367 138.399 102.425 138.675 102.425ZM142.467 96.948H144.67C145.471 96.948 146.026 97.1582 146.337 97.5786C146.602 97.9414 146.735 98.3675 146.735 98.857C146.735 99.7266 146.395 100.302 145.715 100.585C145.842 100.723 145.951 100.896 146.044 101.103L147.002 103.254H145.75L144.852 101.207C144.771 101.034 144.682 100.916 144.584 100.852C144.492 100.789 144.351 100.757 144.16 100.757H143.642V103.254H142.467V96.948ZM143.642 99.8504H144.532C144.877 99.8504 145.134 99.7554 145.301 99.5654C145.473 99.3753 145.56 99.1392 145.56 98.857C145.56 98.5691 145.473 98.3301 145.301 98.14C145.134 97.95 144.877 97.855 144.532 97.855H143.642V99.8504ZM147.254 97.8377V96.948H151.738V97.8377H150.088V103.254H148.913V97.8377H147.254ZM77.3586 113.254V106.948H78.5335V112.347H80.6844V113.254H77.3586ZM82.6487 106.948H84.1777L86.1127 113.254H84.9811L84.4455 111.509H82.3723L81.8454 113.254H80.7051L82.6487 106.948ZM83.4089 108.062L82.6401 110.619H84.1777L83.4089 108.062ZM85.771 107.838V106.948H90.2543V107.838H88.6043V113.254H87.4295V107.838H85.771ZM91.8566 106.948H93.3856L95.3205 113.254H94.1889L93.6534 111.509H91.5802L91.0532 113.254H89.913L91.8566 106.948ZM92.6168 108.062L91.848 110.619H93.3856L92.6168 108.062ZM100.414 106.948H102.055L102.219 113.254H101.062L100.967 108.399L99.5585 112.502H98.5392L97.2694 108.537L97.183 113.254H96.0254L96.1809 106.948H97.8308L99.0661 110.93L100.414 106.948ZM108.138 111.017H107.136V113.254H105.961V106.948H108.138C108.898 106.948 109.433 107.155 109.744 107.57C110.015 107.944 110.15 108.416 110.15 108.987C110.15 109.551 110.015 110.017 109.744 110.386C109.433 110.806 108.898 111.017 108.138 111.017ZM107.136 110.11H107.956C108.636 110.11 108.976 109.735 108.976 108.987C108.976 108.232 108.636 107.855 107.956 107.855H107.136V110.11ZM111.664 106.948H113.193L115.128 113.254H113.997L113.461 111.509H111.388L110.861 113.254H109.721L111.664 106.948ZM112.424 108.062L111.656 110.619H113.193L112.424 108.062ZM118.295 109.669C118.882 109.819 119.303 110.032 119.556 110.308C119.81 110.585 119.936 110.999 119.936 111.552C119.936 112.105 119.746 112.548 119.366 112.882C118.986 113.211 118.427 113.375 117.69 113.375C116.953 113.375 116.421 113.219 116.092 112.908C115.764 112.592 115.562 112.134 115.488 111.535L116.429 111.388C116.464 111.728 116.579 111.993 116.775 112.183C116.976 112.367 117.256 112.459 117.613 112.459C118.379 112.459 118.761 112.168 118.761 111.587C118.761 111.339 118.689 111.152 118.546 111.025C118.402 110.899 118.125 110.783 117.716 110.68L117.224 110.559C116.648 110.415 116.236 110.202 115.989 109.92C115.741 109.637 115.617 109.217 115.617 108.658C115.617 108.094 115.799 107.648 116.161 107.319C116.524 106.991 117.06 106.827 117.768 106.827C118.482 106.827 118.995 106.985 119.306 107.302C119.622 107.613 119.818 108.068 119.893 108.667L118.96 108.814C118.885 108.1 118.517 107.743 117.854 107.743C117.492 107.743 117.224 107.823 117.051 107.985C116.878 108.14 116.792 108.347 116.792 108.607C116.792 108.866 116.858 109.059 116.991 109.185C117.123 109.312 117.376 109.424 117.751 109.522L118.295 109.669ZM123.414 109.669C124.001 109.819 124.421 110.032 124.675 110.308C124.928 110.585 125.055 110.999 125.055 111.552C125.055 112.105 124.865 112.548 124.485 112.882C124.105 113.211 123.546 113.375 122.809 113.375C122.072 113.375 121.539 113.219 121.211 112.908C120.883 112.592 120.681 112.134 120.606 111.535L121.548 111.388C121.582 111.728 121.697 111.993 121.893 112.183C122.095 112.367 122.374 112.459 122.731 112.459C123.497 112.459 123.88 112.168 123.88 111.587C123.88 111.339 123.808 111.152 123.664 111.025C123.52 110.899 123.244 110.783 122.835 110.68L122.342 110.559C121.766 110.415 121.355 110.202 121.107 109.92C120.859 109.637 120.736 109.217 120.736 108.658C120.736 108.094 120.917 107.648 121.28 107.319C121.643 106.991 122.178 106.827 122.887 106.827C123.601 106.827 124.113 106.985 124.424 107.302C124.741 107.613 124.937 108.068 125.012 108.667L124.079 108.814C124.004 108.1 123.635 107.743 122.973 107.743C122.61 107.743 122.342 107.823 122.17 107.985C121.997 108.14 121.91 108.347 121.91 108.607C121.91 108.866 121.977 109.059 122.109 109.185C122.242 109.312 122.495 109.424 122.869 109.522L123.414 109.669ZM128.333 111.017H127.331V113.254H126.157V106.948H128.333C129.094 106.948 129.629 107.155 129.94 107.57C130.211 107.944 130.346 108.416 130.346 108.987C130.346 109.551 130.211 110.017 129.94 110.386C129.629 110.806 129.094 111.017 128.333 111.017ZM127.331 110.11H128.152C128.832 110.11 129.171 109.735 129.171 108.987C129.171 108.232 128.832 107.855 128.152 107.855H127.331V110.11ZM135.552 112.416C135.368 112.727 135.1 112.966 134.749 113.133C134.403 113.294 134 113.375 133.539 113.375C133.085 113.375 132.704 113.32 132.399 113.211C132.094 113.096 131.846 112.946 131.656 112.762C131.466 112.571 131.314 112.332 131.199 112.045C130.997 111.538 130.896 110.89 130.896 110.101C130.896 109.611 130.934 109.182 131.008 108.814C131.083 108.445 131.213 108.105 131.397 107.795C131.766 107.15 132.457 106.827 133.47 106.827C134.622 106.827 135.382 107.273 135.751 108.166C135.952 108.667 136.053 109.312 136.053 110.101C136.053 110.596 136.016 111.028 135.941 111.397C135.866 111.765 135.736 112.105 135.552 112.416ZM133.47 112.425C133.994 112.425 134.36 112.22 134.567 111.811C134.775 111.402 134.878 110.832 134.878 110.101C134.878 109.37 134.775 108.799 134.567 108.391C134.36 107.982 133.994 107.777 133.47 107.777C132.918 107.777 132.54 108.002 132.339 108.451C132.16 108.86 132.071 109.41 132.071 110.101C132.071 111.253 132.304 111.97 132.771 112.252C132.961 112.367 133.194 112.425 133.47 112.425ZM137.262 106.948H139.465C140.266 106.948 140.821 107.158 141.132 107.579C141.397 107.941 141.53 108.368 141.53 108.857C141.53 109.727 141.19 110.302 140.51 110.585C140.637 110.723 140.747 110.896 140.839 111.103L141.798 113.254H140.545L139.647 111.207C139.566 111.034 139.477 110.916 139.379 110.852C139.287 110.789 139.146 110.757 138.956 110.757H138.437V113.254H137.262V106.948ZM138.437 109.85H139.327C139.673 109.85 139.929 109.755 140.096 109.565C140.269 109.375 140.355 109.139 140.355 108.857C140.355 108.569 140.269 108.33 140.096 108.14C139.929 107.95 139.673 107.855 139.327 107.855H138.437V109.85ZM142.049 107.838V106.948H146.533V107.838H144.883V113.254H143.708V107.838H142.049ZM149.614 109.669C150.201 109.819 150.621 110.032 150.875 110.308C151.128 110.585 151.255 110.999 151.255 111.552C151.255 112.105 151.065 112.548 150.685 112.882C150.305 113.211 149.746 113.375 149.009 113.375C148.272 113.375 147.739 113.219 147.411 112.908C147.082 112.592 146.881 112.134 146.806 111.535L147.748 111.388C147.782 111.728 147.897 111.993 148.093 112.183C148.295 112.367 148.574 112.459 148.931 112.459C149.697 112.459 150.08 112.168 150.08 111.587C150.08 111.339 150.008 111.152 149.864 111.025C149.72 110.899 149.444 110.783 149.035 110.68L148.542 110.559C147.966 110.415 147.555 110.202 147.307 109.92C147.059 109.637 146.936 109.217 146.936 108.658C146.936 108.094 147.117 107.648 147.48 107.319C147.843 106.991 148.378 106.827 149.087 106.827C149.801 106.827 150.313 106.985 150.624 107.302C150.941 107.613 151.137 108.068 151.212 108.667L150.279 108.814C150.204 108.1 149.835 107.743 149.173 107.743C148.81 107.743 148.542 107.823 148.37 107.985C148.197 108.14 148.11 108.347 148.11 108.607C148.11 108.866 148.177 109.059 148.309 109.185C148.442 109.312 148.695 109.424 149.069 109.522L149.614 109.669Z" fill="#114550"/>
<path d="M17.789 224.358H18.9638V228.582C18.9638 228.968 18.9149 229.299 18.817 229.576C18.7191 229.852 18.5981 230.068 18.4541 230.224C18.3102 230.373 18.1259 230.494 17.9013 230.586C17.6767 230.673 17.4665 230.727 17.2707 230.75C17.0807 230.773 16.8589 230.785 16.6056 230.785C16.3522 230.785 16.1276 230.773 15.9318 230.75C15.7417 230.727 15.5344 230.673 15.3098 230.586C15.0852 230.494 14.9009 230.373 14.757 230.224C14.6187 230.068 14.5007 229.852 14.4028 229.576C14.3049 229.299 14.2559 228.968 14.2559 228.582V224.358H15.4307V228.496C15.4307 229.031 15.5344 229.388 15.7417 229.567C15.949 229.74 16.237 229.826 16.6056 229.826C16.7841 229.826 16.9338 229.812 17.0547 229.783C17.1757 229.754 17.2966 229.697 17.4176 229.61C17.6652 229.432 17.789 229.06 17.789 228.496V224.358ZM22.7485 227.079C23.3359 227.229 23.7563 227.442 24.0096 227.718C24.263 227.995 24.3897 228.409 24.3897 228.962C24.3897 229.515 24.1997 229.959 23.8196 230.293C23.4395 230.621 22.8809 230.785 22.1438 230.785C21.4066 230.785 20.8739 230.63 20.5457 230.319C20.2174 230.002 20.0159 229.544 19.941 228.945L20.8826 228.798C20.9171 229.138 21.0323 229.403 21.2281 229.593C21.4297 229.777 21.709 229.869 22.066 229.869C22.832 229.869 23.2149 229.579 23.2149 228.997C23.2149 228.749 23.1429 228.562 22.999 228.435C22.855 228.309 22.5786 228.194 22.1697 228.09L21.6773 227.969C21.1014 227.825 20.6897 227.612 20.442 227.33C20.1944 227.048 20.0706 226.627 20.0706 226.068C20.0706 225.504 20.252 225.058 20.6148 224.73C20.9776 224.401 21.5132 224.237 22.2215 224.237C22.9356 224.237 23.4482 224.396 23.7591 224.712C24.0759 225.023 24.2717 225.478 24.3465 226.077L23.4136 226.224C23.3387 225.51 22.9702 225.153 22.3079 225.153C21.9451 225.153 21.6773 225.233 21.5045 225.395C21.3318 225.55 21.2454 225.758 21.2454 226.017C21.2454 226.276 21.3116 226.469 21.4441 226.595C21.5765 226.722 21.8299 226.834 22.2042 226.932L22.7485 227.079ZM27.784 224.358H29.9867C30.7872 224.358 31.3429 224.568 31.6539 224.989C31.9188 225.352 32.0513 225.778 32.0513 226.267C32.0513 227.137 31.7115 227.713 31.032 227.995C31.1587 228.133 31.2681 228.306 31.3602 228.513L32.3191 230.664H31.0665L30.1681 228.617C30.0875 228.444 29.9982 228.326 29.9003 228.263C29.8082 228.199 29.6671 228.168 29.4771 228.168H28.9588V230.664H27.784V224.358ZM28.9588 227.261H29.8485C30.1941 227.261 30.4503 227.166 30.6173 226.976C30.7901 226.785 30.8765 226.549 30.8765 226.267C30.8765 225.979 30.7901 225.74 30.6173 225.55C30.4503 225.36 30.1941 225.265 29.8485 225.265H28.9588V227.261ZM33.4002 224.358H36.9592V225.265H34.575V227.01H36.7432V227.908H34.575V229.757H37.1319V230.664H33.4002V224.358ZM40.5231 227.079C41.1105 227.229 41.5309 227.442 41.7843 227.718C42.0377 227.995 42.1644 228.409 42.1644 228.962C42.1644 229.515 41.9743 229.959 41.5942 230.293C41.2141 230.621 40.6555 230.785 39.9184 230.785C39.1813 230.785 38.6486 230.63 38.3203 230.319C37.9921 230.002 37.7905 229.544 37.7156 228.945L38.6572 228.798C38.6918 229.138 38.8069 229.403 39.0027 229.593C39.2043 229.777 39.4836 229.869 39.8407 229.869C40.6066 229.869 40.9895 229.579 40.9895 228.997C40.9895 228.749 40.9176 228.562 40.7736 228.435C40.6296 228.309 40.3532 228.194 39.9443 228.09L39.4519 227.969C38.876 227.825 38.4643 227.612 38.2167 227.33C37.969 227.048 37.8452 226.627 37.8452 226.068C37.8452 225.504 38.0266 225.058 38.3894 224.73C38.7522 224.401 39.2878 224.237 39.9961 224.237C40.7102 224.237 41.2228 224.396 41.5338 224.712C41.8505 225.023 42.0463 225.478 42.1212 226.077L41.1882 226.224C41.1134 225.51 40.7448 225.153 40.0825 225.153C39.7197 225.153 39.4519 225.233 39.2792 225.395C39.1064 225.55 39.02 225.758 39.02 226.017C39.02 226.276 39.0862 226.469 39.2187 226.595C39.3512 226.722 39.6045 226.834 39.9789 226.932L40.5231 227.079ZM43.2661 224.358H44.4409V230.664H43.2661V224.358ZM45.9804 224.358H48.0795C49.0988 224.358 49.7899 224.669 50.1527 225.291C50.3312 225.591 50.455 225.916 50.5241 226.267C50.5932 226.618 50.6278 227.01 50.6278 227.442C50.6278 227.868 50.6076 228.228 50.5673 228.522C50.527 228.815 50.4493 229.103 50.3341 229.386C50.2247 229.662 50.0778 229.889 49.8935 230.068C49.4846 230.465 48.88 230.664 48.0795 230.664H45.9804V224.358ZM47.924 225.265H47.1552V229.757H47.924C48.5402 229.757 48.9577 229.535 49.1765 229.092C49.3608 228.706 49.453 228.179 49.453 227.511C49.453 226.843 49.3608 226.316 49.1765 225.93C48.9577 225.487 48.5402 225.265 47.924 225.265ZM51.9256 224.358H55.4846V225.265H53.1004V227.01H55.2686V227.908H53.1004V229.757H55.6574V230.664H51.9256V224.358ZM60.4133 224.358H61.5881V230.664H60.3442L57.8478 226.379V230.664H56.673V224.358H57.9169L60.4133 228.651V224.358ZM65.353 225.187C64.8117 225.187 64.446 225.366 64.256 225.723C64.0659 226.074 63.9709 226.67 63.9709 227.511C63.9709 228.346 64.0659 228.942 64.256 229.299C64.446 229.656 64.8117 229.835 65.353 229.835C65.7734 229.835 66.07 229.72 66.2428 229.489C66.4213 229.259 66.5163 228.925 66.5278 228.487L67.478 228.53C67.432 229.273 67.2534 229.835 66.9425 230.215C66.6372 230.595 66.1074 230.785 65.353 230.785C64.3683 230.785 63.6887 230.497 63.3144 229.921C63.1243 229.633 62.989 229.299 62.9084 228.919C62.8335 228.533 62.7961 228.064 62.7961 227.511C62.7961 226.958 62.8335 226.492 62.9084 226.112C62.989 225.726 63.1243 225.389 63.3144 225.101C63.6887 224.525 64.3683 224.237 65.353 224.237C66.0614 224.237 66.571 224.396 66.882 224.712C67.193 225.029 67.383 225.495 67.4521 226.112L66.5019 226.259C66.4674 225.913 66.3608 225.648 66.1823 225.464C66.0038 225.28 65.7273 225.187 65.353 225.187ZM70.6999 230.664H69.5251V228.47L67.5815 224.358H68.7563L70.1125 227.373L71.4687 224.358H72.6435L70.6999 228.47V230.664ZM77.8404 225.187C77.2991 225.187 76.9334 225.366 76.7433 225.723C76.5533 226.074 76.4583 226.67 76.4583 227.511C76.4583 228.346 76.5533 228.942 76.7433 229.299C76.9334 229.656 77.2991 229.835 77.8404 229.835C78.2608 229.835 78.5574 229.72 78.7301 229.489C78.9087 229.259 79.0037 228.925 79.0152 228.487L79.9654 228.53C79.9194 229.273 79.7408 229.835 79.4298 230.215C79.1246 230.595 78.5948 230.785 77.8404 230.785C76.8556 230.785 76.1761 230.497 75.8018 229.921C75.6117 229.633 75.4764 229.299 75.3958 228.919C75.3209 228.533 75.2835 228.064 75.2835 227.511C75.2835 226.958 75.3209 226.492 75.3958 226.112C75.4764 225.726 75.6117 225.389 75.8018 225.101C76.1761 224.525 76.8556 224.237 77.8404 224.237C78.5487 224.237 79.0584 224.396 79.3694 224.712C79.6804 225.029 79.8704 225.495 79.9395 226.112L78.9893 226.259C78.9547 225.913 78.8482 225.648 78.6697 225.464C78.4912 225.28 78.2147 225.187 77.8404 225.187ZM82.1334 224.358H83.6624L85.5974 230.664H84.4658L83.9302 228.919H81.857L81.3301 230.664H80.1898L82.1334 224.358ZM82.8936 225.472L82.1248 228.029H83.6624L82.8936 225.472ZM86.3887 224.358H88.5914C89.3919 224.358 89.9476 224.568 90.2586 224.989C90.5235 225.352 90.656 225.778 90.656 226.267C90.656 227.137 90.3162 227.713 89.6367 227.995C89.7634 228.133 89.8728 228.306 89.9649 228.513L90.9238 230.664H89.6712L88.7728 228.617C88.6922 228.444 88.6029 228.326 88.505 228.263C88.4129 228.199 88.2718 228.168 88.0818 228.168H87.5635V230.664H86.3887V224.358ZM87.5635 227.261H88.4532C88.7987 227.261 89.055 227.166 89.222 226.976C89.3948 226.785 89.4812 226.549 89.4812 226.267C89.4812 225.979 89.3948 225.74 89.222 225.55C89.055 225.36 88.7987 225.265 88.4532 225.265H87.5635V227.261ZM92.0049 224.358H94.104C95.1233 224.358 95.8144 224.669 96.1772 225.291C96.3557 225.591 96.4795 225.916 96.5486 226.267C96.6177 226.618 96.6523 227.01 96.6523 227.442C96.6523 227.868 96.6321 228.228 96.5918 228.522C96.5515 228.815 96.4738 229.103 96.3586 229.386C96.2492 229.662 96.1023 229.889 95.918 230.068C95.5092 230.465 94.9045 230.664 94.104 230.664H92.0049V224.358ZM93.9485 225.265H93.1797V229.757H93.9485C94.5647 229.757 94.9822 229.535 95.2011 229.092C95.3853 228.706 95.4775 228.179 95.4775 227.511C95.4775 226.843 95.3853 226.316 95.2011 225.93C94.9822 225.487 94.5647 225.265 93.9485 225.265ZM102.437 229.835C103.266 229.835 103.686 229.386 103.698 228.487V228.194H102.73V227.442H104.709V230.664H104.121L103.923 230.033C103.554 230.534 103.036 230.785 102.368 230.785C101.423 230.785 100.772 230.491 100.415 229.904C100.231 229.604 100.102 229.265 100.027 228.885C99.9518 228.504 99.9144 228.044 99.9144 227.502C99.9144 226.955 99.9518 226.492 100.027 226.112C100.107 225.726 100.243 225.389 100.433 225.101C100.807 224.525 101.487 224.237 102.471 224.237C103.18 224.237 103.689 224.396 104 224.712C104.311 225.029 104.501 225.495 104.57 226.112L103.62 226.259C103.586 225.913 103.479 225.648 103.301 225.464C103.122 225.28 102.846 225.187 102.471 225.187C101.93 225.187 101.564 225.366 101.374 225.723C101.184 226.08 101.089 226.67 101.089 227.494C101.089 228.317 101.181 228.913 101.366 229.282C101.556 229.651 101.913 229.835 102.437 229.835ZM106.163 224.358H108.365C109.166 224.358 109.722 224.568 110.033 224.989C110.297 225.352 110.43 225.778 110.43 226.267C110.43 227.137 110.09 227.713 109.411 227.995C109.537 228.133 109.647 228.306 109.739 228.513L110.698 230.664H109.445L108.547 228.617C108.466 228.444 108.377 228.326 108.279 228.263C108.187 228.199 108.046 228.168 107.856 228.168H107.337V230.664H106.163V224.358ZM107.337 227.261H108.227C108.573 227.261 108.829 227.166 108.996 226.976C109.169 226.785 109.255 226.549 109.255 226.267C109.255 225.979 109.169 225.74 108.996 225.55C108.829 225.36 108.573 225.265 108.227 225.265H107.337V227.261ZM111.779 224.358H115.338V225.265H112.954V227.01H115.122V227.908H112.954V229.757H115.511V230.664H111.779V224.358ZM116.526 224.358H120.085V225.265H117.701V227.01H119.869V227.908H117.701V229.757H120.258V230.664H116.526V224.358ZM125.014 224.358H126.189V230.664H124.945L122.448 226.379V230.664H121.274V224.358H122.517L125.014 228.651V224.358ZM132.246 225.187C131.705 225.187 131.339 225.366 131.149 225.723C130.959 226.074 130.864 226.67 130.864 227.511C130.864 228.346 130.959 228.942 131.149 229.299C131.339 229.656 131.705 229.835 132.246 229.835C132.666 229.835 132.963 229.72 133.136 229.489C133.314 229.259 133.409 228.925 133.421 228.487L134.371 228.53C134.325 229.273 134.147 229.835 133.836 230.215C133.53 230.595 133 230.785 132.246 230.785C131.261 230.785 130.582 230.497 130.207 229.921C130.017 229.633 129.882 229.299 129.801 228.919C129.727 228.533 129.689 228.064 129.689 227.511C129.689 226.958 129.727 226.492 129.801 226.112C129.882 225.726 130.017 225.389 130.207 225.101C130.582 224.525 131.261 224.237 132.246 224.237C132.954 224.237 133.464 224.396 133.775 224.712C134.086 225.029 134.276 225.495 134.345 226.112L133.395 226.259C133.36 225.913 133.254 225.648 133.075 225.464C132.897 225.28 132.62 225.187 132.246 225.187ZM136.539 224.358H138.068L140.003 230.664H138.871L138.336 228.919H136.263L135.736 230.664H134.595L136.539 224.358ZM137.299 225.472L136.53 228.029H138.068L137.299 225.472ZM140.794 224.358H142.997C143.798 224.358 144.353 224.568 144.664 224.989C144.929 225.352 145.062 225.778 145.062 226.267C145.062 227.137 144.722 227.713 144.042 227.995C144.169 228.133 144.278 228.306 144.371 228.513L145.329 230.664H144.077L143.178 228.617C143.098 228.444 143.009 228.326 142.911 228.263C142.819 228.199 142.677 228.168 142.487 228.168H141.969V230.664H140.794V224.358ZM141.969 227.261H142.859C143.204 227.261 143.461 227.166 143.628 226.976C143.8 226.785 143.887 226.549 143.887 226.267C143.887 225.979 143.8 225.74 143.628 225.55C143.461 225.36 143.204 225.265 142.859 225.265H141.969V227.261ZM146.411 224.358H148.51C149.529 224.358 150.22 224.669 150.583 225.291C150.761 225.591 150.885 225.916 150.954 226.267C151.023 226.618 151.058 227.01 151.058 227.442C151.058 227.868 151.038 228.228 150.998 228.522C150.957 228.815 150.879 229.103 150.764 229.386C150.655 229.662 150.508 229.889 150.324 230.068C149.915 230.465 149.31 230.664 148.51 230.664H146.411V224.358ZM148.354 225.265H147.585V229.757H148.354C148.97 229.757 149.388 229.535 149.607 229.092C149.791 228.706 149.883 228.179 149.883 227.511C149.883 226.843 149.791 226.316 149.607 225.93C149.388 225.487 148.97 225.265 148.354 225.265Z" fill="#114550"/>
<path d="M83.545 131.499H85.1863L85.3504 137.805H84.1929L84.0979 132.95L82.6899 137.053H81.6705L80.4007 133.088L80.3143 137.805H79.1568L79.3123 131.499H80.9622L82.1975 135.481L83.545 131.499ZM86.7996 131.499H90.3586V132.406H87.9745V134.151H90.1427V135.049H87.9745V136.898H90.5314V137.805H86.7996V131.499ZM90.7782 131.499H92.1171L93.5338 133.684L94.8468 131.499H96.0821L94.1558 134.643L96.2117 137.805H94.8727L93.3783 135.507L92.0221 137.805H90.7955L92.765 134.557L90.7782 131.499ZM96.8342 131.499H98.009V137.805H96.8342V131.499ZM101.777 132.328C101.236 132.328 100.87 132.507 100.68 132.864C100.49 133.215 100.395 133.811 100.395 134.652C100.395 135.487 100.49 136.083 100.68 136.44C100.87 136.797 101.236 136.975 101.777 136.975C102.198 136.975 102.494 136.86 102.667 136.63C102.845 136.4 102.941 136.066 102.952 135.628L103.902 135.671C103.856 136.414 103.678 136.975 103.367 137.355C103.061 137.736 102.532 137.926 101.777 137.926C100.792 137.926 100.113 137.638 99.7386 137.062C99.5485 136.774 99.4132 136.44 99.3326 136.06C99.2577 135.674 99.2203 135.205 99.2203 134.652C99.2203 134.099 99.2577 133.632 99.3326 133.252C99.4132 132.866 99.5485 132.53 99.7386 132.242C100.113 131.666 100.792 131.378 101.777 131.378C102.486 131.378 102.995 131.536 103.306 131.853C103.617 132.17 103.807 132.636 103.876 133.252L102.926 133.399C102.892 133.054 102.785 132.789 102.606 132.604C102.428 132.42 102.152 132.328 101.777 132.328ZM106.07 131.499H107.599L109.534 137.805H108.403L107.867 136.06H105.794L105.267 137.805H104.127L106.07 131.499ZM106.83 132.613L106.062 135.17H107.599L106.83 132.613ZM114.066 131.499H115.241V137.805H113.997L111.5 133.52V137.805H110.325V131.499H111.569L114.066 135.792V131.499ZM119.069 131.499H120.244V137.805H119.069V131.499ZM125.524 131.499H126.699V137.805H125.455L122.959 133.52V137.805H121.784V131.499H123.028L125.524 135.792V131.499ZM128.235 131.499H131.794V132.406H129.41V134.151H131.578V135.049H129.41V136.898H131.967V137.805H128.235V131.499ZM134.394 138.72L136.441 131.11H137.607L135.56 138.72H134.394ZM140.56 131.499H141.735V137.805H140.56V131.499ZM143.274 131.499H146.661V132.406H144.449V134.151H146.376V135.049H144.449V137.805H143.274V131.499ZM147.608 131.499H151.167V132.406H148.783V134.151H150.951V135.049H148.783V136.898H151.34V137.805H147.608V131.499Z" fill="#114550"/>
<path d="M71.7749 161.733H72.9497V165.957C72.9497 166.343 72.9008 166.674 72.8029 166.951C72.705 167.227 72.584 167.443 72.4401 167.599C72.2961 167.748 72.1118 167.869 71.8872 167.961C71.6626 168.048 71.4524 168.102 71.2566 168.125C71.0666 168.148 70.8449 168.16 70.5915 168.16C70.3381 168.16 70.1135 168.148 69.9177 168.125C69.7276 168.102 69.5203 168.048 69.2957 167.961C69.0711 167.869 68.8868 167.748 68.7429 167.599C68.6047 167.443 68.4866 167.227 68.3887 166.951C68.2908 166.674 68.2418 166.343 68.2418 165.957V161.733H69.4167V165.871C69.4167 166.406 69.5203 166.763 69.7276 166.942C69.935 167.115 70.2229 167.201 70.5915 167.201C70.77 167.201 70.9197 167.187 71.0407 167.158C71.1616 167.129 71.2825 167.072 71.4035 166.985C71.6511 166.807 71.7749 166.435 71.7749 165.871V161.733ZM76.7344 164.454C77.3218 164.604 77.7422 164.817 77.9956 165.093C78.2489 165.37 78.3756 165.784 78.3756 166.337C78.3756 166.89 78.1856 167.334 77.8055 167.668C77.4254 167.996 76.8668 168.16 76.1297 168.16C75.3926 168.16 74.8599 168.005 74.5316 167.694C74.2033 167.377 74.0018 166.919 73.9269 166.32L74.8685 166.173C74.903 166.513 75.0182 166.778 75.214 166.968C75.4156 167.152 75.6949 167.244 76.0519 167.244C76.8179 167.244 77.2008 166.954 77.2008 166.372C77.2008 166.124 77.1288 165.937 76.9849 165.81C76.8409 165.684 76.5645 165.569 76.1556 165.465L75.6632 165.344C75.0873 165.2 74.6756 164.987 74.4279 164.705C74.1803 164.423 74.0565 164.002 74.0565 163.443C74.0565 162.879 74.2379 162.433 74.6007 162.105C74.9635 161.776 75.4991 161.612 76.2074 161.612C76.9215 161.612 77.4341 161.771 77.745 162.087C78.0618 162.398 78.2576 162.853 78.3324 163.452L77.3995 163.599C77.3246 162.885 76.9561 162.528 76.2938 162.528C75.931 162.528 75.6632 162.608 75.4905 162.77C75.3177 162.925 75.2313 163.133 75.2313 163.392C75.2313 163.651 75.2975 163.844 75.43 163.97C75.5624 164.097 75.8158 164.209 76.1902 164.307L76.7344 164.454ZM81.7699 161.733H83.869C84.8883 161.733 85.5794 162.044 85.9422 162.666C86.1207 162.966 86.2445 163.291 86.3136 163.642C86.3827 163.993 86.4173 164.385 86.4173 164.817C86.4173 165.243 86.3971 165.603 86.3568 165.897C86.3165 166.19 86.2388 166.478 86.1236 166.761C86.0142 167.037 85.8673 167.264 85.683 167.443C85.2741 167.84 84.6695 168.039 83.869 168.039H81.7699V161.733ZM83.7135 162.64H82.9447V167.132H83.7135C84.3297 167.132 84.7472 166.91 84.966 166.467C85.1503 166.081 85.2425 165.554 85.2425 164.886C85.2425 164.218 85.1503 163.691 84.966 163.305C84.7472 162.862 84.3297 162.64 83.7135 162.64ZM87.7151 161.733H89.9179C90.7183 161.733 91.2741 161.943 91.5851 162.364C91.85 162.727 91.9824 163.153 91.9824 163.642C91.9824 164.512 91.6426 165.088 90.9631 165.37C91.0898 165.508 91.1992 165.681 91.2914 165.888L92.2502 168.039H90.9977L90.0993 165.992C90.0186 165.819 89.9294 165.701 89.8315 165.638C89.7393 165.574 89.5983 165.543 89.4082 165.543H88.8899V168.039H87.7151V161.733ZM88.8899 164.636H89.7797C90.1252 164.636 90.3815 164.541 90.5485 164.351C90.7212 164.16 90.8076 163.924 90.8076 163.642C90.8076 163.354 90.7212 163.115 90.5485 162.925C90.3815 162.735 90.1252 162.64 89.7797 162.64H88.8899V164.636ZM93.3313 161.733H94.5062V168.039H93.3313V161.733ZM98.7062 168.039H97.1859L95.32 161.733H96.4948L97.9461 166.899L99.3973 161.733H100.581L98.7062 168.039ZM101.392 161.733H104.951V162.64H102.567V164.385H104.735V165.283H102.567V167.132H105.124V168.039H101.392V161.733ZM106.139 161.733H108.342C109.143 161.733 109.698 161.943 110.009 162.364C110.274 162.727 110.407 163.153 110.407 163.642C110.407 164.512 110.067 165.088 109.387 165.37C109.514 165.508 109.623 165.681 109.716 165.888L110.674 168.039H109.422L108.523 165.992C108.443 165.819 108.354 165.701 108.256 165.638C108.164 165.574 108.022 165.543 107.832 165.543H107.314V168.039H106.139V161.733ZM107.314 164.636H108.204C108.549 164.636 108.806 164.541 108.973 164.351C109.145 164.16 109.232 163.924 109.232 163.642C109.232 163.354 109.145 163.115 108.973 162.925C108.806 162.735 108.549 162.64 108.204 162.64H107.314V164.636ZM114.131 164.454C114.718 164.604 115.139 164.817 115.392 165.093C115.646 165.37 115.772 165.784 115.772 166.337C115.772 166.89 115.582 167.334 115.202 167.668C114.822 167.996 114.264 168.16 113.526 168.16C112.789 168.16 112.257 168.005 111.928 167.694C111.6 167.377 111.398 166.919 111.324 166.32L112.265 166.173C112.3 166.513 112.415 166.778 112.611 166.968C112.812 167.152 113.092 167.244 113.449 167.244C114.215 167.244 114.598 166.954 114.598 166.372C114.598 166.124 114.526 165.937 114.382 165.81C114.238 165.684 113.961 165.569 113.552 165.465L113.06 165.344C112.484 165.2 112.072 164.987 111.825 164.705C111.577 164.423 111.453 164.002 111.453 163.443C111.453 162.879 111.635 162.433 111.997 162.105C112.36 161.776 112.896 161.612 113.604 161.612C114.318 161.612 114.831 161.771 115.142 162.087C115.458 162.398 115.654 162.853 115.729 163.452L114.796 163.599C114.721 162.885 114.353 162.528 113.691 162.528C113.328 162.528 113.06 162.608 112.887 162.77C112.714 162.925 112.628 163.133 112.628 163.392C112.628 163.651 112.694 163.844 112.827 163.97C112.959 164.097 113.213 164.209 113.587 164.307L114.131 164.454ZM119.167 168.039V161.733H120.341V167.132H122.492V168.039H119.167ZM123.256 161.733H124.431V168.039H123.256V161.733ZM128.199 162.562C127.658 162.562 127.292 162.741 127.102 163.098C126.912 163.449 126.817 164.045 126.817 164.886C126.817 165.721 126.912 166.317 127.102 166.674C127.292 167.031 127.658 167.21 128.199 167.21C128.619 167.21 128.916 167.095 129.089 166.864C129.267 166.634 129.362 166.3 129.374 165.862L130.324 165.905C130.278 166.648 130.099 167.21 129.788 167.59C129.483 167.97 128.953 168.16 128.199 168.16C127.214 168.16 126.535 167.872 126.16 167.296C125.97 167.008 125.835 166.674 125.754 166.294C125.679 165.908 125.642 165.439 125.642 164.886C125.642 164.333 125.679 163.867 125.754 163.487C125.835 163.101 125.97 162.764 126.16 162.476C126.535 161.9 127.214 161.612 128.199 161.612C128.907 161.612 129.417 161.771 129.728 162.087C130.039 162.404 130.229 162.87 130.298 163.487L129.348 163.634C129.313 163.288 129.207 163.023 129.028 162.839C128.85 162.655 128.573 162.562 128.199 162.562ZM131.291 161.733H134.85V162.64H132.466V164.385H134.634V165.283H132.466V167.132H135.023V168.039H131.291V161.733ZM139.779 161.733H140.954V168.039H139.71L137.213 163.754V168.039H136.039V161.733H137.282L139.779 166.026V161.733ZM144.865 164.454C145.453 164.604 145.873 164.817 146.127 165.093C146.38 165.37 146.507 165.784 146.507 166.337C146.507 166.89 146.317 167.334 145.937 167.668C145.557 167.996 144.998 168.16 144.261 168.16C143.524 168.16 142.991 168.005 142.663 167.694C142.334 167.377 142.133 166.919 142.058 166.32L143 166.173C143.034 166.513 143.149 166.778 143.345 166.968C143.547 167.152 143.826 167.244 144.183 167.244C144.949 167.244 145.332 166.954 145.332 166.372C145.332 166.124 145.26 165.937 145.116 165.81C144.972 165.684 144.696 165.569 144.287 165.465L143.794 165.344C143.218 165.2 142.807 164.987 142.559 164.705C142.311 164.423 142.188 164.002 142.188 163.443C142.188 162.879 142.369 162.433 142.732 162.105C143.095 161.776 143.63 161.612 144.339 161.612C145.053 161.612 145.565 161.771 145.876 162.087C146.193 162.398 146.389 162.853 146.464 163.452L145.531 163.599C145.456 162.885 145.087 162.528 144.425 162.528C144.062 162.528 143.794 162.608 143.622 162.77C143.449 162.925 143.362 163.133 143.362 163.392C143.362 163.651 143.429 163.844 143.561 163.97C143.694 164.097 143.947 164.209 144.321 164.307L144.865 164.454ZM147.608 161.733H151.167V162.64H148.783V164.385H150.951V165.283H148.783V167.132H151.34V168.039H147.608V161.733Z" fill="#114550"/>
<path d="M107.976 192.507H109.151V196.731C109.151 197.117 109.102 197.448 109.004 197.724C108.906 198.001 108.785 198.216 108.641 198.372C108.497 198.522 108.313 198.643 108.088 198.735C107.863 198.821 107.653 198.876 107.457 198.899C107.267 198.922 107.046 198.933 106.792 198.933C106.539 198.933 106.314 198.922 106.119 198.899C105.928 198.876 105.721 198.821 105.497 198.735C105.272 198.643 105.088 198.522 104.944 198.372C104.805 198.216 104.687 198.001 104.59 197.724C104.492 197.448 104.443 197.117 104.443 196.731V192.507H105.617V196.644C105.617 197.18 105.721 197.537 105.928 197.715C106.136 197.888 106.424 197.975 106.792 197.975C106.971 197.975 107.121 197.96 107.241 197.931C107.362 197.903 107.483 197.845 107.604 197.759C107.852 197.58 107.976 197.209 107.976 196.644V192.507ZM112.935 195.228C113.523 195.377 113.943 195.59 114.196 195.867C114.45 196.143 114.576 196.558 114.576 197.111C114.576 197.664 114.386 198.107 114.006 198.441C113.626 198.769 113.068 198.933 112.331 198.933C111.593 198.933 111.061 198.778 110.732 198.467C110.404 198.15 110.203 197.692 110.128 197.093L111.069 196.947C111.104 197.286 111.219 197.551 111.415 197.741C111.616 197.926 111.896 198.018 112.253 198.018C113.019 198.018 113.402 197.727 113.402 197.145C113.402 196.898 113.33 196.711 113.186 196.584C113.042 196.457 112.765 196.342 112.356 196.238L111.864 196.117C111.288 195.973 110.876 195.76 110.629 195.478C110.381 195.196 110.257 194.776 110.257 194.217C110.257 193.653 110.439 193.206 110.802 192.878C111.164 192.55 111.7 192.386 112.408 192.386C113.122 192.386 113.635 192.544 113.946 192.861C114.263 193.172 114.458 193.627 114.533 194.226L113.6 194.372C113.525 193.658 113.157 193.301 112.495 193.301C112.132 193.301 111.864 193.382 111.691 193.543C111.519 193.699 111.432 193.906 111.432 194.165C111.432 194.424 111.498 194.617 111.631 194.744C111.763 194.871 112.017 194.983 112.391 195.081L112.935 195.228ZM120.346 195.228C120.934 195.377 121.354 195.59 121.607 195.867C121.861 196.143 121.988 196.558 121.988 197.111C121.988 197.664 121.797 198.107 121.417 198.441C121.037 198.769 120.479 198.933 119.742 198.933C119.004 198.933 118.472 198.778 118.143 198.467C117.815 198.15 117.614 197.692 117.539 197.093L118.48 196.947C118.515 197.286 118.63 197.551 118.826 197.741C119.027 197.926 119.307 198.018 119.664 198.018C120.43 198.018 120.813 197.727 120.813 197.145C120.813 196.898 120.741 196.711 120.597 196.584C120.453 196.457 120.176 196.342 119.767 196.238L119.275 196.117C118.699 195.973 118.287 195.76 118.04 195.478C117.792 195.196 117.668 194.776 117.668 194.217C117.668 193.653 117.85 193.206 118.213 192.878C118.575 192.55 119.111 192.386 119.819 192.386C120.533 192.386 121.046 192.544 121.357 192.861C121.674 193.172 121.869 193.627 121.944 194.226L121.011 194.372C120.937 193.658 120.568 193.301 119.906 193.301C119.543 193.301 119.275 193.382 119.102 193.543C118.93 193.699 118.843 193.906 118.843 194.165C118.843 194.424 118.909 194.617 119.042 194.744C119.174 194.871 119.428 194.983 119.802 195.081L120.346 195.228ZM122.26 193.396V192.507H126.743V193.396H125.093V198.812H123.919V193.396H122.26ZM128.346 192.507H129.875L131.81 198.812H130.678L130.142 197.068H128.069L127.542 198.812H126.402L128.346 192.507ZM129.106 193.621L128.337 196.178H129.875L129.106 193.621ZM131.468 193.396V192.507H135.951V193.396H134.301V198.812H133.126V193.396H131.468ZM136.656 192.507H140.215V193.414H137.831V195.159H139.999V196.057H137.831V197.905H140.388V198.812H136.656V192.507ZM143.696 192.507H144.871V198.812H143.696V192.507ZM146.411 192.507H148.51C149.529 192.507 150.22 192.818 150.583 193.439C150.761 193.739 150.885 194.064 150.954 194.416C151.023 194.767 151.058 195.159 151.058 195.59C151.058 196.017 151.038 196.377 150.998 196.67C150.957 196.964 150.879 197.252 150.764 197.534C150.655 197.81 150.508 198.038 150.324 198.216C149.915 198.614 149.31 198.812 148.51 198.812H146.411V192.507ZM148.354 193.414H147.585V197.905H148.354C148.97 197.905 149.388 197.684 149.607 197.24C149.791 196.854 149.883 196.328 149.883 195.66C149.883 194.991 149.791 194.465 149.607 194.079C149.388 193.635 148.97 193.414 148.354 193.414Z" fill="#114550"/>
<path d="M190.027 7.06299C190.317 7.27153 190.516 7.48461 190.625 7.70222C190.734 7.91982 190.788 8.20544 190.788 8.55905V10.3135C190.788 11.4922 190.199 12.0816 189.02 12.0816H187.959C186.781 12.0816 186.191 11.4922 186.191 10.3135V8.28704H188.055V10.1367C188.055 10.3634 188.168 10.4767 188.395 10.4767H188.571C188.798 10.4767 188.911 10.3634 188.911 10.1367V8.99427C188.911 8.74039 188.803 8.53638 188.585 8.38224L186.953 7.17179C186.663 6.96325 186.463 6.75017 186.354 6.53257C186.246 6.30589 186.191 6.02028 186.191 5.67573V4.16606C186.191 2.98735 186.781 2.39799 187.959 2.39799H188.993C190.172 2.39799 190.761 2.98735 190.761 4.16606V5.90694H188.898V4.34287C188.898 4.1162 188.784 4.00286 188.558 4.00286H188.408C188.181 4.00286 188.068 4.1162 188.068 4.34287V5.24051C188.068 5.49439 188.177 5.6984 188.395 5.85254L190.027 7.06299ZM194.87 2.47959L196.121 12H194.23L194.081 10.6127H192.884L192.748 12H191.021L192.272 2.47959H194.87ZM193.482 4.79169L193.061 8.95347H193.918L193.482 4.79169ZM199.261 7.79742H201.138V10.3135C201.138 11.4922 200.549 12.0816 199.37 12.0816H198.2C197.022 12.0816 196.432 11.4922 196.432 10.3135V4.16606C196.432 2.98735 197.022 2.39799 198.2 2.39799H199.343C200.521 2.39799 201.111 2.98735 201.111 4.16606V6.39656H199.234V4.37007C199.234 4.1434 199.121 4.03006 198.894 4.03006H198.676C198.45 4.03006 198.336 4.1434 198.336 4.37007V10.1095C198.336 10.3362 198.45 10.4495 198.676 10.4495H198.921C199.148 10.4495 199.261 10.3362 199.261 10.1095V7.79742ZM205.553 7.07659C206.097 7.23073 206.369 7.63875 206.369 8.30064V10.2319C206.369 11.4106 205.78 12 204.601 12H201.772V2.47959H204.574C205.753 2.47959 206.342 3.06895 206.342 4.24767V5.66213C206.342 6.40563 206.079 6.87711 205.553 7.07659ZM204.451 4.45168C204.451 4.225 204.338 4.11166 204.111 4.11166H203.663V6.36936H204.111C204.338 6.36936 204.451 6.25602 204.451 6.02934V4.45168ZM203.663 7.96063V10.3679H204.139C204.365 10.3679 204.479 10.2546 204.479 10.0279V8.30064C204.479 8.07396 204.365 7.96063 204.139 7.96063H203.663ZM206.979 2.47959H210.515V4.17966H208.883V6.31496H210.447V8.01503H208.883V10.2999H210.542V12H206.979V2.47959ZM208.08 2.00357L208.692 0.711515H210.447L209.372 2.00357H208.08ZM214.835 2.47959L215.148 5.15891L215.433 2.47959H216.698V6.62777H215.814V3.85325L215.447 6.62777H214.672L214.304 3.82605V6.62777H213.597V2.47959H214.835ZM212.727 6.62777H211.829V3.26843H211.203V2.47959H213.352V3.26843H212.727V6.62777ZM186.376 12.4796L187.627 22H185.737L185.587 20.6127H184.39L184.254 22H182.527L183.778 12.4796H186.376ZM184.989 14.7917L184.567 18.9535H185.424L184.989 14.7917ZM190.767 17.7974H192.644V20.3135C192.644 21.4922 192.055 22.0816 190.876 22.0816H189.707C188.528 22.0816 187.938 21.4922 187.938 20.3135V14.1661C187.938 12.9873 188.528 12.398 189.707 12.398H190.849C192.028 12.398 192.617 12.9873 192.617 14.1661V16.3966H190.74V14.3701C190.74 14.1434 190.627 14.0301 190.4 14.0301H190.183C189.956 14.0301 189.843 14.1434 189.843 14.3701V20.1095C189.843 20.3362 189.956 20.4495 190.183 20.4495H190.427C190.654 20.4495 190.767 20.3362 190.767 20.1095V17.7974ZM196.08 17.7974H197.957V20.3135C197.957 21.4922 197.368 22.0816 196.189 22.0816H195.019C193.841 22.0816 193.251 21.4922 193.251 20.3135V14.1661C193.251 12.9873 193.841 12.398 195.019 12.398H196.162C197.34 12.398 197.93 12.9873 197.93 14.1661V16.3966H196.053V14.3701C196.053 14.1434 195.94 14.0301 195.713 14.0301H195.495C195.269 14.0301 195.155 14.1434 195.155 14.3701V20.1095C195.155 20.3362 195.269 20.4495 195.495 20.4495H195.74C195.967 20.4495 196.08 20.3362 196.08 20.1095V17.7974ZM203.324 20.3135C203.324 21.4922 202.735 22.0816 201.556 22.0816H200.332C199.153 22.0816 198.564 21.4922 198.564 20.3135V14.1661C198.564 12.9873 199.153 12.398 200.332 12.398H201.556C202.735 12.398 203.324 12.9873 203.324 14.1661V20.3135ZM201.42 14.3701C201.42 14.1434 201.307 14.0301 201.08 14.0301H200.808C200.581 14.0301 200.468 14.1434 200.468 14.3701V20.1095C200.468 20.3362 200.581 20.4495 200.808 20.4495H201.08C201.307 20.4495 201.42 20.3362 201.42 20.1095V14.3701ZM208.662 12.4796V20.3135C208.662 21.4922 208.073 22.0816 206.894 22.0816H205.738C204.559 22.0816 203.97 21.4922 203.97 20.3135V12.4796H205.874V20.1095C205.874 20.3362 205.987 20.4495 206.214 20.4495H206.418C206.645 20.4495 206.758 20.3362 206.758 20.1095V12.4796H208.662ZM212.369 17.2126L212.329 12.4796H213.974V22H212.125L210.928 16.8318L210.969 22H209.323V12.4796H211.268L212.369 17.2126ZM217.505 22H215.601V14.1797H214.445V12.4796H218.661V14.1797H217.505V22Z" fill="#CA8923"/>
<path d="M244.899 12L246.367 2.45037H247.755L249.222 12H248.146L247.914 10.4062H246.161L245.948 12H244.899ZM246.3 9.42997H247.781L247.031 4.15044L246.3 9.42997ZM249.681 2.47694H250.783L251.786 9.75537L252.822 2.47694H253.897L252.383 12.0266H251.188L249.681 2.47694ZM254.641 12V2.47694H257.63V3.48635H255.73V6.64079H257.563V7.63692H255.73V10.9906H257.656V12H254.641ZM258.559 12V2.47694H260.585C261.763 2.47694 262.351 3.06798 262.351 4.25006V6.01654C262.351 6.4327 262.281 6.75811 262.139 6.99275C262.002 7.22297 261.791 7.39564 261.508 7.51075C261.809 7.59486 262.026 7.73875 262.159 7.9424C262.296 8.14163 262.365 8.42498 262.365 8.79244V12H261.276V8.83229C261.276 8.54451 261.207 8.33422 261.07 8.2014C260.937 8.06858 260.729 8.00217 260.445 8.00217H259.649V12H258.559ZM259.649 7.0326H260.465C260.735 7.0326 260.935 6.9684 261.063 6.84001C261.196 6.71162 261.262 6.51018 261.262 6.23569V4.19029C261.262 3.94236 261.202 3.76084 261.083 3.64574C260.968 3.53063 260.789 3.47307 260.545 3.47307H259.649V7.0326ZM263.082 12L264.55 2.45037H265.937L267.405 12H266.329L266.097 10.4062H264.344L264.131 12H263.082ZM264.483 9.42997H265.964L265.214 4.15044L264.483 9.42997ZM268.122 10.3132V4.16373C268.122 2.98607 268.711 2.39724 269.889 2.39724H270.294C271.458 2.39724 272.04 2.97722 272.04 4.13716V5.44542H270.978V4.1106C270.978 3.63245 270.737 3.39338 270.254 3.39338H269.929C269.681 3.39338 269.499 3.45094 269.384 3.56604C269.269 3.68115 269.211 3.86267 269.211 4.1106V10.3663C269.211 10.8489 269.45 11.0902 269.929 11.0902H270.281C270.763 11.0902 271.004 10.8489 271.004 10.3663V7.93576H270.121V6.93963H272.067V10.3132C272.067 11.4909 271.476 12.0797 270.294 12.0797H269.889C268.711 12.0797 268.122 11.4909 268.122 10.3132ZM273.05 12V2.47694H276.038V3.48635H274.139V6.64079H275.972V7.63692H274.139V10.9906H276.065V12H273.05ZM278.588 10.3132V2.47694H279.677V10.3663C279.677 10.8489 279.917 11.0902 280.395 11.0902H280.654C281.136 11.0902 281.378 10.8489 281.378 10.3663V2.47694H282.46V10.3132C282.46 11.4909 281.871 12.0797 280.694 12.0797H280.355C279.177 12.0797 278.588 11.4909 278.588 10.3132ZM283.45 10.3398V8.34086H284.505V10.3796C284.505 10.8622 284.747 11.1035 285.229 11.1035H285.448C285.927 11.1035 286.166 10.8622 286.166 10.3796V8.95182C286.166 8.72603 286.128 8.54894 286.053 8.42055C285.982 8.29216 285.862 8.16598 285.694 8.04202L284.359 7.07909C284.018 6.83559 283.782 6.58102 283.649 6.31538C283.516 6.04532 283.45 5.70884 283.45 5.30596V4.16373C283.45 2.98607 284.038 2.39724 285.216 2.39724H285.488C286.648 2.39724 287.228 2.97722 287.228 4.13716V5.85052H286.166V4.09732C286.166 3.84939 286.106 3.66787 285.986 3.55276C285.871 3.43765 285.692 3.3801 285.448 3.3801H285.256C285.008 3.3801 284.826 3.43765 284.711 3.55276C284.596 3.66787 284.539 3.84939 284.539 4.09732V5.29268C284.539 5.51847 284.576 5.69556 284.652 5.82395C284.727 5.95234 284.851 6.08074 285.023 6.20913L286.345 7.15878C286.69 7.41113 286.927 7.6657 287.056 7.92248C287.188 8.17926 287.255 8.51352 287.255 8.92526V10.3132C287.255 11.4909 286.666 12.0797 285.488 12.0797H285.189C284.03 12.0797 283.45 11.4997 283.45 10.3398ZM238.411 23V13.4769H240.397C241.574 13.4769 242.163 14.068 242.163 15.2501V16.6513C242.163 17.063 242.094 17.3862 241.957 17.6209C241.82 17.8555 241.612 18.026 241.333 18.1322C241.621 18.2473 241.835 18.4222 241.977 18.6568C242.119 18.8915 242.19 19.2147 242.19 19.6264V21.2335C242.19 22.4112 241.601 23 240.423 23H238.411ZM239.487 22.0238H240.397C240.875 22.0238 241.114 21.7825 241.114 21.2999V19.4205C241.114 19.1505 241.047 18.9513 240.915 18.8229C240.786 18.69 240.587 18.6236 240.317 18.6236H239.487V22.0238ZM239.487 17.6541H240.284C240.819 17.6541 241.087 17.3862 241.087 16.8505V15.177C241.087 14.9291 241.027 14.7476 240.908 14.6325C240.793 14.5173 240.613 14.4598 240.37 14.4598H239.487V17.6541ZM242.893 23L244.361 13.4504H245.749L247.217 23H246.141L245.908 21.4062H244.155L243.943 23H242.893ZM244.295 20.43H245.776L245.025 15.1504L244.295 20.43ZM247.961 23V13.4769H249.455L251.035 20.3503V13.4769H252.065V23H250.71L248.99 15.5489V23H247.961ZM253.101 23V13.4769H254.19V18.0924L256.062 13.4769H257.218L255.259 18.1588L257.165 23H255.969L254.19 18.3182V23H253.101ZM259.15 23L260.618 13.4504H262.006L263.474 23H262.398L262.165 21.4062H260.412L260.2 23H259.15ZM260.552 20.43H262.033L261.282 15.1504L260.552 20.43ZM264.191 21.3132V15.1637C264.191 13.9861 264.78 13.3972 265.957 13.3972H266.309C267.469 13.3972 268.049 13.9772 268.049 15.1372V16.8505H266.993V15.1106C266.993 14.6325 266.752 14.3934 266.27 14.3934H265.997C265.749 14.3934 265.568 14.4509 265.453 14.566C265.338 14.6812 265.28 14.8627 265.28 15.1106V21.3663C265.28 21.8489 265.519 22.0902 265.997 22.0902H266.296C266.779 22.0902 267.02 21.8489 267.02 21.3663V19.3409H268.076V21.3132C268.076 22.4909 267.487 23.0797 266.309 23.0797H265.957C264.78 23.0797 264.191 22.4909 264.191 21.3132ZM268.999 21.3132V15.1637C268.999 13.9861 269.588 13.3972 270.765 13.3972H271.117C272.277 13.3972 272.857 13.9772 272.857 15.1372V16.8505H271.801V15.1106C271.801 14.6325 271.56 14.3934 271.078 14.3934H270.805C270.557 14.3934 270.376 14.4509 270.261 14.566C270.146 14.6812 270.088 14.8627 270.088 15.1106V21.3663C270.088 21.8489 270.327 22.0902 270.805 22.0902H271.104C271.587 22.0902 271.828 21.8489 271.828 21.3663V19.3409H272.884V21.3132C272.884 22.4909 272.295 23.0797 271.117 23.0797H270.765C269.588 23.0797 268.999 22.4909 268.999 21.3132ZM273.807 21.3132V15.1637C273.807 13.9861 274.396 13.3972 275.573 13.3972H275.979C277.161 13.3972 277.752 13.9861 277.752 15.1637V21.3132C277.752 22.4909 277.161 23.0797 275.979 23.0797H275.573C274.396 23.0797 273.807 22.4909 273.807 21.3132ZM274.896 21.3663C274.896 21.8489 275.135 22.0902 275.613 22.0902H275.939C276.421 22.0902 276.663 21.8489 276.663 21.3663V15.1106C276.663 14.6325 276.421 14.3934 275.939 14.3934H275.613C275.365 14.3934 275.184 14.4509 275.069 14.566C274.954 14.6812 274.896 14.8627 274.896 15.1106V21.3663ZM278.748 21.3132V13.4769H279.837V21.3663C279.837 21.8489 280.076 22.0902 280.554 22.0902H280.813C281.296 22.0902 281.537 21.8489 281.537 21.3663V13.4769H282.619V21.3132C282.619 22.4909 282.031 23.0797 280.853 23.0797H280.514C279.337 23.0797 278.748 22.4909 278.748 21.3132ZM283.649 23V13.4769H285.143L286.723 20.3503V13.4769H287.753V23H286.398L284.678 15.5489V23H283.649ZM288.404 14.4864V13.4769H292.348V14.4864H290.921V23H289.838V14.4864H288.404ZM292.674 16.731V15.9274L293.703 15.3962L292.674 14.8649V14.0613H292.714L293.962 14.7985L293.936 13.4504H294.659L294.62 14.7985L295.881 14.0613H295.921V14.8649L294.872 15.3962L295.921 15.9274V16.731H295.881L294.62 16.0071L294.659 17.3419H293.936L293.962 16.0071L292.714 16.731H292.674Z" fill="#CA8923"/>
<rect x="163.5" y="28.1875" width="71.0004" height="214.992" stroke="#114550" stroke-width="1.32711"/>
<path d="M1 36.3953C1 31.9226 4.62577 28.2969 9.09839 28.2969H163.508V243.174H9.09838C4.62576 243.174 1 239.548 1 235.076V36.3953Z" stroke="#114550" stroke-width="1.32711"/>
<path d="M234.502 28.1875H296.74C301.213 28.1875 304.839 31.8133 304.839 36.2859V235.081C304.839 239.554 301.213 243.179 296.74 243.179H234.502V28.1875Z" stroke="#114550" stroke-width="1.32711"/>
<path d="M304.96 89.3125H1" stroke="#114550" stroke-width="1.32711"/>
<path d="M304.96 150.32H1" stroke="#114550" stroke-width="1.32711"/>
<path d="M304.96 211.324H1" stroke="#114550" stroke-width="1.32711"/>
<path d="M304.96 58.5391H1" stroke="#114550" stroke-width="1.32711"/>
<path d="M304.96 119.547H1" stroke="#114550" stroke-width="1.32711"/>
<path d="M304.96 180.555H1" stroke="#114550" stroke-width="1.32711"/>
<circle cx="270.004" cy="43.1176" r="9.62155" fill="#317C82"/>
<path fill-rule="evenodd" clip-rule="evenodd" d="M275.645 39.8184L267.882 47.4343L263.701 43.3334L265.408 41.6595L267.882 44.0865L273.939 38.1445L275.645 39.8184Z" fill="#FFF6D2"/>
<circle cx="270.004" cy="74.3051" r="9.62155" fill="#317C82"/>
<path fill-rule="evenodd" clip-rule="evenodd" d="M275.645 71.0059L267.882 78.6218L263.701 74.5209L265.408 72.847L267.882 75.274L273.939 69.332L275.645 71.0059Z" fill="#FFF6D2"/>
<circle cx="270.004" cy="104.825" r="9.62155" fill="#114550"/>
<path fill-rule="evenodd" clip-rule="evenodd" d="M275.837 106.392L264.962 106.287L264.939 103.92L275.814 104.002L275.837 106.392Z" fill="#FFF6D2"/>
<circle cx="270.004" cy="135.344" r="9.62155" fill="#114550"/>
<path fill-rule="evenodd" clip-rule="evenodd" d="M275.837 136.911L264.962 136.807L264.939 134.44L275.814 134.521L275.837 136.911Z" fill="#FFF6D2"/>
<circle cx="270.004" cy="165.872" r="9.62155" fill="#114550"/>
<path fill-rule="evenodd" clip-rule="evenodd" d="M275.837 167.439L264.962 167.334L264.939 164.967L275.814 165.048L275.837 167.439Z" fill="#FFF6D2"/>
<circle cx="270.004" cy="196.395" r="9.62155" fill="#114550"/>
<path fill-rule="evenodd" clip-rule="evenodd" d="M275.837 197.962L264.962 197.858L264.939 195.49L275.814 195.572L275.837 197.962Z" fill="#FFF6D2"/>
<circle cx="270.004" cy="226.922" r="9.62155" fill="#114550"/>
<path fill-rule="evenodd" clip-rule="evenodd" d="M275.837 228.489L264.962 228.385L264.939 226.018L275.814 226.099L275.837 228.489Z" fill="#FFF6D2"/>
<circle cx="199.002" cy="43.1176" r="9.62155" fill="#317C82"/>
<path fill-rule="evenodd" clip-rule="evenodd" d="M204.643 39.8184L196.88 47.4343L192.699 43.3334L194.406 41.6595L196.88 44.0865L202.937 38.1445L204.643 39.8184Z" fill="#FFF6D2"/>
<circle cx="199.002" cy="74.3051" r="9.62155" fill="#317C82"/>
<path fill-rule="evenodd" clip-rule="evenodd" d="M204.643 71.0059L196.88 78.6218L192.699 74.5209L194.406 72.847L196.88 75.274L202.937 69.332L204.643 71.0059Z" fill="#FFF6D2"/>
<circle cx="199.002" cy="104.825" r="9.62155" fill="#317C82"/>
<path fill-rule="evenodd" clip-rule="evenodd" d="M204.643 101.525L196.88 109.141L192.699 105.04L194.406 103.367L196.88 105.794L202.937 99.8516L204.643 101.525Z" fill="#FFF6D2"/>
<circle cx="199.002" cy="135.344" r="9.62155" fill="#317C82"/>
<path fill-rule="evenodd" clip-rule="evenodd" d="M204.643 132.045L196.88 139.661L192.699 135.56L194.406 133.886L196.88 136.313L202.937 130.371L204.643 132.045Z" fill="#FFF6D2"/>
<circle cx="199.002" cy="165.872" r="9.62155" fill="#317C82"/>
<path fill-rule="evenodd" clip-rule="evenodd" d="M204.643 162.572L196.88 170.188L192.699 166.087L194.406 164.413L196.88 166.84L202.937 160.898L204.643 162.572Z" fill="#FFF6D2"/>
<circle cx="199.002" cy="196.395" r="9.62155" fill="#317C82"/>
<path fill-rule="evenodd" clip-rule="evenodd" d="M204.643 193.096L196.88 200.712L192.699 196.611L194.406 194.937L196.88 197.364L202.937 191.422L204.643 193.096Z" fill="#FFF6D2"/>
<circle cx="199.002" cy="226.922" r="9.62155" fill="#317C82"/>
<path fill-rule="evenodd" clip-rule="evenodd" d="M204.643 223.623L196.88 231.239L192.699 227.138L194.406 225.464L196.88 227.891L202.937 221.949L204.643 223.623Z" fill="#FFF6D2"/>
</svg>
