<svg width="461" height="485" viewBox="0 0 461 485" fill="none" xmlns="http://www.w3.org/2000/svg">
<path d="M65.1976 110.32H67.3736V122H65.0696L60.4456 114.064V122H58.2696V110.32H60.5736L65.1976 118.272V110.32ZM76.523 110.32H78.699V118.144C78.699 118.859 78.6083 119.472 78.427 119.984C78.2457 120.496 78.0217 120.896 77.755 121.184C77.4883 121.461 77.147 121.685 76.731 121.856C76.315 122.016 75.9257 122.117 75.563 122.16C75.211 122.203 74.8003 122.224 74.331 122.224C73.8617 122.224 73.4457 122.203 73.083 122.16C72.731 122.117 72.347 122.016 71.931 121.856C71.515 121.685 71.1737 121.461 70.907 121.184C70.651 120.896 70.4323 120.496 70.251 119.984C70.0697 119.472 69.979 118.859 69.979 118.144V110.32H72.155V117.984C72.155 118.976 72.347 119.637 72.731 119.968C73.115 120.288 73.6483 120.448 74.331 120.448C74.6617 120.448 74.939 120.421 75.163 120.368C75.387 120.315 75.611 120.208 75.835 120.048C76.2937 119.717 76.523 119.029 76.523 117.984V110.32ZM73.963 109.552L73.243 108.4L76.363 106.272L77.323 107.808L73.963 109.552ZM89.277 110.32H92.317L92.621 122H90.477L90.301 113.008L87.693 120.608H85.805L83.453 113.264L83.293 122H81.149L81.437 110.32H84.493L86.781 117.696L89.277 110.32ZM95.3053 110.32H101.897V112H97.4813V115.232H101.497V116.896H97.4813V120.32H102.217V122H95.3053V110.32ZM104.098 110.32H108.178C109.661 110.32 110.69 110.709 111.266 111.488C111.757 112.16 112.002 112.949 112.002 113.856C112.002 115.467 111.373 116.533 110.114 117.056C110.349 117.312 110.552 117.632 110.722 118.016L112.498 122H110.178L108.514 118.208C108.365 117.888 108.2 117.669 108.018 117.552C107.848 117.435 107.586 117.376 107.234 117.376H106.274V122H104.098V110.32ZM106.274 115.696H107.922C108.562 115.696 109.037 115.52 109.346 115.168C109.666 114.816 109.826 114.379 109.826 113.856C109.826 113.323 109.666 112.88 109.346 112.528C109.037 112.176 108.562 112 107.922 112H106.274V115.696ZM122.517 120.448C122.176 121.024 121.68 121.467 121.029 121.776C120.389 122.075 119.642 122.224 118.789 122.224C117.946 122.224 117.242 122.123 116.677 121.92C116.112 121.707 115.653 121.429 115.301 121.088C114.949 120.736 114.666 120.293 114.453 119.76C114.08 118.821 113.893 117.621 113.893 116.16C113.893 115.253 113.962 114.459 114.101 113.776C114.24 113.093 114.48 112.464 114.821 111.888C115.504 110.693 116.784 110.096 118.661 110.096C120.794 110.096 122.202 110.923 122.885 112.576C123.258 113.504 123.445 114.699 123.445 116.16C123.445 117.077 123.376 117.877 123.237 118.56C123.098 119.243 122.858 119.872 122.517 120.448ZM118.661 120.464C119.632 120.464 120.309 120.085 120.693 119.328C121.077 118.571 121.269 117.515 121.269 116.16C121.269 114.805 121.077 113.749 120.693 112.992C120.309 112.235 119.632 111.856 118.661 111.856C117.637 111.856 116.938 112.272 116.565 113.104C116.234 113.861 116.069 114.88 116.069 116.16C116.069 118.293 116.501 119.621 117.365 120.144C117.717 120.357 118.149 120.464 118.661 120.464ZM129.931 110.32H133.819C135.707 110.32 136.987 110.896 137.659 112.048C137.99 112.603 138.219 113.205 138.347 113.856C138.475 114.507 138.539 115.232 138.539 116.032C138.539 116.821 138.502 117.488 138.427 118.032C138.352 118.576 138.208 119.109 137.995 119.632C137.792 120.144 137.52 120.565 137.179 120.896C136.422 121.632 135.302 122 133.819 122H129.931V110.32ZM133.531 112H132.107V120.32H133.531C134.672 120.32 135.446 119.909 135.851 119.088C136.192 118.373 136.363 117.397 136.363 116.16C136.363 114.923 136.192 113.947 135.851 113.232C135.446 112.411 134.672 112 133.531 112ZM140.943 110.32H147.535V112H143.119V115.232H147.135V116.896H143.119V120.32H147.855V122H140.943V110.32ZM158.382 115.36C159.47 115.637 160.249 116.032 160.718 116.544C161.187 117.056 161.422 117.824 161.422 118.848C161.422 119.872 161.07 120.693 160.366 121.312C159.662 121.92 158.627 122.224 157.262 122.224C155.897 122.224 154.91 121.936 154.302 121.36C153.694 120.773 153.321 119.925 153.182 118.816L154.926 118.544C154.99 119.173 155.203 119.664 155.566 120.016C155.939 120.357 156.457 120.528 157.118 120.528C158.537 120.528 159.246 119.989 159.246 118.912C159.246 118.453 159.113 118.107 158.846 117.872C158.579 117.637 158.067 117.424 157.31 117.232L156.398 117.008C155.331 116.741 154.569 116.347 154.11 115.824C153.651 115.301 153.422 114.523 153.422 113.488C153.422 112.443 153.758 111.616 154.43 111.008C155.102 110.4 156.094 110.096 157.406 110.096C158.729 110.096 159.678 110.389 160.254 110.976C160.841 111.552 161.203 112.395 161.342 113.504L159.614 113.776C159.475 112.453 158.793 111.792 157.566 111.792C156.894 111.792 156.398 111.941 156.078 112.24C155.758 112.528 155.598 112.912 155.598 113.392C155.598 113.872 155.721 114.229 155.966 114.464C156.211 114.699 156.681 114.907 157.374 115.088L158.382 115.36ZM163.463 110.32H170.055V112H165.639V115.232H169.655V116.896H165.639V120.32H170.375V122H163.463V110.32ZM176.32 120.464C177.856 120.464 178.635 119.632 178.656 117.968V117.424H176.864V116.032H180.528V122H179.44L179.072 120.832C178.389 121.76 177.429 122.224 176.192 122.224C174.443 122.224 173.237 121.68 172.576 120.592C172.235 120.037 171.995 119.408 171.856 118.704C171.717 118 171.648 117.147 171.648 116.144C171.648 115.131 171.717 114.272 171.856 113.568C172.005 112.853 172.256 112.229 172.608 111.696C173.301 110.629 174.56 110.096 176.384 110.096C177.696 110.096 178.64 110.389 179.216 110.976C179.792 111.563 180.144 112.427 180.272 113.568L178.512 113.84C178.448 113.2 178.251 112.709 177.92 112.368C177.589 112.027 177.077 111.856 176.384 111.856C175.381 111.856 174.704 112.187 174.352 112.848C174 113.509 173.824 114.603 173.824 116.128C173.824 117.653 173.995 118.757 174.336 119.44C174.688 120.123 175.349 120.464 176.32 120.464ZM189.525 110.32H191.701V118.144C191.701 118.859 191.61 119.472 191.429 119.984C191.248 120.496 191.024 120.896 190.757 121.184C190.49 121.461 190.149 121.685 189.733 121.856C189.317 122.016 188.928 122.117 188.565 122.16C188.213 122.203 187.802 122.224 187.333 122.224C186.864 122.224 186.448 122.203 186.085 122.16C185.733 122.117 185.349 122.016 184.933 121.856C184.517 121.685 184.176 121.461 183.909 121.184C183.653 120.896 183.434 120.496 183.253 119.984C183.072 119.472 182.981 118.859 182.981 118.144V110.32H185.157V117.984C185.157 118.976 185.349 119.637 185.733 119.968C186.117 120.288 186.65 120.448 187.333 120.448C187.664 120.448 187.941 120.421 188.165 120.368C188.389 120.315 188.613 120.208 188.837 120.048C189.296 119.717 189.525 119.029 189.525 117.984V110.32ZM194.311 110.32H198.391C199.874 110.32 200.903 110.709 201.479 111.488C201.97 112.16 202.215 112.949 202.215 113.856C202.215 115.467 201.586 116.533 200.327 117.056C200.562 117.312 200.764 117.632 200.935 118.016L202.711 122H200.391L198.727 118.208C198.578 117.888 198.412 117.669 198.231 117.552C198.06 117.435 197.799 117.376 197.447 117.376H196.487V122H194.311V110.32ZM196.487 115.696H198.135C198.775 115.696 199.25 115.52 199.559 115.168C199.879 114.816 200.039 114.379 200.039 113.856C200.039 113.323 199.879 112.88 199.559 112.528C199.25 112.176 198.775 112 198.135 112H196.487V115.696ZM204.713 110.32H206.889V122H204.713V110.32ZM209.741 110.32H213.629C215.517 110.32 216.797 110.896 217.469 112.048C217.8 112.603 218.029 113.205 218.157 113.856C218.285 114.507 218.349 115.232 218.349 116.032C218.349 116.821 218.312 117.488 218.237 118.032C218.162 118.576 218.018 119.109 217.805 119.632C217.602 120.144 217.33 120.565 216.989 120.896C216.232 121.632 215.112 122 213.629 122H209.741V110.32ZM213.341 112H211.917V120.32H213.341C214.482 120.32 215.256 119.909 215.661 119.088C216.002 118.373 216.173 117.397 216.173 116.16C216.173 114.923 216.002 113.947 215.661 113.232C215.256 112.411 214.482 112 213.341 112ZM222.977 110.32H225.809L229.393 122H227.297L226.305 118.768H222.465L221.489 122H219.377L222.977 110.32ZM224.385 112.384L222.961 117.12H225.809L224.385 112.384ZM230.858 110.32H234.746C236.634 110.32 237.914 110.896 238.586 112.048C238.917 112.603 239.146 113.205 239.274 113.856C239.402 114.507 239.466 115.232 239.466 116.032C239.466 116.821 239.429 117.488 239.354 118.032C239.28 118.576 239.136 119.109 238.922 119.632C238.72 120.144 238.448 120.565 238.106 120.896C237.349 121.632 236.229 122 234.746 122H230.858V110.32ZM234.458 112H233.034V120.32H234.458C235.6 120.32 236.373 119.909 236.778 119.088C237.12 118.373 237.29 117.397 237.29 116.16C237.29 114.923 237.12 113.947 236.778 113.232C236.373 112.411 235.6 112 234.458 112ZM250.517 115.36C251.605 115.637 252.383 116.032 252.853 116.544C253.322 117.056 253.557 117.824 253.557 118.848C253.557 119.872 253.205 120.693 252.501 121.312C251.797 121.92 250.762 122.224 249.397 122.224C248.031 122.224 247.045 121.936 246.437 121.36C245.829 120.773 245.455 119.925 245.317 118.816L247.061 118.544C247.125 119.173 247.338 119.664 247.701 120.016C248.074 120.357 248.591 120.528 249.253 120.528C250.671 120.528 251.381 119.989 251.381 118.912C251.381 118.453 251.247 118.107 250.981 117.872C250.714 117.637 250.202 117.424 249.445 117.232L248.533 117.008C247.466 116.741 246.703 116.347 246.245 115.824C245.786 115.301 245.557 114.523 245.557 113.488C245.557 112.443 245.893 111.616 246.565 111.008C247.237 110.4 248.229 110.096 249.541 110.096C250.863 110.096 251.813 110.389 252.389 110.976C252.975 111.552 253.338 112.395 253.477 113.504L251.749 113.776C251.61 112.453 250.927 111.792 249.701 111.792C249.029 111.792 248.533 111.941 248.213 112.24C247.893 112.528 247.733 112.912 247.733 113.392C247.733 113.872 247.855 114.229 248.101 114.464C248.346 114.699 248.815 114.907 249.509 115.088L250.517 115.36ZM263.613 120.448C263.272 121.024 262.776 121.467 262.125 121.776C261.485 122.075 260.738 122.224 259.885 122.224C259.042 122.224 258.338 122.123 257.773 121.92C257.208 121.707 256.749 121.429 256.397 121.088C256.045 120.736 255.762 120.293 255.549 119.76C255.176 118.821 254.989 117.621 254.989 116.16C254.989 115.253 255.058 114.459 255.197 113.776C255.336 113.093 255.576 112.464 255.917 111.888C256.6 110.693 257.88 110.096 259.757 110.096C261.89 110.096 263.298 110.923 263.981 112.576C264.354 113.504 264.541 114.699 264.541 116.16C264.541 117.077 264.472 117.877 264.333 118.56C264.194 119.243 263.954 119.872 263.613 120.448ZM259.757 120.464C260.728 120.464 261.405 120.085 261.789 119.328C262.173 118.571 262.365 117.515 262.365 116.16C262.365 114.805 262.173 113.749 261.789 112.992C261.405 112.235 260.728 111.856 259.757 111.856C258.733 111.856 258.034 112.272 257.661 113.104C257.33 113.861 257.165 114.88 257.165 116.16C257.165 118.293 257.597 119.621 258.461 120.144C258.813 120.357 259.245 120.464 259.757 120.464ZM270.909 111.856C269.906 111.856 269.229 112.187 268.877 112.848C268.525 113.499 268.349 114.603 268.349 116.16C268.349 117.707 268.525 118.811 268.877 119.472C269.229 120.133 269.906 120.464 270.909 120.464C271.688 120.464 272.237 120.251 272.557 119.824C272.888 119.397 273.064 118.779 273.085 117.968L274.845 118.048C274.76 119.424 274.429 120.464 273.853 121.168C273.288 121.872 272.306 122.224 270.909 122.224C269.085 122.224 267.826 121.691 267.133 120.624C266.781 120.091 266.53 119.472 266.381 118.768C266.242 118.053 266.173 117.184 266.173 116.16C266.173 115.136 266.242 114.272 266.381 113.568C266.53 112.853 266.781 112.229 267.133 111.696C267.826 110.629 269.085 110.096 270.909 110.096C272.221 110.096 273.165 110.389 273.741 110.976C274.317 111.563 274.669 112.427 274.797 113.568L273.037 113.84C272.973 113.2 272.776 112.709 272.445 112.368C272.114 112.027 271.602 111.856 270.909 111.856ZM276.637 110.32H278.813V122H276.637V110.32ZM283.888 110.32H286.72L290.304 122H288.208L287.216 118.768H283.376L282.4 122H280.288L283.888 110.32ZM285.296 112.384L283.872 117.12H286.72L285.296 112.384ZM291.77 122V110.32H293.946V120.32H297.93V122H291.77Z" fill="#114550"/>
<path d="M135.902 166.32H138.942L139.246 178H137.102L136.926 169.008L134.318 176.608H132.43L130.078 169.264L129.918 178H127.774L128.062 166.32H131.118L133.406 173.696L135.902 166.32ZM144.154 166.32H146.986L150.57 178H148.474L147.482 174.768H143.642L142.666 178H140.554L144.154 166.32ZM145.562 168.384L144.138 173.12H146.986L145.562 168.384ZM149.937 167.968V166.32H158.241V167.968H155.185V178H153.009V167.968H149.937ZM159.547 166.32H163.627C165.11 166.32 166.139 166.709 166.715 167.488C167.206 168.16 167.451 168.949 167.451 169.856C167.451 171.467 166.822 172.533 165.563 173.056C165.798 173.312 166.001 173.632 166.171 174.016L167.947 178H165.627L163.963 174.208C163.814 173.888 163.649 173.669 163.467 173.552C163.297 173.435 163.035 173.376 162.683 173.376H161.723V178H159.547V166.32ZM161.723 171.696H163.371C164.011 171.696 164.486 171.52 164.795 171.168C165.115 170.816 165.275 170.379 165.275 169.856C165.275 169.323 165.115 168.88 164.795 168.528C164.486 168.176 164.011 168 163.371 168H161.723V171.696ZM169.95 166.32H172.126V178H169.95V166.32ZM170.126 165.552L169.406 164.4L172.526 162.272L173.486 163.808L170.126 165.552ZM179.105 167.856C178.103 167.856 177.425 168.187 177.073 168.848C176.721 169.499 176.545 170.603 176.545 172.16C176.545 173.707 176.721 174.811 177.073 175.472C177.425 176.133 178.103 176.464 179.105 176.464C179.884 176.464 180.433 176.251 180.753 175.824C181.084 175.397 181.26 174.779 181.281 173.968L183.041 174.048C182.956 175.424 182.625 176.464 182.049 177.168C181.484 177.872 180.503 178.224 179.105 178.224C177.281 178.224 176.023 177.691 175.329 176.624C174.977 176.091 174.727 175.472 174.577 174.768C174.439 174.053 174.369 173.184 174.369 172.16C174.369 171.136 174.439 170.272 174.577 169.568C174.727 168.853 174.977 168.229 175.329 167.696C176.023 166.629 177.281 166.096 179.105 166.096C180.417 166.096 181.361 166.389 181.937 166.976C182.513 167.563 182.865 168.427 182.993 169.568L181.233 169.84C181.169 169.2 180.972 168.709 180.641 168.368C180.311 168.027 179.799 167.856 179.105 167.856ZM191.137 166.32H193.313V174.144C193.313 174.859 193.222 175.472 193.041 175.984C192.86 176.496 192.636 176.896 192.369 177.184C192.102 177.461 191.761 177.685 191.345 177.856C190.929 178.016 190.54 178.117 190.177 178.16C189.825 178.203 189.414 178.224 188.945 178.224C188.476 178.224 188.06 178.203 187.697 178.16C187.345 178.117 186.961 178.016 186.545 177.856C186.129 177.685 185.788 177.461 185.521 177.184C185.265 176.896 185.046 176.496 184.865 175.984C184.684 175.472 184.593 174.859 184.593 174.144V166.32H186.769V173.984C186.769 174.976 186.961 175.637 187.345 175.968C187.729 176.288 188.262 176.448 188.945 176.448C189.276 176.448 189.553 176.421 189.777 176.368C190.001 176.315 190.225 176.208 190.449 176.048C190.908 175.717 191.137 175.029 191.137 173.984V166.32ZM195.923 178V166.32H198.099V176.32H202.083V178H195.923ZM205.721 166.32H208.553L212.137 178H210.041L209.049 174.768H205.209L204.233 178H202.121L205.721 166.32ZM207.129 168.384L205.705 173.12H208.553L207.129 168.384ZM221.977 167.856C220.975 167.856 220.297 168.187 219.945 168.848C219.593 169.499 219.417 170.603 219.417 172.16C219.417 173.707 219.593 174.811 219.945 175.472C220.297 176.133 220.975 176.464 221.977 176.464C222.756 176.464 223.305 176.251 223.625 175.824C223.956 175.397 224.132 174.779 224.153 173.968L225.913 174.048C225.828 175.424 225.497 176.464 224.921 177.168C224.356 177.872 223.375 178.224 221.977 178.224C220.153 178.224 218.895 177.691 218.201 176.624C217.849 176.091 217.599 175.472 217.449 174.768C217.311 174.053 217.241 173.184 217.241 172.16C217.241 171.136 217.311 170.272 217.449 169.568C217.599 168.853 217.849 168.229 218.201 167.696C218.895 166.629 220.153 166.096 221.977 166.096C223.289 166.096 224.233 166.389 224.809 166.976C225.385 167.563 225.737 168.427 225.865 169.568L224.105 169.84C224.041 169.2 223.844 168.709 223.513 168.368C223.183 168.027 222.671 167.856 221.977 167.856ZM235.721 176.448C235.38 177.024 234.884 177.467 234.233 177.776C233.593 178.075 232.846 178.224 231.993 178.224C231.15 178.224 230.446 178.123 229.881 177.92C229.316 177.707 228.857 177.429 228.505 177.088C228.153 176.736 227.87 176.293 227.657 175.76C227.284 174.821 227.097 173.621 227.097 172.16C227.097 171.253 227.166 170.459 227.305 169.776C227.444 169.093 227.684 168.464 228.025 167.888C228.708 166.693 229.988 166.096 231.865 166.096C233.998 166.096 235.406 166.923 236.089 168.576C236.462 169.504 236.649 170.699 236.649 172.16C236.649 173.077 236.58 173.877 236.441 174.56C236.302 175.243 236.062 175.872 235.721 176.448ZM231.865 176.464C232.836 176.464 233.513 176.085 233.897 175.328C234.281 174.571 234.473 173.515 234.473 172.16C234.473 170.805 234.281 169.749 233.897 168.992C233.513 168.235 232.836 167.856 231.865 167.856C230.841 167.856 230.142 168.272 229.769 169.104C229.438 169.861 229.273 170.88 229.273 172.16C229.273 174.293 229.705 175.621 230.569 176.144C230.921 176.357 231.353 176.464 231.865 176.464ZM245.817 166.32H247.993V178H245.689L241.065 170.064V178H238.889V166.32H241.193L245.817 174.272V166.32ZM255.238 171.36C256.326 171.637 257.105 172.032 257.574 172.544C258.043 173.056 258.278 173.824 258.278 174.848C258.278 175.872 257.926 176.693 257.222 177.312C256.518 177.92 255.483 178.224 254.118 178.224C252.753 178.224 251.766 177.936 251.158 177.36C250.55 176.773 250.177 175.925 250.038 174.816L251.782 174.544C251.846 175.173 252.059 175.664 252.422 176.016C252.795 176.357 253.313 176.528 253.974 176.528C255.393 176.528 256.102 175.989 256.102 174.912C256.102 174.453 255.969 174.107 255.702 173.872C255.435 173.637 254.923 173.424 254.166 173.232L253.254 173.008C252.187 172.741 251.425 172.347 250.966 171.824C250.507 171.301 250.278 170.523 250.278 169.488C250.278 168.443 250.614 167.616 251.286 167.008C251.958 166.4 252.95 166.096 254.262 166.096C255.585 166.096 256.534 166.389 257.11 166.976C257.697 167.552 258.059 168.395 258.198 169.504L256.47 169.776C256.331 168.453 255.649 167.792 254.422 167.792C253.75 167.792 253.254 167.941 252.934 168.24C252.614 168.528 252.454 168.912 252.454 169.392C252.454 169.872 252.577 170.229 252.822 170.464C253.067 170.699 253.537 170.907 254.23 171.088L255.238 171.36ZM266.623 166.32H268.799V174.144C268.799 174.859 268.708 175.472 268.527 175.984C268.345 176.496 268.121 176.896 267.855 177.184C267.588 177.461 267.247 177.685 266.831 177.856C266.415 178.016 266.025 178.117 265.663 178.16C265.311 178.203 264.9 178.224 264.431 178.224C263.961 178.224 263.545 178.203 263.183 178.16C262.831 178.117 262.447 178.016 262.031 177.856C261.615 177.685 261.273 177.461 261.007 177.184C260.751 176.896 260.532 176.496 260.351 175.984C260.169 175.472 260.079 174.859 260.079 174.144V166.32H262.255V173.984C262.255 174.976 262.447 175.637 262.831 175.968C263.215 176.288 263.748 176.448 264.431 176.448C264.761 176.448 265.039 176.421 265.263 176.368C265.487 176.315 265.711 176.208 265.935 176.048C266.393 175.717 266.623 175.029 266.623 173.984V166.32ZM271.409 178V166.32H273.585V176.32H277.569V178H271.409ZM281.207 166.32H284.039L287.623 178H285.527L284.535 174.768H280.695L279.719 178H277.607L281.207 166.32ZM282.615 168.384L281.191 173.12H284.039L282.615 168.384ZM289.089 166.32H293.169C294.651 166.32 295.681 166.709 296.257 167.488C296.747 168.16 296.993 168.949 296.993 169.856C296.993 171.467 296.363 172.533 295.105 173.056C295.339 173.312 295.542 173.632 295.713 174.016L297.489 178H295.169L293.505 174.208C293.355 173.888 293.19 173.669 293.009 173.552C292.838 173.435 292.577 173.376 292.225 173.376H291.265V178H289.089V166.32ZM291.265 171.696H292.913C293.553 171.696 294.027 171.52 294.337 171.168C294.657 170.816 294.817 170.379 294.817 169.856C294.817 169.323 294.657 168.88 294.337 168.528C294.027 168.176 293.553 168 292.913 168H291.265V171.696Z" fill="#114550"/>
<path d="M132.434 219.856H130.578V224H128.402V212.32H132.434C133.842 212.32 134.834 212.704 135.41 213.472C135.911 214.165 136.162 215.04 136.162 216.096C136.162 217.141 135.911 218.005 135.41 218.688C134.834 219.467 133.842 219.856 132.434 219.856ZM130.578 218.176H132.098C133.356 218.176 133.986 217.483 133.986 216.096C133.986 214.699 133.356 214 132.098 214H130.578V218.176ZM138.966 212.32H141.798L145.382 224H143.286L142.294 220.768H138.454L137.478 224H135.366L138.966 212.32ZM140.374 214.384L138.95 219.12H141.798L140.374 214.384ZM151.247 217.36C152.335 217.637 153.114 218.032 153.583 218.544C154.053 219.056 154.287 219.824 154.287 220.848C154.287 221.872 153.935 222.693 153.231 223.312C152.527 223.92 151.493 224.224 150.127 224.224C148.762 224.224 147.775 223.936 147.167 223.36C146.559 222.773 146.186 221.925 146.047 220.816L147.791 220.544C147.855 221.173 148.069 221.664 148.431 222.016C148.805 222.357 149.322 222.528 149.983 222.528C151.402 222.528 152.111 221.989 152.111 220.912C152.111 220.453 151.978 220.107 151.711 219.872C151.445 219.637 150.933 219.424 150.175 219.232L149.263 219.008C148.197 218.741 147.434 218.347 146.975 217.824C146.517 217.301 146.287 216.523 146.287 215.488C146.287 214.443 146.623 213.616 147.295 213.008C147.967 212.4 148.959 212.096 150.271 212.096C151.594 212.096 152.543 212.389 153.119 212.976C153.706 213.552 154.069 214.395 154.207 215.504L152.479 215.776C152.341 214.453 151.658 213.792 150.431 213.792C149.759 213.792 149.263 213.941 148.943 214.24C148.623 214.528 148.463 214.912 148.463 215.392C148.463 215.872 148.586 216.229 148.831 216.464C149.077 216.699 149.546 216.907 150.239 217.088L151.247 217.36ZM158.552 212.32H161.384L164.968 224H162.872L161.88 220.768H158.04L157.064 224H154.952L158.552 212.32ZM159.96 214.384L158.536 219.12H161.384L159.96 214.384ZM170.465 219.856H168.609V224H166.433V212.32H170.465C171.873 212.32 172.865 212.704 173.441 213.472C173.943 214.165 174.193 215.04 174.193 216.096C174.193 217.141 173.943 218.005 173.441 218.688C172.865 219.467 171.873 219.856 170.465 219.856ZM168.609 218.176H170.129C171.388 218.176 172.017 217.483 172.017 216.096C172.017 214.699 171.388 214 170.129 214H168.609V218.176ZM183.836 222.448C183.495 223.024 182.999 223.467 182.348 223.776C181.708 224.075 180.962 224.224 180.108 224.224C179.266 224.224 178.562 224.123 177.996 223.92C177.431 223.707 176.972 223.429 176.62 223.088C176.268 222.736 175.986 222.293 175.772 221.76C175.399 220.821 175.212 219.621 175.212 218.16C175.212 217.253 175.282 216.459 175.42 215.776C175.559 215.093 175.799 214.464 176.14 213.888C176.823 212.693 178.103 212.096 179.98 212.096C182.114 212.096 183.522 212.923 184.204 214.576C184.578 215.504 184.764 216.699 184.764 218.16C184.764 219.077 184.695 219.877 184.556 220.56C184.418 221.243 184.178 221.872 183.836 222.448ZM179.98 222.464C180.951 222.464 181.628 222.085 182.012 221.328C182.396 220.571 182.588 219.515 182.588 218.16C182.588 216.805 182.396 215.749 182.012 214.992C181.628 214.235 180.951 213.856 179.98 213.856C178.956 213.856 178.258 214.272 177.884 215.104C177.554 215.861 177.388 216.88 177.388 218.16C177.388 220.293 177.82 221.621 178.684 222.144C179.036 222.357 179.468 222.464 179.98 222.464ZM187.004 212.32H191.084C192.567 212.32 193.596 212.709 194.172 213.488C194.663 214.16 194.908 214.949 194.908 215.856C194.908 217.467 194.279 218.533 193.02 219.056C193.255 219.312 193.457 219.632 193.628 220.016L195.404 224H193.084L191.42 220.208C191.271 219.888 191.105 219.669 190.924 219.552C190.753 219.435 190.492 219.376 190.14 219.376H189.18V224H187.004V212.32ZM189.18 217.696H190.828C191.468 217.696 191.943 217.52 192.252 217.168C192.572 216.816 192.732 216.379 192.732 215.856C192.732 215.323 192.572 214.88 192.252 214.528C191.943 214.176 191.468 214 190.828 214H189.18V217.696ZM195.871 213.968V212.32H204.175V213.968H201.119V224H198.943V213.968H195.871ZM205.481 212.32H212.073V214H207.657V217.232H211.673V218.896H207.657V222.32H212.393V224H205.481V212.32ZM226.488 212.32H229.528L229.832 224H227.688L227.512 215.008L224.904 222.608H223.016L220.664 215.264L220.504 224H218.36L218.648 212.32H221.704L223.992 219.696L226.488 212.32ZM232.517 212.32H239.109V214H234.693V217.232H238.709V218.896H234.693V222.32H239.429V224H232.517V212.32ZM239.886 212.32H242.366L244.99 216.368L247.422 212.32H249.71L246.142 218.144L249.95 224H247.47L244.702 219.744L242.19 224H239.918L243.566 217.984L239.886 212.32ZM251.103 212.32H253.279V224H251.103V212.32ZM260.258 213.856C259.256 213.856 258.578 214.187 258.226 214.848C257.874 215.499 257.698 216.603 257.698 218.16C257.698 219.707 257.874 220.811 258.226 221.472C258.578 222.133 259.256 222.464 260.258 222.464C261.037 222.464 261.586 222.251 261.906 221.824C262.237 221.397 262.413 220.779 262.434 219.968L264.194 220.048C264.109 221.424 263.778 222.464 263.202 223.168C262.637 223.872 261.656 224.224 260.258 224.224C258.434 224.224 257.176 223.691 256.482 222.624C256.13 222.091 255.88 221.472 255.73 220.768C255.592 220.053 255.522 219.184 255.522 218.16C255.522 217.136 255.592 216.272 255.73 215.568C255.88 214.853 256.13 214.229 256.482 213.696C257.176 212.629 258.434 212.096 260.258 212.096C261.57 212.096 262.514 212.389 263.09 212.976C263.666 213.563 264.018 214.427 264.146 215.568L262.386 215.84C262.322 215.2 262.125 214.709 261.794 214.368C261.464 214.027 260.952 213.856 260.258 213.856ZM268.21 212.32H271.042L274.626 224H272.53L271.538 220.768H267.698L266.722 224H264.61L268.21 212.32ZM269.618 214.384L268.194 219.12H271.042L269.618 214.384ZM283.02 212.32H285.196V224H282.892L278.268 216.064V224H276.092V212.32H278.396L283.02 220.272V212.32ZM296.057 222.448C295.716 223.024 295.22 223.467 294.569 223.776C293.929 224.075 293.182 224.224 292.329 224.224C291.486 224.224 290.782 224.123 290.217 223.92C289.652 223.707 289.193 223.429 288.841 223.088C288.489 222.736 288.206 222.293 287.993 221.76C287.62 220.821 287.433 219.621 287.433 218.16C287.433 217.253 287.502 216.459 287.641 215.776C287.78 215.093 288.02 214.464 288.361 213.888C289.044 212.693 290.324 212.096 292.201 212.096C294.334 212.096 295.742 212.923 296.425 214.576C296.798 215.504 296.985 216.699 296.985 218.16C296.985 219.077 296.916 219.877 296.777 220.56C296.638 221.243 296.398 221.872 296.057 222.448ZM292.201 222.464C293.172 222.464 293.849 222.085 294.233 221.328C294.617 220.571 294.809 219.515 294.809 218.16C294.809 216.805 294.617 215.749 294.233 214.992C293.849 214.235 293.172 213.856 292.201 213.856C291.177 213.856 290.478 214.272 290.105 215.104C289.774 215.861 289.609 216.88 289.609 218.16C289.609 220.293 290.041 221.621 290.905 222.144C291.257 222.357 291.689 222.464 292.201 222.464ZM154.766 238.856H152.91V243H150.734V231.32H154.766C156.174 231.32 157.166 231.704 157.742 232.472C158.243 233.165 158.494 234.04 158.494 235.096C158.494 236.141 158.243 237.005 157.742 237.688C157.166 238.467 156.174 238.856 154.766 238.856ZM152.91 237.176H154.43C155.689 237.176 156.318 236.483 156.318 235.096C156.318 233.699 155.689 233 154.43 233H152.91V237.176ZM161.298 231.32H164.13L167.714 243H165.618L164.626 239.768H160.786L159.81 243H157.698L161.298 231.32ZM162.706 233.384L161.282 238.12H164.13L162.706 233.384ZM173.58 236.36C174.668 236.637 175.446 237.032 175.916 237.544C176.385 238.056 176.62 238.824 176.62 239.848C176.62 240.872 176.268 241.693 175.564 242.312C174.86 242.92 173.825 243.224 172.46 243.224C171.094 243.224 170.108 242.936 169.5 242.36C168.892 241.773 168.518 240.925 168.38 239.816L170.124 239.544C170.188 240.173 170.401 240.664 170.764 241.016C171.137 241.357 171.654 241.528 172.316 241.528C173.734 241.528 174.444 240.989 174.444 239.912C174.444 239.453 174.31 239.107 174.044 238.872C173.777 238.637 173.265 238.424 172.508 238.232L171.596 238.008C170.529 237.741 169.766 237.347 169.308 236.824C168.849 236.301 168.62 235.523 168.62 234.488C168.62 233.443 168.956 232.616 169.628 232.008C170.3 231.4 171.292 231.096 172.604 231.096C173.926 231.096 174.876 231.389 175.452 231.976C176.038 232.552 176.401 233.395 176.54 234.504L174.812 234.776C174.673 233.453 173.99 232.792 172.764 232.792C172.092 232.792 171.596 232.941 171.276 233.24C170.956 233.528 170.796 233.912 170.796 234.392C170.796 234.872 170.918 235.229 171.164 235.464C171.409 235.699 171.878 235.907 172.572 236.088L173.58 236.36ZM180.884 231.32H183.716L187.3 243H185.204L184.212 239.768H180.372L179.396 243H177.284L180.884 231.32ZM182.292 233.384L180.868 238.12H183.716L182.292 233.384ZM192.798 238.856H190.942V243H188.766V231.32H192.798C194.206 231.32 195.198 231.704 195.774 232.472C196.275 233.165 196.526 234.04 196.526 235.096C196.526 236.141 196.275 237.005 195.774 237.688C195.198 238.467 194.206 238.856 192.798 238.856ZM190.942 237.176H192.462C193.721 237.176 194.35 236.483 194.35 235.096C194.35 233.699 193.721 233 192.462 233H190.942V237.176ZM206.169 241.448C205.828 242.024 205.332 242.467 204.681 242.776C204.041 243.075 203.294 243.224 202.441 243.224C201.598 243.224 200.894 243.123 200.329 242.92C199.764 242.707 199.305 242.429 198.953 242.088C198.601 241.736 198.318 241.293 198.105 240.76C197.732 239.821 197.545 238.621 197.545 237.16C197.545 236.253 197.614 235.459 197.753 234.776C197.892 234.093 198.132 233.464 198.473 232.888C199.156 231.693 200.436 231.096 202.313 231.096C204.446 231.096 205.854 231.923 206.537 233.576C206.91 234.504 207.097 235.699 207.097 237.16C207.097 238.077 207.028 238.877 206.889 239.56C206.75 240.243 206.51 240.872 206.169 241.448ZM202.313 241.464C203.284 241.464 203.961 241.085 204.345 240.328C204.729 239.571 204.921 238.515 204.921 237.16C204.921 235.805 204.729 234.749 204.345 233.992C203.961 233.235 203.284 232.856 202.313 232.856C201.289 232.856 200.59 233.272 200.217 234.104C199.886 234.861 199.721 235.88 199.721 237.16C199.721 239.293 200.153 240.621 201.017 241.144C201.369 241.357 201.801 241.464 202.313 241.464ZM209.337 231.32H213.417C214.899 231.32 215.929 231.709 216.505 232.488C216.995 233.16 217.241 233.949 217.241 234.856C217.241 236.467 216.611 237.533 215.353 238.056C215.587 238.312 215.79 238.632 215.961 239.016L217.737 243H215.417L213.753 239.208C213.603 238.888 213.438 238.669 213.257 238.552C213.086 238.435 212.825 238.376 212.473 238.376H211.513V243H209.337V231.32ZM211.513 236.696H213.161C213.801 236.696 214.275 236.52 214.585 236.168C214.905 235.816 215.065 235.379 215.065 234.856C215.065 234.323 214.905 233.88 214.585 233.528C214.275 233.176 213.801 233 213.161 233H211.513V236.696ZM218.203 232.968V231.32H226.507V232.968H223.451V243H221.275V232.968H218.203ZM227.813 231.32H234.405V233H229.989V236.232H234.005V237.896H229.989V241.32H234.725V243H227.813V231.32ZM241.007 236.36C242.095 236.637 242.873 237.032 243.343 237.544C243.812 238.056 244.047 238.824 244.047 239.848C244.047 240.872 243.695 241.693 242.991 242.312C242.287 242.92 241.252 243.224 239.887 243.224C238.521 243.224 237.535 242.936 236.927 242.36C236.319 241.773 235.945 240.925 235.807 239.816L237.551 239.544C237.615 240.173 237.828 240.664 238.191 241.016C238.564 241.357 239.081 241.528 239.743 241.528C241.161 241.528 241.871 240.989 241.871 239.912C241.871 239.453 241.737 239.107 241.471 238.872C241.204 238.637 240.692 238.424 239.935 238.232L239.023 238.008C237.956 237.741 237.193 237.347 236.735 236.824C236.276 236.301 236.047 235.523 236.047 234.488C236.047 233.443 236.383 232.616 237.055 232.008C237.727 231.4 238.719 231.096 240.031 231.096C241.353 231.096 242.303 231.389 242.879 231.976C243.465 232.552 243.828 233.395 243.967 234.504L242.239 234.776C242.1 233.453 241.417 232.792 240.191 232.792C239.519 232.792 239.023 232.941 238.703 233.24C238.383 233.528 238.223 233.912 238.223 234.392C238.223 234.872 238.345 235.229 238.591 235.464C238.836 235.699 239.305 235.907 239.999 236.088L241.007 236.36ZM250.333 243V231.32H252.509V241.32H256.493V243H250.333ZM260.132 231.32H262.964L266.548 243H264.452L263.46 239.768H259.62L258.644 243H256.532L260.132 231.32ZM261.54 233.384L260.116 238.12H262.964L261.54 233.384ZM265.915 232.968V231.32H274.219V232.968H271.163V243H268.987V232.968H265.915ZM277.187 231.32H280.019L283.603 243H281.507L280.515 239.768H276.675L275.699 243H273.587L277.187 231.32ZM278.595 233.384L277.171 238.12H280.019L278.595 233.384ZM293.036 231.32H296.076L296.38 243H294.236L294.06 234.008L291.452 241.608H289.564L287.212 234.264L287.052 243H284.908L285.196 231.32H288.252L290.54 238.696L293.036 231.32Z" fill="#114550"/>
<path d="M18.8342 449.968V448.32H27.1382V449.968H24.0822V460H21.9062V449.968H18.8342ZM30.1061 448.32H32.9381L36.5221 460H34.4261L33.4341 456.768H29.5941L28.6181 460H26.5061L30.1061 448.32ZM31.5141 450.384L30.0901 455.12H32.9381L31.5141 450.384ZM37.9877 448.32H42.0677C43.5504 448.32 44.5797 448.709 45.1557 449.488C45.6464 450.16 45.8917 450.949 45.8917 451.856C45.8917 453.467 45.2624 454.533 44.0037 455.056C44.2384 455.312 44.4411 455.632 44.6117 456.016L46.3877 460H44.0677L42.4037 456.208C42.2544 455.888 42.0891 455.669 41.9077 455.552C41.7371 455.435 41.4757 455.376 41.1237 455.376H40.1637V460H37.9877V448.32ZM40.1637 453.696H41.8117C42.4517 453.696 42.9264 453.52 43.2357 453.168C43.5557 452.816 43.7157 452.379 43.7157 451.856C43.7157 451.323 43.5557 450.88 43.2357 450.528C42.9264 450.176 42.4517 450 41.8117 450H40.1637V453.696ZM53.3822 448.32V457.072C53.3822 457.563 53.3449 457.968 53.2702 458.288C53.2062 458.608 53.0676 458.933 52.8542 459.264C52.4276 459.904 51.4729 460.224 49.9902 460.224C48.7849 460.224 47.9742 459.968 47.5582 459.456C47.2809 459.104 47.1156 458.747 47.0622 458.384C46.9876 457.883 46.9502 457.317 46.9502 456.688H48.8382C48.8382 457.349 48.9236 457.813 49.0942 458.08C49.2649 458.336 49.5742 458.464 50.0222 458.464C50.4809 458.464 50.7902 458.363 50.9502 458.16C51.1209 457.957 51.2062 457.595 51.2062 457.072V448.32H53.3822ZM55.9959 448.32H62.5879V450H58.1719V453.232H62.1879V454.896H58.1719V458.32H62.9079V460H55.9959V448.32ZM63.253 449.968V448.32H71.557V449.968H68.501V460H66.325V449.968H63.253ZM74.5249 448.32H77.3569L80.9409 460H78.8449L77.8529 456.768H74.0129L73.0369 460H70.9249L74.5249 448.32ZM75.9329 450.384L74.5089 455.12H77.3569L75.9329 450.384ZM86.6527 448.32H90.5407C92.4287 448.32 93.7087 448.896 94.3807 450.048C94.7114 450.603 94.9407 451.205 95.0687 451.856C95.1967 452.507 95.2607 453.232 95.2607 454.032C95.2607 454.821 95.2234 455.488 95.1487 456.032C95.0741 456.576 94.9301 457.109 94.7167 457.632C94.5141 458.144 94.2421 458.565 93.9007 458.896C93.1434 459.632 92.0234 460 90.5407 460H86.6527V448.32ZM90.2527 450H88.8287V458.32H90.2527C91.3941 458.32 92.1674 457.909 92.5727 457.088C92.9141 456.373 93.0847 455.397 93.0847 454.16C93.0847 452.923 92.9141 451.947 92.5727 451.232C92.1674 450.411 91.3941 450 90.2527 450ZM97.6646 448.32H104.257V450H99.8406V453.232H103.857V454.896H99.8406V458.32H104.577V460H97.6646V448.32ZM110.704 448.32H114.784C116.267 448.32 117.296 448.709 117.872 449.488C118.363 450.16 118.608 450.949 118.608 451.856C118.608 453.467 117.979 454.533 116.72 455.056C116.955 455.312 117.157 455.632 117.328 456.016L119.104 460H116.784L115.12 456.208C114.971 455.888 114.805 455.669 114.624 455.552C114.453 455.435 114.192 455.376 113.84 455.376H112.88V460H110.704V448.32ZM112.88 453.696H114.528C115.168 453.696 115.643 453.52 115.952 453.168C116.272 452.816 116.432 452.379 116.432 451.856C116.432 451.323 116.272 450.88 115.952 450.528C115.643 450.176 115.168 450 114.528 450H112.88V453.696ZM121.106 448.32H127.698V450H123.282V453.232H127.298V454.896H123.282V458.32H128.018V460H121.106V448.32ZM134.3 453.36C135.388 453.637 136.166 454.032 136.636 454.544C137.105 455.056 137.34 455.824 137.34 456.848C137.34 457.872 136.988 458.693 136.284 459.312C135.58 459.92 134.545 460.224 133.18 460.224C131.814 460.224 130.828 459.936 130.22 459.36C129.612 458.773 129.238 457.925 129.1 456.816L130.844 456.544C130.908 457.173 131.121 457.664 131.484 458.016C131.857 458.357 132.374 458.528 133.036 458.528C134.454 458.528 135.164 457.989 135.164 456.912C135.164 456.453 135.03 456.107 134.764 455.872C134.497 455.637 133.985 455.424 133.228 455.232L132.316 455.008C131.249 454.741 130.486 454.347 130.028 453.824C129.569 453.301 129.34 452.523 129.34 451.488C129.34 450.443 129.676 449.616 130.348 449.008C131.02 448.4 132.012 448.096 133.324 448.096C134.646 448.096 135.596 448.389 136.172 448.976C136.758 449.552 137.121 450.395 137.26 451.504L135.532 451.776C135.393 450.453 134.71 449.792 133.484 449.792C132.812 449.792 132.316 449.941 131.996 450.24C131.676 450.528 131.516 450.912 131.516 451.392C131.516 451.872 131.638 452.229 131.884 452.464C132.129 452.699 132.598 452.907 133.292 453.088L134.3 453.36ZM139.38 448.32H141.556V460H139.38V448.32ZM144.408 448.32H148.296C150.184 448.32 151.464 448.896 152.136 450.048C152.466 450.603 152.696 451.205 152.824 451.856C152.952 452.507 153.016 453.232 153.016 454.032C153.016 454.821 152.978 455.488 152.904 456.032C152.829 456.576 152.685 457.109 152.472 457.632C152.269 458.144 151.997 458.565 151.656 458.896C150.898 459.632 149.778 460 148.296 460H144.408V448.32ZM148.008 450H146.584V458.32H148.008C149.149 458.32 149.922 457.909 150.328 457.088C150.669 456.373 150.84 455.397 150.84 454.16C150.84 452.923 150.669 451.947 150.328 451.232C149.922 450.411 149.149 450 148.008 450ZM155.42 448.32H162.012V450H157.596V453.232H161.612V454.896H157.596V458.32H162.332V460H155.42V448.32ZM171.141 448.32H173.317V460H171.013L166.389 452.064V460H164.213V448.32H166.517L171.141 456.272V448.32ZM174.626 449.968V448.32H182.93V449.968H179.874V460H177.698V449.968H174.626ZM184.236 448.32H190.828V450H186.412V453.232H190.428V454.896H186.412V458.32H191.148V460H184.236V448.32ZM195.644 461.696L199.436 447.6H201.596L197.804 461.696H195.644ZM211.129 458.464C212.665 458.464 213.444 457.632 213.465 455.968V455.424H211.673V454.032H215.337V460H214.249L213.881 458.832C213.199 459.76 212.239 460.224 211.001 460.224C209.252 460.224 208.047 459.68 207.385 458.592C207.044 458.037 206.804 457.408 206.665 456.704C206.527 456 206.457 455.147 206.457 454.144C206.457 453.131 206.527 452.272 206.665 451.568C206.815 450.853 207.065 450.229 207.417 449.696C208.111 448.629 209.369 448.096 211.193 448.096C212.505 448.096 213.449 448.389 214.025 448.976C214.601 449.563 214.953 450.427 215.081 451.568L213.321 451.84C213.257 451.2 213.06 450.709 212.729 450.368C212.399 450.027 211.887 449.856 211.193 449.856C210.191 449.856 209.513 450.187 209.161 450.848C208.809 451.509 208.633 452.603 208.633 454.128C208.633 455.653 208.804 456.757 209.145 457.44C209.497 458.123 210.159 458.464 211.129 458.464ZM218.03 448.32H222.11C223.593 448.32 224.622 448.709 225.198 449.488C225.689 450.16 225.934 450.949 225.934 451.856C225.934 453.467 225.305 454.533 224.046 455.056C224.281 455.312 224.484 455.632 224.654 456.016L226.43 460H224.11L222.446 456.208C222.297 455.888 222.132 455.669 221.95 455.552C221.78 455.435 221.518 455.376 221.166 455.376H220.206V460H218.03V448.32ZM220.206 453.696H221.854C222.494 453.696 222.969 453.52 223.278 453.168C223.598 452.816 223.758 452.379 223.758 451.856C223.758 451.323 223.598 450.88 223.278 450.528C222.969 450.176 222.494 450 221.854 450H220.206V453.696ZM228.433 448.32H235.025V450H230.609V453.232H234.625V454.896H230.609V458.32H235.345V460H228.433V448.32ZM237.226 448.32H243.818V450H239.402V453.232H243.418V454.896H239.402V458.32H244.138V460H237.226V448.32ZM252.947 448.32H255.123V460H252.819L248.195 452.064V460H246.019V448.32H248.323L252.947 456.272V448.32ZM262.096 449.856C261.094 449.856 260.416 450.187 260.064 450.848C259.712 451.499 259.536 452.603 259.536 454.16C259.536 455.707 259.712 456.811 260.064 457.472C260.416 458.133 261.094 458.464 262.096 458.464C262.875 458.464 263.424 458.251 263.744 457.824C264.075 457.397 264.251 456.779 264.272 455.968L266.032 456.048C265.947 457.424 265.616 458.464 265.04 459.168C264.475 459.872 263.494 460.224 262.096 460.224C260.272 460.224 259.014 459.691 258.32 458.624C257.968 458.091 257.718 457.472 257.568 456.768C257.43 456.053 257.36 455.184 257.36 454.16C257.36 453.136 257.43 452.272 257.568 451.568C257.718 450.853 257.968 450.229 258.32 449.696C259.014 448.629 260.272 448.096 262.096 448.096C263.408 448.096 264.352 448.389 264.928 448.976C265.504 449.563 265.856 450.427 265.984 451.568L264.224 451.84C264.16 451.2 263.963 450.709 263.632 450.368C263.302 450.027 262.79 449.856 262.096 449.856ZM270.048 448.32H272.88L276.464 460H274.368L273.376 456.768H269.536L268.56 460H266.448L270.048 448.32ZM271.456 450.384L270.032 455.12H272.88L271.456 450.384ZM277.93 448.32H282.01C283.492 448.32 284.522 448.709 285.098 449.488C285.588 450.16 285.834 450.949 285.834 451.856C285.834 453.467 285.204 454.533 283.946 455.056C284.18 455.312 284.383 455.632 284.554 456.016L286.33 460H284.01L282.346 456.208C282.196 455.888 282.031 455.669 281.85 455.552C281.679 455.435 281.418 455.376 281.066 455.376H280.106V460H277.93V448.32ZM280.106 453.696H281.754C282.394 453.696 282.868 453.52 283.178 453.168C283.498 452.816 283.658 452.379 283.658 451.856C283.658 451.323 283.498 450.88 283.178 450.528C282.868 450.176 282.394 450 281.754 450H280.106V453.696ZM288.332 448.32H292.22C294.108 448.32 295.388 448.896 296.06 450.048C296.391 450.603 296.62 451.205 296.748 451.856C296.876 452.507 296.94 453.232 296.94 454.032C296.94 454.821 296.903 455.488 296.828 456.032C296.753 456.576 296.609 457.109 296.396 457.632C296.193 458.144 295.921 458.565 295.58 458.896C294.823 459.632 293.703 460 292.22 460H288.332V448.32ZM291.932 450H290.508V458.32H291.932C293.073 458.32 293.847 457.909 294.252 457.088C294.593 456.373 294.764 455.397 294.764 454.16C294.764 452.923 294.593 451.947 294.252 451.232C293.847 450.411 293.073 450 291.932 450Z" fill="#114550"/>
<path d="M237.837 278.32H240.013V290H237.837V278.32ZM249.793 278.32H251.969V290H249.665L245.041 282.064V290H242.865V278.32H245.169L249.793 286.272V278.32ZM254.814 278.32H261.406V280H256.99V283.232H261.006V284.896H256.99V288.32H261.726V290H254.814V278.32ZM266.222 291.696L270.014 277.6H272.174L268.382 291.696H266.222ZM277.643 278.32H279.819V290H277.643V278.32ZM282.671 278.32H288.943V280H284.847V283.232H288.415V284.896H284.847V290H282.671V278.32ZM290.698 278.32H297.29V280H292.874V283.232H296.89V284.896H292.874V288.32H297.61V290H290.698V278.32Z" fill="#114550"/>
<path d="M80.3974 347V335.32H82.5734V345.32H86.5574V347H80.3974ZM87.9718 335.32H90.1478V347H87.9718V335.32ZM97.1273 336.856C96.1246 336.856 95.4473 337.187 95.0953 337.848C94.7433 338.499 94.5673 339.603 94.5673 341.16C94.5673 342.707 94.7433 343.811 95.0953 344.472C95.4473 345.133 96.1246 345.464 97.1273 345.464C97.9059 345.464 98.4553 345.251 98.7753 344.824C99.1059 344.397 99.2819 343.779 99.3033 342.968L101.063 343.048C100.978 344.424 100.647 345.464 100.071 346.168C99.5059 346.872 98.5246 347.224 97.1273 347.224C95.3033 347.224 94.0446 346.691 93.3513 345.624C92.9993 345.091 92.7486 344.472 92.5993 343.768C92.4606 343.053 92.3913 342.184 92.3913 341.16C92.3913 340.136 92.4606 339.272 92.5993 338.568C92.7486 337.853 92.9993 337.229 93.3513 336.696C94.0446 335.629 95.3033 335.096 97.1273 335.096C98.4393 335.096 99.3833 335.389 99.9593 335.976C100.535 336.563 100.887 337.427 101.015 338.568L99.2553 338.84C99.1913 338.2 98.9939 337.709 98.6633 337.368C98.3326 337.027 97.8206 336.856 97.1273 336.856ZM102.855 335.32H109.447V337H105.031V340.232H109.047V341.896H105.031V345.32H109.767V347H102.855V335.32ZM118.576 335.32H120.752V347H118.448L113.824 339.064V347H111.648V335.32H113.952L118.576 343.272V335.32ZM127.725 336.856C126.723 336.856 126.045 337.187 125.693 337.848C125.341 338.499 125.165 339.603 125.165 341.16C125.165 342.707 125.341 343.811 125.693 344.472C126.045 345.133 126.723 345.464 127.725 345.464C128.504 345.464 129.053 345.251 129.373 344.824C129.704 344.397 129.88 343.779 129.901 342.968L131.661 343.048C131.576 344.424 131.245 345.464 130.669 346.168C130.104 346.872 129.123 347.224 127.725 347.224C125.901 347.224 124.643 346.691 123.949 345.624C123.597 345.091 123.347 344.472 123.197 343.768C123.059 343.053 122.989 342.184 122.989 341.16C122.989 340.136 123.059 339.272 123.197 338.568C123.347 337.853 123.597 337.229 123.949 336.696C124.643 335.629 125.901 335.096 127.725 335.096C129.037 335.096 129.981 335.389 130.557 335.976C131.133 336.563 131.485 337.427 131.613 338.568L129.853 338.84C129.789 338.2 129.592 337.709 129.261 337.368C128.931 337.027 128.419 336.856 127.725 336.856ZM133.453 335.32H135.629V347H133.453V335.32ZM140.705 335.32H143.537L147.121 347H145.025L144.033 343.768H140.193L139.217 347H137.105L140.705 335.32ZM142.113 337.384L140.689 342.12H143.537L142.113 337.384ZM152.832 335.32H156.72C158.608 335.32 159.888 335.896 160.56 337.048C160.891 337.603 161.12 338.205 161.248 338.856C161.376 339.507 161.44 340.232 161.44 341.032C161.44 341.821 161.403 342.488 161.328 343.032C161.254 343.576 161.11 344.109 160.896 344.632C160.694 345.144 160.422 345.565 160.08 345.896C159.323 346.632 158.203 347 156.72 347H152.832V335.32ZM156.432 337H155.008V345.32H156.432C157.574 345.32 158.347 344.909 158.752 344.088C159.094 343.373 159.264 342.397 159.264 341.16C159.264 339.923 159.094 338.947 158.752 338.232C158.347 337.411 157.574 337 156.432 337ZM163.844 335.32H170.436V337H166.02V340.232H170.036V341.896H166.02V345.32H170.756V347H163.844V335.32ZM184.852 335.32H187.892L188.196 347H186.052L185.876 338.008L183.268 345.608H181.38L179.028 338.264L178.868 347H176.724L177.012 335.32H180.068L182.356 342.696L184.852 335.32ZM193.104 335.32H195.936L199.52 347H197.424L196.432 343.768H192.592L191.616 347H189.504L193.104 335.32ZM194.512 337.384L193.088 342.12H195.936L194.512 337.384ZM207.914 335.32H210.09V347H207.786L203.162 339.064V347H200.986V335.32H203.29L207.914 343.272V335.32ZM212.935 335.32H219.527V337H215.111V340.232H219.127V341.896H215.111V345.32H219.847V347H212.935V335.32ZM226.72 335.32V344.072C226.72 344.563 226.683 344.968 226.608 345.288C226.544 345.608 226.405 345.933 226.192 346.264C225.765 346.904 224.811 347.224 223.328 347.224C222.123 347.224 221.312 346.968 220.896 346.456C220.619 346.104 220.453 345.747 220.4 345.384C220.325 344.883 220.288 344.317 220.288 343.688H222.176C222.176 344.349 222.261 344.813 222.432 345.08C222.603 345.336 222.912 345.464 223.36 345.464C223.819 345.464 224.128 345.363 224.288 345.16C224.459 344.957 224.544 344.595 224.544 344.072V335.32H226.72ZM237.35 345.448C237.008 346.024 236.512 346.467 235.862 346.776C235.222 347.075 234.475 347.224 233.622 347.224C232.779 347.224 232.075 347.123 231.51 346.92C230.944 346.707 230.486 346.429 230.134 346.088C229.782 345.736 229.499 345.293 229.286 344.76C228.912 343.821 228.726 342.621 228.726 341.16C228.726 340.253 228.795 339.459 228.934 338.776C229.072 338.093 229.312 337.464 229.654 336.888C230.336 335.693 231.616 335.096 233.494 335.096C235.627 335.096 237.035 335.923 237.718 337.576C238.091 338.504 238.278 339.699 238.278 341.16C238.278 342.077 238.208 342.877 238.07 343.56C237.931 344.243 237.691 344.872 237.35 345.448ZM233.494 345.464C234.464 345.464 235.142 345.085 235.526 344.328C235.91 343.571 236.102 342.515 236.102 341.16C236.102 339.805 235.91 338.749 235.526 337.992C235.142 337.235 234.464 336.856 233.494 336.856C232.47 336.856 231.771 337.272 231.398 338.104C231.067 338.861 230.902 339.88 230.902 341.16C230.902 343.293 231.334 344.621 232.198 345.144C232.55 345.357 232.982 345.464 233.494 345.464ZM244.764 335.32H248.652C250.54 335.32 251.82 335.896 252.492 337.048C252.822 337.603 253.052 338.205 253.18 338.856C253.308 339.507 253.372 340.232 253.372 341.032C253.372 341.821 253.334 342.488 253.26 343.032C253.185 343.576 253.041 344.109 252.828 344.632C252.625 345.144 252.353 345.565 252.012 345.896C251.254 346.632 250.134 347 248.652 347H244.764V335.32ZM248.364 337H246.94V345.32H248.364C249.505 345.32 250.278 344.909 250.684 344.088C251.025 343.373 251.196 342.397 251.196 341.16C251.196 339.923 251.025 338.947 250.684 338.232C250.278 337.411 249.505 337 248.364 337ZM255.776 335.32H262.368V337H257.952V340.232H261.968V341.896H257.952V345.32H262.688V347H255.776V335.32ZM275.119 335.32H277.295V343.144C277.295 343.859 277.204 344.472 277.023 344.984C276.842 345.496 276.618 345.896 276.351 346.184C276.084 346.461 275.743 346.685 275.327 346.856C274.911 347.016 274.522 347.117 274.159 347.16C273.807 347.203 273.396 347.224 272.927 347.224C272.458 347.224 272.042 347.203 271.679 347.16C271.327 347.117 270.943 347.016 270.527 346.856C270.111 346.685 269.77 346.461 269.503 346.184C269.247 345.896 269.028 345.496 268.847 344.984C268.666 344.472 268.575 343.859 268.575 343.144V335.32H270.751V342.984C270.751 343.976 270.943 344.637 271.327 344.968C271.711 345.288 272.244 345.448 272.927 345.448C273.258 345.448 273.535 345.421 273.759 345.368C273.983 345.315 274.207 345.208 274.431 345.048C274.89 344.717 275.119 344.029 275.119 342.984V335.32ZM284.305 340.36C285.393 340.637 286.172 341.032 286.641 341.544C287.11 342.056 287.345 342.824 287.345 343.848C287.345 344.872 286.993 345.693 286.289 346.312C285.585 346.92 284.55 347.224 283.185 347.224C281.82 347.224 280.833 346.936 280.225 346.36C279.617 345.773 279.244 344.925 279.105 343.816L280.849 343.544C280.913 344.173 281.126 344.664 281.489 345.016C281.862 345.357 282.38 345.528 283.041 345.528C284.46 345.528 285.169 344.989 285.169 343.912C285.169 343.453 285.036 343.107 284.769 342.872C284.502 342.637 283.99 342.424 283.233 342.232L282.321 342.008C281.254 341.741 280.492 341.347 280.033 340.824C279.574 340.301 279.345 339.523 279.345 338.488C279.345 337.443 279.681 336.616 280.353 336.008C281.025 335.4 282.017 335.096 283.329 335.096C284.652 335.096 285.601 335.389 286.177 335.976C286.764 336.552 287.126 337.395 287.265 338.504L285.537 338.776C285.398 337.453 284.716 336.792 283.489 336.792C282.817 336.792 282.321 336.941 282.001 337.24C281.681 337.528 281.521 337.912 281.521 338.392C281.521 338.872 281.644 339.229 281.889 339.464C282.134 339.699 282.604 339.907 283.297 340.088L284.305 340.36ZM291.61 335.32H294.442L298.026 347H295.93L294.938 343.768H291.098L290.122 347H288.01L291.61 335.32ZM293.018 337.384L291.594 342.12H294.442L293.018 337.384Z" fill="#114550"/>
<path d="M21.9511 393.968V392.32H30.2551V393.968H27.1991V404H25.0231V393.968H21.9511ZM33.223 392.32H36.055L39.639 404H37.543L36.551 400.768H32.711L31.735 404H29.623L33.223 392.32ZM34.631 394.384L33.207 399.12H36.055L34.631 394.384ZM41.1046 392.32H45.1846C46.6673 392.32 47.6966 392.709 48.2726 393.488C48.7633 394.16 49.0086 394.949 49.0086 395.856C49.0086 397.467 48.3793 398.533 47.1206 399.056C47.3553 399.312 47.558 399.632 47.7286 400.016L49.5046 404H47.1846L45.5206 400.208C45.3713 399.888 45.206 399.669 45.0246 399.552C44.854 399.435 44.5926 399.376 44.2406 399.376H43.2806V404H41.1046V392.32ZM43.2806 397.696H44.9286C45.5686 397.696 46.0433 397.52 46.3526 397.168C46.6726 396.816 46.8326 396.379 46.8326 395.856C46.8326 395.323 46.6726 394.88 46.3526 394.528C46.0433 394.176 45.5686 394 44.9286 394H43.2806V397.696ZM56.4991 392.32V401.072C56.4991 401.563 56.4618 401.968 56.3871 402.288C56.3231 402.608 56.1845 402.933 55.9711 403.264C55.5445 403.904 54.5898 404.224 53.1071 404.224C51.9018 404.224 51.0911 403.968 50.6751 403.456C50.3978 403.104 50.2325 402.747 50.1791 402.384C50.1045 401.883 50.0671 401.317 50.0671 400.688H51.9551C51.9551 401.349 52.0405 401.813 52.2111 402.08C52.3818 402.336 52.6911 402.464 53.1391 402.464C53.5978 402.464 53.9071 402.363 54.0671 402.16C54.2378 401.957 54.3231 401.595 54.3231 401.072V392.32H56.4991ZM59.1127 392.32H65.7048V394H61.2887V397.232H65.3047V398.896H61.2887V402.32H66.0247V404H59.1127V392.32ZM66.3699 393.968V392.32H74.6739V393.968H71.6179V404H69.4419V393.968H66.3699ZM77.6417 392.32H80.4738L84.0577 404H81.9618L80.9697 400.768H77.1297L76.1537 404H74.0417L77.6417 392.32ZM79.0497 394.384L77.6257 399.12H80.4738L79.0497 394.384ZM89.7696 392.32H93.6576C95.5456 392.32 96.8256 392.896 97.4976 394.048C97.8283 394.603 98.0576 395.205 98.1856 395.856C98.3136 396.507 98.3776 397.232 98.3776 398.032C98.3776 398.821 98.3403 399.488 98.2656 400.032C98.191 400.576 98.047 401.109 97.8336 401.632C97.631 402.144 97.359 402.565 97.0176 402.896C96.2603 403.632 95.1403 404 93.6576 404H89.7696V392.32ZM93.3696 394H91.9456V402.32H93.3696C94.511 402.32 95.2843 401.909 95.6896 401.088C96.031 400.373 96.2016 399.397 96.2016 398.16C96.2016 396.923 96.031 395.947 95.6896 395.232C95.2843 394.411 94.511 394 93.3696 394ZM100.781 392.32H107.373V394H102.957V397.232H106.973V398.896H102.957V402.32H107.693V404H100.781V392.32ZM113.821 392.32H115.997V404H113.821V392.32ZM118.848 392.32H122.736C124.624 392.32 125.904 392.896 126.576 394.048C126.907 394.603 127.136 395.205 127.264 395.856C127.392 396.507 127.456 397.232 127.456 398.032C127.456 398.821 127.419 399.488 127.344 400.032C127.27 400.576 127.126 401.109 126.912 401.632C126.71 402.144 126.438 402.565 126.096 402.896C125.339 403.632 124.219 404 122.736 404H118.848V392.32ZM122.448 394H121.024V402.32H122.448C123.59 402.32 124.363 401.909 124.768 401.088C125.11 400.373 125.28 399.397 125.28 398.16C125.28 396.923 125.11 395.947 124.768 395.232C124.363 394.411 123.59 394 122.448 394ZM129.86 392.32H136.452V394H132.036V397.232H136.052V398.896H132.036V402.32H136.772V404H129.86V392.32ZM145.581 392.32H147.757V404H145.453L140.829 396.064V404H138.653V392.32H140.957L145.581 400.272V392.32ZM149.067 393.968V392.32H157.371V393.968H154.315V404H152.139V393.968H149.067ZM158.677 392.32H160.853V404H158.677V392.32ZM163.705 392.32H169.977V394H165.881V397.232H169.449V398.896H165.881V404H163.705V392.32ZM171.732 392.32H173.908V404H171.732V392.32ZM180.888 393.856C179.885 393.856 179.208 394.187 178.856 394.848C178.504 395.499 178.328 396.603 178.328 398.16C178.328 399.707 178.504 400.811 178.856 401.472C179.208 402.133 179.885 402.464 180.888 402.464C181.666 402.464 182.216 402.251 182.536 401.824C182.866 401.397 183.042 400.779 183.064 399.968L184.824 400.048C184.738 401.424 184.408 402.464 183.832 403.168C183.266 403.872 182.285 404.224 180.888 404.224C179.064 404.224 177.805 403.691 177.112 402.624C176.76 402.091 176.509 401.472 176.36 400.768C176.221 400.053 176.152 399.184 176.152 398.16C176.152 397.136 176.221 396.272 176.36 395.568C176.509 394.853 176.76 394.229 177.112 393.696C177.805 392.629 179.064 392.096 180.888 392.096C182.2 392.096 183.144 392.389 183.72 392.976C184.296 393.563 184.648 394.427 184.776 395.568L183.016 395.84C182.952 395.2 182.754 394.709 182.424 394.368C182.093 394.027 181.581 393.856 180.888 393.856ZM188.839 392.32H191.671L195.255 404H193.159L192.167 400.768H188.327L187.351 404H185.239L188.839 392.32ZM190.247 394.384L188.823 399.12H191.671L190.247 394.384ZM200.849 393.856C199.846 393.856 199.169 394.187 198.817 394.848C198.465 395.499 198.289 396.603 198.289 398.16C198.289 399.707 198.465 400.811 198.817 401.472C199.169 402.133 199.846 402.464 200.849 402.464C201.628 402.464 202.177 402.251 202.497 401.824C202.828 401.397 203.004 400.779 203.025 399.968L204.785 400.048C204.7 401.424 204.369 402.464 203.793 403.168C203.228 403.872 202.246 404.224 200.849 404.224C199.025 404.224 197.766 403.691 197.073 402.624C196.721 402.091 196.47 401.472 196.321 400.768C196.182 400.053 196.113 399.184 196.113 398.16C196.113 397.136 196.182 396.272 196.321 395.568C196.47 394.853 196.721 394.229 197.073 393.696C197.766 392.629 199.025 392.096 200.849 392.096C202.161 392.096 203.105 392.389 203.681 392.976C204.257 393.563 204.609 394.427 204.737 395.568L202.977 395.84C202.913 395.2 202.716 394.709 202.385 394.368C202.054 394.027 201.542 393.856 200.849 393.856ZM206.576 392.32H208.752V404H206.576V392.32ZM219.62 402.448C219.279 403.024 218.783 403.467 218.132 403.776C217.492 404.075 216.745 404.224 215.892 404.224C215.049 404.224 214.345 404.123 213.78 403.92C213.215 403.707 212.756 403.429 212.404 403.088C212.052 402.736 211.769 402.293 211.556 401.76C211.183 400.821 210.996 399.621 210.996 398.16C210.996 397.253 211.065 396.459 211.204 395.776C211.343 395.093 211.583 394.464 211.924 393.888C212.607 392.693 213.887 392.096 215.764 392.096C217.897 392.096 219.305 392.923 219.988 394.576C220.361 395.504 220.548 396.699 220.548 398.16C220.548 399.077 220.479 399.877 220.34 400.56C220.201 401.243 219.961 401.872 219.62 402.448ZM215.764 402.464C216.735 402.464 217.412 402.085 217.796 401.328C218.18 400.571 218.372 399.515 218.372 398.16C218.372 396.805 218.18 395.749 217.796 394.992C217.412 394.235 216.735 393.856 215.764 393.856C214.74 393.856 214.041 394.272 213.668 395.104C213.337 395.861 213.172 396.88 213.172 398.16C213.172 400.293 213.604 401.621 214.468 402.144C214.82 402.357 215.252 402.464 215.764 402.464ZM214.532 391.552L213.812 390.4L216.932 388.272L217.892 389.808L214.532 391.552ZM229.716 392.32H231.892V404H229.588L224.964 396.064V404H222.788V392.32H225.092L229.716 400.272V392.32ZM238.983 392.32H245.575V394H241.159V397.232H245.175V398.896H241.159V402.32H245.895V404H238.983V392.32ZM252.176 397.36C253.264 397.637 254.043 398.032 254.512 398.544C254.982 399.056 255.216 399.824 255.216 400.848C255.216 401.872 254.864 402.693 254.16 403.312C253.456 403.92 252.422 404.224 251.056 404.224C249.691 404.224 248.704 403.936 248.096 403.36C247.488 402.773 247.115 401.925 246.976 400.816L248.72 400.544C248.784 401.173 248.998 401.664 249.36 402.016C249.734 402.357 250.251 402.528 250.912 402.528C252.331 402.528 253.04 401.989 253.04 400.912C253.04 400.453 252.907 400.107 252.64 399.872C252.374 399.637 251.862 399.424 251.104 399.232L250.192 399.008C249.126 398.741 248.363 398.347 247.904 397.824C247.446 397.301 247.216 396.523 247.216 395.488C247.216 394.443 247.552 393.616 248.224 393.008C248.896 392.4 249.888 392.096 251.2 392.096C252.523 392.096 253.472 392.389 254.048 392.976C254.635 393.552 254.998 394.395 255.136 395.504L253.408 395.776C253.27 394.453 252.587 393.792 251.36 393.792C250.688 393.792 250.192 393.941 249.872 394.24C249.552 394.528 249.392 394.912 249.392 395.392C249.392 395.872 249.515 396.229 249.76 396.464C250.006 396.699 250.475 396.907 251.168 397.088L252.176 397.36ZM255.721 393.968V392.32H264.025V393.968H260.969V404H258.793V393.968H255.721ZM266.993 392.32H269.825L273.409 404H271.313L270.321 400.768H266.481L265.505 404H263.393L266.993 392.32ZM268.401 394.384L266.977 399.12H269.825L268.401 394.384ZM272.776 393.968V392.32H281.08V393.968H278.024V404H275.848V393.968H272.776ZM284.048 392.32H286.88L290.464 404H288.368L287.376 400.768H283.536L282.56 404H280.448L284.048 392.32ZM285.456 394.384L284.032 399.12H286.88L285.456 394.384ZM291.93 404V392.32H294.106V402.32H298.09V404H291.93Z" fill="#114550"/>
<path d="M370.586 31.73H374.726V37.28C374.726 39.88 373.426 41.18 370.826 41.18H368.246C365.646 41.18 364.346 39.88 364.346 37.28V23.72C364.346 21.12 365.646 19.82 368.246 19.82H370.766C373.366 19.82 374.666 21.12 374.666 23.72V28.64H370.526V24.17C370.526 23.67 370.276 23.42 369.776 23.42H369.296C368.796 23.42 368.546 23.67 368.546 24.17V36.83C368.546 37.33 368.796 37.58 369.296 37.58H369.836C370.336 37.58 370.586 37.33 370.586 36.83V31.73ZM386.445 20V37.28C386.445 39.88 385.145 41.18 382.545 41.18H379.995C377.395 41.18 376.095 39.88 376.095 37.28V20H380.295V36.83C380.295 37.33 380.545 37.58 381.045 37.58H381.495C381.995 37.58 382.245 37.33 382.245 36.83V20H386.445ZM387.902 20H395.702V23.75H392.102V28.46H395.552V32.21H392.102V37.25H395.762V41H387.902V20ZM403.822 30.44L403.732 20H407.362V41H403.282L400.642 29.6L400.732 41H397.102V20H401.392L403.822 30.44ZM415.15 41H410.95V23.75H408.4V20H417.7V23.75H415.15V41ZM425.441 20L428.201 41H424.031L423.701 37.94H421.061L420.761 41H416.951L419.711 20H425.441ZM422.381 25.1L421.451 34.28H423.341L422.381 25.1ZM366.579 57.11C367.219 57.57 367.659 58.04 367.899 58.52C368.139 59 368.259 59.63 368.259 60.41V64.28C368.259 66.88 366.959 68.18 364.359 68.18H362.019C359.419 68.18 358.119 66.88 358.119 64.28V59.81H362.229V63.89C362.229 64.39 362.479 64.64 362.979 64.64H363.369C363.869 64.64 364.119 64.39 364.119 63.89V61.37C364.119 60.81 363.879 60.36 363.399 60.02L359.799 57.35C359.159 56.89 358.719 56.42 358.479 55.94C358.239 55.44 358.119 54.81 358.119 54.05V50.72C358.119 48.12 359.419 46.82 362.019 46.82H364.299C366.899 46.82 368.199 48.12 368.199 50.72V54.56H364.089V51.11C364.089 50.61 363.839 50.36 363.339 50.36H363.009C362.509 50.36 362.259 50.61 362.259 51.11V53.09C362.259 53.65 362.499 54.1 362.979 54.44L366.579 57.11ZM377.262 47L380.022 68H375.852L375.522 64.94H372.882L372.582 68H368.772L371.532 47H377.262ZM374.202 52.1L373.272 61.28H375.162L374.202 52.1ZM386.949 58.73H391.089V64.28C391.089 66.88 389.789 68.18 387.189 68.18H384.609C382.009 68.18 380.709 66.88 380.709 64.28V50.72C380.709 48.12 382.009 46.82 384.609 46.82H387.129C389.729 46.82 391.029 48.12 391.029 50.72V55.64H386.889V51.17C386.889 50.67 386.639 50.42 386.139 50.42H385.659C385.159 50.42 384.909 50.67 384.909 51.17V63.83C384.909 64.33 385.159 64.58 385.659 64.58H386.199C386.699 64.58 386.949 64.33 386.949 63.83V58.73ZM400.827 57.14C402.027 57.48 402.627 58.38 402.627 59.84V64.1C402.627 66.7 401.327 68 398.727 68H392.487V47H398.667C401.267 47 402.567 48.3 402.567 50.9V54.02C402.567 55.66 401.987 56.7 400.827 57.14ZM398.397 51.35C398.397 50.85 398.147 50.6 397.647 50.6H396.657V55.58H397.647C398.147 55.58 398.397 55.33 398.397 54.83V51.35ZM396.657 59.09V64.4H397.707C398.207 64.4 398.457 64.15 398.457 63.65V59.84C398.457 59.34 398.207 59.09 397.707 59.09H396.657ZM403.972 47H411.772V50.75H408.172V55.46H411.622V59.21H408.172V64.25H411.832V68H403.972V47ZM406.402 45.95L407.752 43.1H411.622L409.252 45.95H406.402ZM421.301 47L421.991 52.91L422.621 47H425.411V56.15H423.461V50.03L422.651 56.15H420.941L420.131 49.97V56.15H418.571V47H421.301ZM416.651 56.15H414.671V48.74H413.291V47H418.031V48.74H416.651V56.15ZM431.463 46.94L431.373 49.7L434.013 48.17H434.103V50.18L432.033 51.23L434.103 52.28V54.29H434.013L431.403 52.79L431.463 55.52H429.573L429.633 52.79L427.023 54.29H426.933V52.28L428.973 51.23L426.933 50.18V48.17H427.023L429.633 49.7L429.573 46.94H431.463Z" fill="#CA8923"/>
<path d="M324.941 85H443.838C452.122 85 458.838 91.7157 458.838 100V468C458.838 476.284 452.122 483 443.838 483H324.941V85Z" stroke="#114550" stroke-width="2.4581"/>
<path d="M4 100C4 91.7157 10.7157 85 19 85H325.316V483H19C10.7157 483 4 476.284 4 468V100Z" stroke="#114550" stroke-width="2.4581"/>
<path d="M459 198H4" stroke="#114550" stroke-width="2.4581"/>
<path d="M459 311H4" stroke="#114550" stroke-width="2.4581"/>
<path d="M459 424H4" stroke="#114550" stroke-width="2.4581"/>
<path d="M459 141H4" stroke="#114550" stroke-width="2.4581"/>
<path d="M459 254H4" stroke="#114550" stroke-width="2.4581"/>
<path d="M459 367H4" stroke="#114550" stroke-width="2.4581"/>
<circle cx="391.821" cy="112.821" r="17.8212" fill="#317C82"/>
<path fill-rule="evenodd" clip-rule="evenodd" d="M402.269 106.705L387.89 120.811L380.146 113.215L383.307 110.115L387.89 114.61L399.109 103.604L402.269 106.705Z" fill="#FFF6D2"/>
<circle cx="391.821" cy="170.593" r="17.8212" fill="#317C82"/>
<path fill-rule="evenodd" clip-rule="evenodd" d="M402.269 164.476L387.89 178.583L380.146 170.987L383.307 167.887L387.89 172.382L399.109 161.376L402.269 164.476Z" fill="#FFF6D2"/>
<circle cx="391.821" cy="227.126" r="17.8212" fill="#317C82"/>
<path fill-rule="evenodd" clip-rule="evenodd" d="M402.269 221.01L387.89 235.116L380.146 227.52L383.307 224.42L387.89 228.915L399.109 217.909L402.269 221.01Z" fill="#FFF6D2"/>
<circle cx="391.821" cy="283.657" r="17.8212" fill="#317C82"/>
<path fill-rule="evenodd" clip-rule="evenodd" d="M402.269 277.541L387.89 291.647L380.146 284.051L383.307 280.951L387.89 285.446L399.109 274.44L402.269 277.541Z" fill="#FFF6D2"/>
<circle cx="391.821" cy="340.196" r="17.8212" fill="#317C82"/>
<path fill-rule="evenodd" clip-rule="evenodd" d="M402.269 334.08L387.89 348.186L380.146 340.59L383.307 337.49L387.89 341.985L399.109 330.979L402.269 334.08Z" fill="#FFF6D2"/>
<circle cx="391.821" cy="396.732" r="17.8212" fill="#317C82"/>
<path fill-rule="evenodd" clip-rule="evenodd" d="M402.269 390.616L387.89 404.722L380.146 397.127L383.307 394.026L387.89 398.521L399.109 387.516L402.269 390.616Z" fill="#FFF6D2"/>
<circle cx="391.821" cy="453.272" r="17.8212" fill="#317C82"/>
<path fill-rule="evenodd" clip-rule="evenodd" d="M402.269 447.156L387.89 461.262L380.146 453.667L383.307 450.566L387.89 455.062L399.109 444.056L402.269 447.156Z" fill="#FFF6D2"/>
</svg>
